<?xml version="1.0" encoding="UTF-8"?>
<svg width="66px" height="66px" viewBox="0 0 66 66" version="1.1" xmlns="http://www.w3.org/2000/svg" xmlns:xlink="http://www.w3.org/1999/xlink">
    <!-- Generator: Sketch 56.2 (81672) - https://sketch.com -->
    <title>椭圆形</title>
    <desc>Created with Sketch.</desc>
    <defs>
        <linearGradient x1="50%" y1="0%" x2="50%" y2="100%" id="linearGradient-1">
            <stop stop-color="#17B8EB" offset="0%"></stop>
            <stop stop-color="#0793BF" offset="100%"></stop>
        </linearGradient>
    </defs>
    <g id="首页新增广告位" stroke="none" stroke-width="1" fill="none" fill-rule="evenodd">
        <g id="1.官网主页_PC1440-02-新增广告" transform="translate(-846.000000, -645.000000)">
            <g id="编组-19" transform="translate(759.000000, 648.000000)">
                <g id="编组-15" transform="translate(90.000000, 0.000000)">
                    <circle id="椭圆形" stroke="#FFFFFF" stroke-width="3" fill="url(#linearGradient-1)" cx="30" cy="30" r="31.5"></circle>
                    <path d="M43.859993,19.9447552 C45.2999924,19.0290594 46.5599915,17.3808045 47.0999924,15.5494194 C45.659993,16.4651151 44.0399934,17.1976743 42.4199968,17.3808141 C41.1599978,15.915699 39.1799975,15 37.0199873,15 C32.8800022,15 29.6400028,18.4796529 29.6400028,22.8749887 C29.6400028,23.424408 29.6400028,24.156964 29.8200028,24.7063834 C23.7000111,24.3401038 18.3000016,21.2267305 14.5199918,16.4651087 C13.9799908,17.5639443 13.6199934,19.0290594 13.6199934,20.4941906 C13.6199934,23.2412811 14.6999921,25.6220985 16.6799924,27.0872104 C15.4199934,27.0872104 13.2599896,26.7209308 13.2599896,26.1715146 L13.2599896,26.3546541 C13.2599896,30.200593 15.959988,33.3139599 19.3799813,34.0464997 C18.8399804,34.2296392 18.1199823,34.4127793 17.5799813,34.4127793 C17.0399804,34.4127793 16.6799829,34.4127793 16.139982,34.2296398 C17.0399804,37.3430099 19.7399883,39.7238337 22.9799877,39.7238337 C20.4599896,41.921508 17.2200028,43.2034866 13.8,43.2034866 C13.2599991,43.2034866 12.5400009,43.2034866 12,43.0203471 C15.2399994,45.2180214 19.2000127,46.5 23.3399978,46.5 C36.8400057,46.5 44.3999937,34.4127864 44.3999937,23.9738599 L44.3999937,22.8750244 C45.839993,21.7761888 47.0999921,20.3110737 48,18.8459425 C46.9200013,19.3953618 45.4800019,19.7616382 43.8600149,19.944778 L43.859993,19.9447552 Z" id="路径" fill="#FFFFFF" fill-rule="nonzero"></path>
                </g>
            </g>
        </g>
    </g>
</svg>