<?xml version="1.0" encoding="UTF-8"?>
<svg width="1920px" height="780px" viewBox="0 0 1920 780" version="1.1" xmlns="http://www.w3.org/2000/svg" xmlns:xlink="http://www.w3.org/1999/xlink">
    <!-- Generator: Sketch 64 (93537) - https://sketch.com -->
    <title>背景</title>
    <desc>Created with Sketch.</desc>
    <defs>
        <linearGradient x1="19.1011109%" y1="58.2700532%" x2="100%" y2="58.2700532%" id="linearGradient-1">
            <stop stop-color="#0152C1" offset="0%"></stop>
            <stop stop-color="#023F87" offset="100%"></stop>
        </linearGradient>
        <rect id="path-2" x="0" y="0" width="1920" height="780"></rect>
        <linearGradient x1="13.7969468%" y1="42.6212408%" x2="61.8925932%" y2="54.2927249%" id="linearGradient-4">
            <stop stop-color="#065BE5" offset="0%"></stop>
            <stop stop-color="#0048AC" offset="100%"></stop>
        </linearGradient>
        <linearGradient x1="28.3037302%" y1="37.0414055%" x2="89.9785947%" y2="71.0045848%" id="linearGradient-5">
            <stop stop-color="#065ADE" offset="0%"></stop>
            <stop stop-color="#004DBC" offset="100%"></stop>
        </linearGradient>
        <linearGradient x1="90.4970422%" y1="32.5636865%" x2="3.51265262%" y2="76.3624378%" id="linearGradient-6">
            <stop stop-color="#024CB4" offset="0%"></stop>
            <stop stop-color="#0249A8" offset="100%"></stop>
        </linearGradient>
        <linearGradient x1="100%" y1="39.699304%" x2="17.5917521%" y2="63.5018386%" id="linearGradient-7">
            <stop stop-color="#0148A4" offset="0%"></stop>
            <stop stop-color="#034AA6" offset="100%"></stop>
        </linearGradient>
    </defs>
    <g id="Page-1" stroke="none" stroke-width="1" fill="none" fill-rule="evenodd">
        <g id="高杠杆-pc">
            <g id="背景-2">
                <g id="背景">
                    <mask id="mask-3" fill="white">
                        <use xlink:href="#path-2"></use>
                    </mask>
                    <use id="Mask" fill="url(#linearGradient-1)" fill-rule="nonzero" xlink:href="#path-2"></use>
                    <path d="M192.601653,0 L1679,0 C1679.55228,-1.25676467e-13 1680,0.44771525 1680,1 L1680,352.008584 C1680,352.46936 1679.68515,352.87049 1679.23757,352.979955 L784.617807,571.775901 L784.617807,571.775901 L192.117449,243.883662 C191.799178,243.70753 191.601653,243.372463 191.601653,243.008707 L191.601653,1 C191.601653,0.44771525 192.049368,1.01453063e-16 192.601653,0 Z" id="矩形" fill="url(#linearGradient-4)" fill-rule="nonzero" mask="url(#mask-3)"></path>
                    <polygon id="路径-2" fill="url(#linearGradient-5)" fill-rule="nonzero" mask="url(#mask-3)" points="-28.8998528 399.146203 874.606543 644.44848 170.678926 -33.9990047 -10.6867135 -1.0658141e-13"></polygon>
                    <polygon id="路径-3" fill="url(#linearGradient-6)" fill-rule="nonzero" mask="url(#mask-3)" points="985 617.303114 1543.89655 -71.2046738 1932.26842 -18.0776437 1932.26842 262 985 668.005067"></polygon>
                    <path d="M972.178785,641.4485 C972.178785,641.4485 1291.10884,454.299 1928.96894,80 L1961.79571,450 L947,680.4485 C963.785857,654.4485 972.178785,641.4485 972.178785,641.4485 Z" id="路径-4" fill="url(#linearGradient-7)" fill-rule="nonzero" mask="url(#mask-3)"></path>
                    <path d="M848.5,269 C849.328427,269 850,269.671573 850,270.5 C850,271.328427 849.328427,272 848.5,272 C847.671573,272 847,271.328427 847,270.5 C847,269.671573 847.671573,269 848.5,269 Z M803.5,269 C804.328427,269 805,269.671573 805,270.5 C805,271.328427 804.328427,272 803.5,272 C802.671573,272 802,271.328427 802,270.5 C802,269.671573 802.671573,269 803.5,269 Z M743.5,269 C744.328427,269 745,269.671573 745,270.5 C745,271.328427 744.328427,272 743.5,272 C742.671573,272 742,271.328427 742,270.5 C742,269.671573 742.671573,269 743.5,269 Z M773.5,269 C774.328427,269 775,269.671573 775,270.5 C775,271.328427 774.328427,272 773.5,272 C772.671573,272 772,271.328427 772,270.5 C772,269.671573 772.671573,269 773.5,269 Z M713.5,269 C714.328427,269 715,269.671573 715,270.5 C715,271.328427 714.328427,272 713.5,272 C712.671573,272 712,271.328427 712,270.5 C712,269.671573 712.671573,269 713.5,269 Z M863.5,269 C864.328427,269 865,269.671573 865,270.5 C865,271.328427 864.328427,272 863.5,272 C862.671573,272 862,271.328427 862,270.5 C862,269.671573 862.671573,269 863.5,269 Z M818.5,269 C819.328427,269 820,269.671573 820,270.5 C820,271.328427 819.328427,272 818.5,272 C817.671573,272 817,271.328427 817,270.5 C817,269.671573 817.671573,269 818.5,269 Z M758.5,269 C759.328427,269 760,269.671573 760,270.5 C760,271.328427 759.328427,272 758.5,272 C757.671573,272 757,271.328427 757,270.5 C757,269.671573 757.671573,269 758.5,269 Z M833.5,269 C834.328427,269 835,269.671573 835,270.5 C835,271.328427 834.328427,272 833.5,272 C832.671573,272 832,271.328427 832,270.5 C832,269.671573 832.671573,269 833.5,269 Z M788.5,269 C789.328427,269 790,269.671573 790,270.5 C790,271.328427 789.328427,272 788.5,272 C787.671573,272 787,271.328427 787,270.5 C787,269.671573 787.671573,269 788.5,269 Z M728.5,269 C729.328427,269 730,269.671573 730,270.5 C730,271.328427 729.328427,272 728.5,272 C727.671573,272 727,271.328427 727,270.5 C727,269.671573 727.671573,269 728.5,269 Z M698.5,269 C699.328427,269 700,269.671573 700,270.5 C700,271.328427 699.328427,272 698.5,272 C697.671573,272 697,271.328427 697,270.5 C697,269.671573 697.671573,269 698.5,269 Z M848.5,251 C849.328427,251 850,251.671573 850,252.5 C850,253.328427 849.328427,254 848.5,254 C847.671573,254 847,253.328427 847,252.5 C847,251.671573 847.671573,251 848.5,251 Z M698.5,251 C699.328427,251 700,251.671573 700,252.5 C700,253.328427 699.328427,254 698.5,254 C697.671573,254 697,253.328427 697,252.5 C697,251.671573 697.671573,251 698.5,251 Z M728.5,251 C729.328427,251 730,251.671573 730,252.5 C730,253.328427 729.328427,254 728.5,254 C727.671573,254 727,253.328427 727,252.5 C727,251.671573 727.671573,251 728.5,251 Z M788.5,251 C789.328427,251 790,251.671573 790,252.5 C790,253.328427 789.328427,254 788.5,254 C787.671573,254 787,253.328427 787,252.5 C787,251.671573 787.671573,251 788.5,251 Z M833.5,251 C834.328427,251 835,251.671573 835,252.5 C835,253.328427 834.328427,254 833.5,254 C832.671573,254 832,253.328427 832,252.5 C832,251.671573 832.671573,251 833.5,251 Z M758.5,251 C759.328427,251 760,251.671573 760,252.5 C760,253.328427 759.328427,254 758.5,254 C757.671573,254 757,253.328427 757,252.5 C757,251.671573 757.671573,251 758.5,251 Z M818.5,251 C819.328427,251 820,251.671573 820,252.5 C820,253.328427 819.328427,254 818.5,254 C817.671573,254 817,253.328427 817,252.5 C817,251.671573 817.671573,251 818.5,251 Z M863.5,251 C864.328427,251 865,251.671573 865,252.5 C865,253.328427 864.328427,254 863.5,254 C862.671573,254 862,253.328427 862,252.5 C862,251.671573 862.671573,251 863.5,251 Z M713.5,251 C714.328427,251 715,251.671573 715,252.5 C715,253.328427 714.328427,254 713.5,254 C712.671573,254 712,253.328427 712,252.5 C712,251.671573 712.671573,251 713.5,251 Z M773.5,251 C774.328427,251 775,251.671573 775,252.5 C775,253.328427 774.328427,254 773.5,254 C772.671573,254 772,253.328427 772,252.5 C772,251.671573 772.671573,251 773.5,251 Z M743.5,251 C744.328427,251 745,251.671573 745,252.5 C745,253.328427 744.328427,254 743.5,254 C742.671573,254 742,253.328427 742,252.5 C742,251.671573 742.671573,251 743.5,251 Z M803.5,251 C804.328427,251 805,251.671573 805,252.5 C805,253.328427 804.328427,254 803.5,254 C802.671573,254 802,253.328427 802,252.5 C802,251.671573 802.671573,251 803.5,251 Z M698.5,233 C699.328427,233 700,233.671573 700,234.5 C700,235.328427 699.328427,236 698.5,236 C697.671573,236 697,235.328427 697,234.5 C697,233.671573 697.671573,233 698.5,233 Z M728.5,233 C729.328427,233 730,233.671573 730,234.5 C730,235.328427 729.328427,236 728.5,236 C727.671573,236 727,235.328427 727,234.5 C727,233.671573 727.671573,233 728.5,233 Z M788.5,233 C789.328427,233 790,233.671573 790,234.5 C790,235.328427 789.328427,236 788.5,236 C787.671573,236 787,235.328427 787,234.5 C787,233.671573 787.671573,233 788.5,233 Z M833.5,233 C834.328427,233 835,233.671573 835,234.5 C835,235.328427 834.328427,236 833.5,236 C832.671573,236 832,235.328427 832,234.5 C832,233.671573 832.671573,233 833.5,233 Z M758.5,233 C759.328427,233 760,233.671573 760,234.5 C760,235.328427 759.328427,236 758.5,236 C757.671573,236 757,235.328427 757,234.5 C757,233.671573 757.671573,233 758.5,233 Z M848.5,233 C849.328427,233 850,233.671573 850,234.5 C850,235.328427 849.328427,236 848.5,236 C847.671573,236 847,235.328427 847,234.5 C847,233.671573 847.671573,233 848.5,233 Z M818.5,233 C819.328427,233 820,233.671573 820,234.5 C820,235.328427 819.328427,236 818.5,236 C817.671573,236 817,235.328427 817,234.5 C817,233.671573 817.671573,233 818.5,233 Z M863.5,233 C864.328427,233 865,233.671573 865,234.5 C865,235.328427 864.328427,236 863.5,236 C862.671573,236 862,235.328427 862,234.5 C862,233.671573 862.671573,233 863.5,233 Z M713.5,233 C714.328427,233 715,233.671573 715,234.5 C715,235.328427 714.328427,236 713.5,236 C712.671573,236 712,235.328427 712,234.5 C712,233.671573 712.671573,233 713.5,233 Z M773.5,233 C774.328427,233 775,233.671573 775,234.5 C775,235.328427 774.328427,236 773.5,236 C772.671573,236 772,235.328427 772,234.5 C772,233.671573 772.671573,233 773.5,233 Z M743.5,233 C744.328427,233 745,233.671573 745,234.5 C745,235.328427 744.328427,236 743.5,236 C742.671573,236 742,235.328427 742,234.5 C742,233.671573 742.671573,233 743.5,233 Z M803.5,233 C804.328427,233 805,233.671573 805,234.5 C805,235.328427 804.328427,236 803.5,236 C802.671573,236 802,235.328427 802,234.5 C802,233.671573 802.671573,233 803.5,233 Z M728.5,215 C729.328427,215 730,215.671573 730,216.5 C730,217.328427 729.328427,218 728.5,218 C727.671573,218 727,217.328427 727,216.5 C727,215.671573 727.671573,215 728.5,215 Z M788.5,215 C789.328427,215 790,215.671573 790,216.5 C790,217.328427 789.328427,218 788.5,218 C787.671573,218 787,217.328427 787,216.5 C787,215.671573 787.671573,215 788.5,215 Z M833.5,215 C834.328427,215 835,215.671573 835,216.5 C835,217.328427 834.328427,218 833.5,218 C832.671573,218 832,217.328427 832,216.5 C832,215.671573 832.671573,215 833.5,215 Z M758.5,215 C759.328427,215 760,215.671573 760,216.5 C760,217.328427 759.328427,218 758.5,218 C757.671573,218 757,217.328427 757,216.5 C757,215.671573 757.671573,215 758.5,215 Z M818.5,215 C819.328427,215 820,215.671573 820,216.5 C820,217.328427 819.328427,218 818.5,218 C817.671573,218 817,217.328427 817,216.5 C817,215.671573 817.671573,215 818.5,215 Z M863.5,215 C864.328427,215 865,215.671573 865,216.5 C865,217.328427 864.328427,218 863.5,218 C862.671573,218 862,217.328427 862,216.5 C862,215.671573 862.671573,215 863.5,215 Z M713.5,215 C714.328427,215 715,215.671573 715,216.5 C715,217.328427 714.328427,218 713.5,218 C712.671573,218 712,217.328427 712,216.5 C712,215.671573 712.671573,215 713.5,215 Z M773.5,215 C774.328427,215 775,215.671573 775,216.5 C775,217.328427 774.328427,218 773.5,218 C772.671573,218 772,217.328427 772,216.5 C772,215.671573 772.671573,215 773.5,215 Z M743.5,215 C744.328427,215 745,215.671573 745,216.5 C745,217.328427 744.328427,218 743.5,218 C742.671573,218 742,217.328427 742,216.5 C742,215.671573 742.671573,215 743.5,215 Z M803.5,215 C804.328427,215 805,215.671573 805,216.5 C805,217.328427 804.328427,218 803.5,218 C802.671573,218 802,217.328427 802,216.5 C802,215.671573 802.671573,215 803.5,215 Z M848.5,215 C849.328427,215 850,215.671573 850,216.5 C850,217.328427 849.328427,218 848.5,218 C847.671573,218 847,217.328427 847,216.5 C847,215.671573 847.671573,215 848.5,215 Z M698.5,215 C699.328427,215 700,215.671573 700,216.5 C700,217.328427 699.328427,218 698.5,218 C697.671573,218 697,217.328427 697,216.5 C697,215.671573 697.671573,215 698.5,215 Z M728.5,197 C729.328427,197 730,197.671573 730,198.5 C730,199.328427 729.328427,200 728.5,200 C727.671573,200 727,199.328427 727,198.5 C727,197.671573 727.671573,197 728.5,197 Z M788.5,197 C789.328427,197 790,197.671573 790,198.5 C790,199.328427 789.328427,200 788.5,200 C787.671573,200 787,199.328427 787,198.5 C787,197.671573 787.671573,197 788.5,197 Z M833.5,197 C834.328427,197 835,197.671573 835,198.5 C835,199.328427 834.328427,200 833.5,200 C832.671573,200 832,199.328427 832,198.5 C832,197.671573 832.671573,197 833.5,197 Z M758.5,197 C759.328427,197 760,197.671573 760,198.5 C760,199.328427 759.328427,200 758.5,200 C757.671573,200 757,199.328427 757,198.5 C757,197.671573 757.671573,197 758.5,197 Z M818.5,197 C819.328427,197 820,197.671573 820,198.5 C820,199.328427 819.328427,200 818.5,200 C817.671573,200 817,199.328427 817,198.5 C817,197.671573 817.671573,197 818.5,197 Z M863.5,197 C864.328427,197 865,197.671573 865,198.5 C865,199.328427 864.328427,200 863.5,200 C862.671573,200 862,199.328427 862,198.5 C862,197.671573 862.671573,197 863.5,197 Z M713.5,197 C714.328427,197 715,197.671573 715,198.5 C715,199.328427 714.328427,200 713.5,200 C712.671573,200 712,199.328427 712,198.5 C712,197.671573 712.671573,197 713.5,197 Z M773.5,197 C774.328427,197 775,197.671573 775,198.5 C775,199.328427 774.328427,200 773.5,200 C772.671573,200 772,199.328427 772,198.5 C772,197.671573 772.671573,197 773.5,197 Z M743.5,197 C744.328427,197 745,197.671573 745,198.5 C745,199.328427 744.328427,200 743.5,200 C742.671573,200 742,199.328427 742,198.5 C742,197.671573 742.671573,197 743.5,197 Z M803.5,197 C804.328427,197 805,197.671573 805,198.5 C805,199.328427 804.328427,200 803.5,200 C802.671573,200 802,199.328427 802,198.5 C802,197.671573 802.671573,197 803.5,197 Z M848.5,197 C849.328427,197 850,197.671573 850,198.5 C850,199.328427 849.328427,200 848.5,200 C847.671573,200 847,199.328427 847,198.5 C847,197.671573 847.671573,197 848.5,197 Z M698.5,197 C699.328427,197 700,197.671573 700,198.5 C700,199.328427 699.328427,200 698.5,200 C697.671573,200 697,199.328427 697,198.5 C697,197.671573 697.671573,197 698.5,197 Z M863.5,179 C864.328427,179 865,179.671573 865,180.5 C865,181.328427 864.328427,182 863.5,182 C862.671573,182 862,181.328427 862,180.5 C862,179.671573 862.671573,179 863.5,179 Z M698.5,179 C699.328427,179 700,179.671573 700,180.5 C700,181.328427 699.328427,182 698.5,182 C697.671573,182 697,181.328427 697,180.5 C697,179.671573 697.671573,179 698.5,179 Z M728.5,179 C729.328427,179 730,179.671573 730,180.5 C730,181.328427 729.328427,182 728.5,182 C727.671573,182 727,181.328427 727,180.5 C727,179.671573 727.671573,179 728.5,179 Z M788.5,179 C789.328427,179 790,179.671573 790,180.5 C790,181.328427 789.328427,182 788.5,182 C787.671573,182 787,181.328427 787,180.5 C787,179.671573 787.671573,179 788.5,179 Z M833.5,179 C834.328427,179 835,179.671573 835,180.5 C835,181.328427 834.328427,182 833.5,182 C832.671573,182 832,181.328427 832,180.5 C832,179.671573 832.671573,179 833.5,179 Z M758.5,179 C759.328427,179 760,179.671573 760,180.5 C760,181.328427 759.328427,182 758.5,182 C757.671573,182 757,181.328427 757,180.5 C757,179.671573 757.671573,179 758.5,179 Z M818.5,179 C819.328427,179 820,179.671573 820,180.5 C820,181.328427 819.328427,182 818.5,182 C817.671573,182 817,181.328427 817,180.5 C817,179.671573 817.671573,179 818.5,179 Z M713.5,179 C714.328427,179 715,179.671573 715,180.5 C715,181.328427 714.328427,182 713.5,182 C712.671573,182 712,181.328427 712,180.5 C712,179.671573 712.671573,179 713.5,179 Z M773.5,179 C774.328427,179 775,179.671573 775,180.5 C775,181.328427 774.328427,182 773.5,182 C772.671573,182 772,181.328427 772,180.5 C772,179.671573 772.671573,179 773.5,179 Z M743.5,179 C744.328427,179 745,179.671573 745,180.5 C745,181.328427 744.328427,182 743.5,182 C742.671573,182 742,181.328427 742,180.5 C742,179.671573 742.671573,179 743.5,179 Z M803.5,179 C804.328427,179 805,179.671573 805,180.5 C805,181.328427 804.328427,182 803.5,182 C802.671573,182 802,181.328427 802,180.5 C802,179.671573 802.671573,179 803.5,179 Z M848.5,179 C849.328427,179 850,179.671573 850,180.5 C850,181.328427 849.328427,182 848.5,182 C847.671573,182 847,181.328427 847,180.5 C847,179.671573 847.671573,179 848.5,179 Z M728.5,161 C729.328427,161 730,161.671573 730,162.5 C730,163.328427 729.328427,164 728.5,164 C727.671573,164 727,163.328427 727,162.5 C727,161.671573 727.671573,161 728.5,161 Z M713.5,161 C714.328427,161 715,161.671573 715,162.5 C715,163.328427 714.328427,164 713.5,164 C712.671573,164 712,163.328427 712,162.5 C712,161.671573 712.671573,161 713.5,161 Z M788.5,161 C789.328427,161 790,161.671573 790,162.5 C790,163.328427 789.328427,164 788.5,164 C787.671573,164 787,163.328427 787,162.5 C787,161.671573 787.671573,161 788.5,161 Z M833.5,161 C834.328427,161 835,161.671573 835,162.5 C835,163.328427 834.328427,164 833.5,164 C832.671573,164 832,163.328427 832,162.5 C832,161.671573 832.671573,161 833.5,161 Z M758.5,161 C759.328427,161 760,161.671573 760,162.5 C760,163.328427 759.328427,164 758.5,164 C757.671573,164 757,163.328427 757,162.5 C757,161.671573 757.671573,161 758.5,161 Z M818.5,161 C819.328427,161 820,161.671573 820,162.5 C820,163.328427 819.328427,164 818.5,164 C817.671573,164 817,163.328427 817,162.5 C817,161.671573 817.671573,161 818.5,161 Z M698.5,161 C699.328427,161 700,161.671573 700,162.5 C700,163.328427 699.328427,164 698.5,164 C697.671573,164 697,163.328427 697,162.5 C697,161.671573 697.671573,161 698.5,161 Z M773.5,161 C774.328427,161 775,161.671573 775,162.5 C775,163.328427 774.328427,164 773.5,164 C772.671573,164 772,163.328427 772,162.5 C772,161.671573 772.671573,161 773.5,161 Z M743.5,161 C744.328427,161 745,161.671573 745,162.5 C745,163.328427 744.328427,164 743.5,164 C742.671573,164 742,163.328427 742,162.5 C742,161.671573 742.671573,161 743.5,161 Z M803.5,161 C804.328427,161 805,161.671573 805,162.5 C805,163.328427 804.328427,164 803.5,164 C802.671573,164 802,163.328427 802,162.5 C802,161.671573 802.671573,161 803.5,161 Z M848.5,161 C849.328427,161 850,161.671573 850,162.5 C850,163.328427 849.328427,164 848.5,164 C847.671573,164 847,163.328427 847,162.5 C847,161.671573 847.671573,161 848.5,161 Z M863.5,161 C864.328427,161 865,161.671573 865,162.5 C865,163.328427 864.328427,164 863.5,164 C862.671573,164 862,163.328427 862,162.5 C862,161.671573 862.671573,161 863.5,161 Z M863.5,143 C864.328427,143 865,143.671573 865,144.5 C865,145.328427 864.328427,146 863.5,146 C862.671573,146 862,145.328427 862,144.5 C862,143.671573 862.671573,143 863.5,143 Z M698.5,143 C699.328427,143 700,143.671573 700,144.5 C700,145.328427 699.328427,146 698.5,146 C697.671573,146 697,145.328427 697,144.5 C697,143.671573 697.671573,143 698.5,143 Z M728.5,143 C729.328427,143 730,143.671573 730,144.5 C730,145.328427 729.328427,146 728.5,146 C727.671573,146 727,145.328427 727,144.5 C727,143.671573 727.671573,143 728.5,143 Z M788.5,143 C789.328427,143 790,143.671573 790,144.5 C790,145.328427 789.328427,146 788.5,146 C787.671573,146 787,145.328427 787,144.5 C787,143.671573 787.671573,143 788.5,143 Z M833.5,143 C834.328427,143 835,143.671573 835,144.5 C835,145.328427 834.328427,146 833.5,146 C832.671573,146 832,145.328427 832,144.5 C832,143.671573 832.671573,143 833.5,143 Z M848.5,143 C849.328427,143 850,143.671573 850,144.5 C850,145.328427 849.328427,146 848.5,146 C847.671573,146 847,145.328427 847,144.5 C847,143.671573 847.671573,143 848.5,143 Z M758.5,143 C759.328427,143 760,143.671573 760,144.5 C760,145.328427 759.328427,146 758.5,146 C757.671573,146 757,145.328427 757,144.5 C757,143.671573 757.671573,143 758.5,143 Z M818.5,143 C819.328427,143 820,143.671573 820,144.5 C820,145.328427 819.328427,146 818.5,146 C817.671573,146 817,145.328427 817,144.5 C817,143.671573 817.671573,143 818.5,143 Z M713.5,143 C714.328427,143 715,143.671573 715,144.5 C715,145.328427 714.328427,146 713.5,146 C712.671573,146 712,145.328427 712,144.5 C712,143.671573 712.671573,143 713.5,143 Z M773.5,143 C774.328427,143 775,143.671573 775,144.5 C775,145.328427 774.328427,146 773.5,146 C772.671573,146 772,145.328427 772,144.5 C772,143.671573 772.671573,143 773.5,143 Z M743.5,143 C744.328427,143 745,143.671573 745,144.5 C745,145.328427 744.328427,146 743.5,146 C742.671573,146 742,145.328427 742,144.5 C742,143.671573 742.671573,143 743.5,143 Z M803.5,143 C804.328427,143 805,143.671573 805,144.5 C805,145.328427 804.328427,146 803.5,146 C802.671573,146 802,145.328427 802,144.5 C802,143.671573 802.671573,143 803.5,143 Z M698.5,125 C699.328427,125 700,125.671573 700,126.5 C700,127.328427 699.328427,128 698.5,128 C697.671573,128 697,127.328427 697,126.5 C697,125.671573 697.671573,125 698.5,125 Z M848.5,125 C849.328427,125 850,125.671573 850,126.5 C850,127.328427 849.328427,128 848.5,128 C847.671573,128 847,127.328427 847,126.5 C847,125.671573 847.671573,125 848.5,125 Z M803.5,125 C804.328427,125 805,125.671573 805,126.5 C805,127.328427 804.328427,128 803.5,128 C802.671573,128 802,127.328427 802,126.5 C802,125.671573 802.671573,125 803.5,125 Z M743.5,125 C744.328427,125 745,125.671573 745,126.5 C745,127.328427 744.328427,128 743.5,128 C742.671573,128 742,127.328427 742,126.5 C742,125.671573 742.671573,125 743.5,125 Z M773.5,125 C774.328427,125 775,125.671573 775,126.5 C775,127.328427 774.328427,128 773.5,128 C772.671573,128 772,127.328427 772,126.5 C772,125.671573 772.671573,125 773.5,125 Z M713.5,125 C714.328427,125 715,125.671573 715,126.5 C715,127.328427 714.328427,128 713.5,128 C712.671573,128 712,127.328427 712,126.5 C712,125.671573 712.671573,125 713.5,125 Z M863.5,125 C864.328427,125 865,125.671573 865,126.5 C865,127.328427 864.328427,128 863.5,128 C862.671573,128 862,127.328427 862,126.5 C862,125.671573 862.671573,125 863.5,125 Z M818.5,125 C819.328427,125 820,125.671573 820,126.5 C820,127.328427 819.328427,128 818.5,128 C817.671573,128 817,127.328427 817,126.5 C817,125.671573 817.671573,125 818.5,125 Z M758.5,125 C759.328427,125 760,125.671573 760,126.5 C760,127.328427 759.328427,128 758.5,128 C757.671573,128 757,127.328427 757,126.5 C757,125.671573 757.671573,125 758.5,125 Z M833.5,125 C834.328427,125 835,125.671573 835,126.5 C835,127.328427 834.328427,128 833.5,128 C832.671573,128 832,127.328427 832,126.5 C832,125.671573 832.671573,125 833.5,125 Z M788.5,125 C789.328427,125 790,125.671573 790,126.5 C790,127.328427 789.328427,128 788.5,128 C787.671573,128 787,127.328427 787,126.5 C787,125.671573 787.671573,125 788.5,125 Z M728.5,125 C729.328427,125 730,125.671573 730,126.5 C730,127.328427 729.328427,128 728.5,128 C727.671573,128 727,127.328427 727,126.5 C727,125.671573 727.671573,125 728.5,125 Z" id="合并形状" fill="#0D69F9" fill-rule="nonzero" mask="url(#mask-3)"></path>
                </g>
            </g>
        </g>
    </g>
</svg>