<?xml version="1.0" encoding="UTF-8"?>
<svg width="750px" height="880px" viewBox="0 0 750 880" version="1.1" xmlns="http://www.w3.org/2000/svg" xmlns:xlink="http://www.w3.org/1999/xlink">
    <!-- Generator: Sketch 64 (93537) - https://sketch.com -->
    <title>大背景</title>
    <desc>Created with Sketch.</desc>
    <defs>
        <linearGradient x1="19.1011109%" y1="58.2700532%" x2="100%" y2="58.2700532%" id="linearGradient-1">
            <stop stop-color="#0152C1" offset="0%"></stop>
            <stop stop-color="#023F87" offset="100%"></stop>
        </linearGradient>
        <rect id="path-2" x="0" y="0" width="750" height="880"></rect>
        <linearGradient x1="13.7969468%" y1="1.34953919%" x2="61.8925932%" y2="78.3032741%" id="linearGradient-4">
            <stop stop-color="#075BE3" offset="0%"></stop>
            <stop stop-color="#0048AC" offset="100%"></stop>
        </linearGradient>
        <linearGradient x1="28.3037302%" y1="30.894209%" x2="89.9785947%" y2="80.9685751%" id="linearGradient-5">
            <stop stop-color="#065ADE" offset="0%"></stop>
            <stop stop-color="#004DBC" offset="100%"></stop>
        </linearGradient>
        <linearGradient x1="78.90292%" y1="25.2338709%" x2="3.51265262%" y2="90.6110464%" id="linearGradient-6">
            <stop stop-color="#014AB1" offset="0%"></stop>
            <stop stop-color="#0249A8" offset="100%"></stop>
        </linearGradient>
        <linearGradient x1="84.8906822%" y1="38.6520512%" x2="17.5917521%" y2="65.7512268%" id="linearGradient-7">
            <stop stop-color="#0148A4" offset="0%"></stop>
            <stop stop-color="#034AA6" offset="100%"></stop>
        </linearGradient>
    </defs>
    <g id="Page-1" stroke="none" stroke-width="1" fill="none" fill-rule="evenodd">
        <g id="高杠杆-H5">
            <g id="背景备份-2">
                <g id="背景备份">
                    <mask id="mask-3" fill="white">
                        <use xlink:href="#path-2"></use>
                    </mask>
                    <use id="Mask" fill="url(#linearGradient-1)" fill-rule="nonzero" xlink:href="#path-2"></use>
                    <path d="M0.966039633,0 L749,0 C749.552285,-1.01453063e-16 750,0.44771525 750,1 L750,467.3205 C750,467.669256 749.818302,467.992819 749.520517,468.174352 L280,754.398773 L280,754.398773 L-14.5192674,428.300338 C-14.6932494,428.107701 -14.7855089,427.854961 -14.7765441,427.595542 L-0.0333637982,0.965463324 C-0.0147539724,0.426942374 0.427197226,1.50024935e-15 0.966039633,0 Z" id="矩形" fill="url(#linearGradient-4)" fill-rule="nonzero" mask="url(#mask-3)"></path>
                    <polygon id="路径-2" fill="url(#linearGradient-5)" fill-rule="nonzero" mask="url(#mask-3)" points="-166 644.013082 575.449497 1020.44848 -45.55901 328 -184 440.597999"></polygon>
                    <polygon id="路径-3" fill="url(#linearGradient-6)" fill-rule="nonzero" mask="url(#mask-3)" points="237 796.507787 795.896547 108 1000.20948 151.427118 1000.20948 578.302628 237 847.20974"></polygon>
                    <path d="M211.178785,869.4485 C211.178785,869.4485 447.11919,726.299 919,440 L919,726.156963 L186,908.4485 C202.785857,882.4485 211.178785,869.4485 211.178785,869.4485 Z" id="路径-4" fill="url(#linearGradient-7)" fill-rule="nonzero" mask="url(#mask-3)"></path>
                    <path d="M263.5,269 C264.328427,269 265,269.671573 265,270.5 C265,271.328427 264.328427,272 263.5,272 C262.671573,272 262,271.328427 262,270.5 C262,269.671573 262.671573,269 263.5,269 Z M218.5,269 C219.328427,269 220,269.671573 220,270.5 C220,271.328427 219.328427,272 218.5,272 C217.671573,272 217,271.328427 217,270.5 C217,269.671573 217.671573,269 218.5,269 Z M158.5,269 C159.328427,269 160,269.671573 160,270.5 C160,271.328427 159.328427,272 158.5,272 C157.671573,272 157,271.328427 157,270.5 C157,269.671573 157.671573,269 158.5,269 Z M188.5,269 C189.328427,269 190,269.671573 190,270.5 C190,271.328427 189.328427,272 188.5,272 C187.671573,272 187,271.328427 187,270.5 C187,269.671573 187.671573,269 188.5,269 Z M128.5,269 C129.328427,269 130,269.671573 130,270.5 C130,271.328427 129.328427,272 128.5,272 C127.671573,272 127,271.328427 127,270.5 C127,269.671573 127.671573,269 128.5,269 Z M278.5,269 C279.328427,269 280,269.671573 280,270.5 C280,271.328427 279.328427,272 278.5,272 C277.671573,272 277,271.328427 277,270.5 C277,269.671573 277.671573,269 278.5,269 Z M233.5,269 C234.328427,269 235,269.671573 235,270.5 C235,271.328427 234.328427,272 233.5,272 C232.671573,272 232,271.328427 232,270.5 C232,269.671573 232.671573,269 233.5,269 Z M173.5,269 C174.328427,269 175,269.671573 175,270.5 C175,271.328427 174.328427,272 173.5,272 C172.671573,272 172,271.328427 172,270.5 C172,269.671573 172.671573,269 173.5,269 Z M248.5,269 C249.328427,269 250,269.671573 250,270.5 C250,271.328427 249.328427,272 248.5,272 C247.671573,272 247,271.328427 247,270.5 C247,269.671573 247.671573,269 248.5,269 Z M203.5,269 C204.328427,269 205,269.671573 205,270.5 C205,271.328427 204.328427,272 203.5,272 C202.671573,272 202,271.328427 202,270.5 C202,269.671573 202.671573,269 203.5,269 Z M143.5,269 C144.328427,269 145,269.671573 145,270.5 C145,271.328427 144.328427,272 143.5,272 C142.671573,272 142,271.328427 142,270.5 C142,269.671573 142.671573,269 143.5,269 Z M113.5,269 C114.328427,269 115,269.671573 115,270.5 C115,271.328427 114.328427,272 113.5,272 C112.671573,272 112,271.328427 112,270.5 C112,269.671573 112.671573,269 113.5,269 Z M263.5,251 C264.328427,251 265,251.671573 265,252.5 C265,253.328427 264.328427,254 263.5,254 C262.671573,254 262,253.328427 262,252.5 C262,251.671573 262.671573,251 263.5,251 Z M113.5,251 C114.328427,251 115,251.671573 115,252.5 C115,253.328427 114.328427,254 113.5,254 C112.671573,254 112,253.328427 112,252.5 C112,251.671573 112.671573,251 113.5,251 Z M143.5,251 C144.328427,251 145,251.671573 145,252.5 C145,253.328427 144.328427,254 143.5,254 C142.671573,254 142,253.328427 142,252.5 C142,251.671573 142.671573,251 143.5,251 Z M203.5,251 C204.328427,251 205,251.671573 205,252.5 C205,253.328427 204.328427,254 203.5,254 C202.671573,254 202,253.328427 202,252.5 C202,251.671573 202.671573,251 203.5,251 Z M248.5,251 C249.328427,251 250,251.671573 250,252.5 C250,253.328427 249.328427,254 248.5,254 C247.671573,254 247,253.328427 247,252.5 C247,251.671573 247.671573,251 248.5,251 Z M173.5,251 C174.328427,251 175,251.671573 175,252.5 C175,253.328427 174.328427,254 173.5,254 C172.671573,254 172,253.328427 172,252.5 C172,251.671573 172.671573,251 173.5,251 Z M233.5,251 C234.328427,251 235,251.671573 235,252.5 C235,253.328427 234.328427,254 233.5,254 C232.671573,254 232,253.328427 232,252.5 C232,251.671573 232.671573,251 233.5,251 Z M278.5,251 C279.328427,251 280,251.671573 280,252.5 C280,253.328427 279.328427,254 278.5,254 C277.671573,254 277,253.328427 277,252.5 C277,251.671573 277.671573,251 278.5,251 Z M128.5,251 C129.328427,251 130,251.671573 130,252.5 C130,253.328427 129.328427,254 128.5,254 C127.671573,254 127,253.328427 127,252.5 C127,251.671573 127.671573,251 128.5,251 Z M188.5,251 C189.328427,251 190,251.671573 190,252.5 C190,253.328427 189.328427,254 188.5,254 C187.671573,254 187,253.328427 187,252.5 C187,251.671573 187.671573,251 188.5,251 Z M158.5,251 C159.328427,251 160,251.671573 160,252.5 C160,253.328427 159.328427,254 158.5,254 C157.671573,254 157,253.328427 157,252.5 C157,251.671573 157.671573,251 158.5,251 Z M218.5,251 C219.328427,251 220,251.671573 220,252.5 C220,253.328427 219.328427,254 218.5,254 C217.671573,254 217,253.328427 217,252.5 C217,251.671573 217.671573,251 218.5,251 Z M113.5,233 C114.328427,233 115,233.671573 115,234.5 C115,235.328427 114.328427,236 113.5,236 C112.671573,236 112,235.328427 112,234.5 C112,233.671573 112.671573,233 113.5,233 Z M143.5,233 C144.328427,233 145,233.671573 145,234.5 C145,235.328427 144.328427,236 143.5,236 C142.671573,236 142,235.328427 142,234.5 C142,233.671573 142.671573,233 143.5,233 Z M203.5,233 C204.328427,233 205,233.671573 205,234.5 C205,235.328427 204.328427,236 203.5,236 C202.671573,236 202,235.328427 202,234.5 C202,233.671573 202.671573,233 203.5,233 Z M248.5,233 C249.328427,233 250,233.671573 250,234.5 C250,235.328427 249.328427,236 248.5,236 C247.671573,236 247,235.328427 247,234.5 C247,233.671573 247.671573,233 248.5,233 Z M173.5,233 C174.328427,233 175,233.671573 175,234.5 C175,235.328427 174.328427,236 173.5,236 C172.671573,236 172,235.328427 172,234.5 C172,233.671573 172.671573,233 173.5,233 Z M263.5,233 C264.328427,233 265,233.671573 265,234.5 C265,235.328427 264.328427,236 263.5,236 C262.671573,236 262,235.328427 262,234.5 C262,233.671573 262.671573,233 263.5,233 Z M233.5,233 C234.328427,233 235,233.671573 235,234.5 C235,235.328427 234.328427,236 233.5,236 C232.671573,236 232,235.328427 232,234.5 C232,233.671573 232.671573,233 233.5,233 Z M278.5,233 C279.328427,233 280,233.671573 280,234.5 C280,235.328427 279.328427,236 278.5,236 C277.671573,236 277,235.328427 277,234.5 C277,233.671573 277.671573,233 278.5,233 Z M128.5,233 C129.328427,233 130,233.671573 130,234.5 C130,235.328427 129.328427,236 128.5,236 C127.671573,236 127,235.328427 127,234.5 C127,233.671573 127.671573,233 128.5,233 Z M188.5,233 C189.328427,233 190,233.671573 190,234.5 C190,235.328427 189.328427,236 188.5,236 C187.671573,236 187,235.328427 187,234.5 C187,233.671573 187.671573,233 188.5,233 Z M158.5,233 C159.328427,233 160,233.671573 160,234.5 C160,235.328427 159.328427,236 158.5,236 C157.671573,236 157,235.328427 157,234.5 C157,233.671573 157.671573,233 158.5,233 Z M218.5,233 C219.328427,233 220,233.671573 220,234.5 C220,235.328427 219.328427,236 218.5,236 C217.671573,236 217,235.328427 217,234.5 C217,233.671573 217.671573,233 218.5,233 Z M143.5,215 C144.328427,215 145,215.671573 145,216.5 C145,217.328427 144.328427,218 143.5,218 C142.671573,218 142,217.328427 142,216.5 C142,215.671573 142.671573,215 143.5,215 Z M203.5,215 C204.328427,215 205,215.671573 205,216.5 C205,217.328427 204.328427,218 203.5,218 C202.671573,218 202,217.328427 202,216.5 C202,215.671573 202.671573,215 203.5,215 Z M248.5,215 C249.328427,215 250,215.671573 250,216.5 C250,217.328427 249.328427,218 248.5,218 C247.671573,218 247,217.328427 247,216.5 C247,215.671573 247.671573,215 248.5,215 Z M173.5,215 C174.328427,215 175,215.671573 175,216.5 C175,217.328427 174.328427,218 173.5,218 C172.671573,218 172,217.328427 172,216.5 C172,215.671573 172.671573,215 173.5,215 Z M233.5,215 C234.328427,215 235,215.671573 235,216.5 C235,217.328427 234.328427,218 233.5,218 C232.671573,218 232,217.328427 232,216.5 C232,215.671573 232.671573,215 233.5,215 Z M278.5,215 C279.328427,215 280,215.671573 280,216.5 C280,217.328427 279.328427,218 278.5,218 C277.671573,218 277,217.328427 277,216.5 C277,215.671573 277.671573,215 278.5,215 Z M128.5,215 C129.328427,215 130,215.671573 130,216.5 C130,217.328427 129.328427,218 128.5,218 C127.671573,218 127,217.328427 127,216.5 C127,215.671573 127.671573,215 128.5,215 Z M188.5,215 C189.328427,215 190,215.671573 190,216.5 C190,217.328427 189.328427,218 188.5,218 C187.671573,218 187,217.328427 187,216.5 C187,215.671573 187.671573,215 188.5,215 Z M158.5,215 C159.328427,215 160,215.671573 160,216.5 C160,217.328427 159.328427,218 158.5,218 C157.671573,218 157,217.328427 157,216.5 C157,215.671573 157.671573,215 158.5,215 Z M218.5,215 C219.328427,215 220,215.671573 220,216.5 C220,217.328427 219.328427,218 218.5,218 C217.671573,218 217,217.328427 217,216.5 C217,215.671573 217.671573,215 218.5,215 Z M263.5,215 C264.328427,215 265,215.671573 265,216.5 C265,217.328427 264.328427,218 263.5,218 C262.671573,218 262,217.328427 262,216.5 C262,215.671573 262.671573,215 263.5,215 Z M113.5,215 C114.328427,215 115,215.671573 115,216.5 C115,217.328427 114.328427,218 113.5,218 C112.671573,218 112,217.328427 112,216.5 C112,215.671573 112.671573,215 113.5,215 Z M143.5,197 C144.328427,197 145,197.671573 145,198.5 C145,199.328427 144.328427,200 143.5,200 C142.671573,200 142,199.328427 142,198.5 C142,197.671573 142.671573,197 143.5,197 Z M203.5,197 C204.328427,197 205,197.671573 205,198.5 C205,199.328427 204.328427,200 203.5,200 C202.671573,200 202,199.328427 202,198.5 C202,197.671573 202.671573,197 203.5,197 Z M248.5,197 C249.328427,197 250,197.671573 250,198.5 C250,199.328427 249.328427,200 248.5,200 C247.671573,200 247,199.328427 247,198.5 C247,197.671573 247.671573,197 248.5,197 Z M173.5,197 C174.328427,197 175,197.671573 175,198.5 C175,199.328427 174.328427,200 173.5,200 C172.671573,200 172,199.328427 172,198.5 C172,197.671573 172.671573,197 173.5,197 Z M233.5,197 C234.328427,197 235,197.671573 235,198.5 C235,199.328427 234.328427,200 233.5,200 C232.671573,200 232,199.328427 232,198.5 C232,197.671573 232.671573,197 233.5,197 Z M278.5,197 C279.328427,197 280,197.671573 280,198.5 C280,199.328427 279.328427,200 278.5,200 C277.671573,200 277,199.328427 277,198.5 C277,197.671573 277.671573,197 278.5,197 Z M128.5,197 C129.328427,197 130,197.671573 130,198.5 C130,199.328427 129.328427,200 128.5,200 C127.671573,200 127,199.328427 127,198.5 C127,197.671573 127.671573,197 128.5,197 Z M188.5,197 C189.328427,197 190,197.671573 190,198.5 C190,199.328427 189.328427,200 188.5,200 C187.671573,200 187,199.328427 187,198.5 C187,197.671573 187.671573,197 188.5,197 Z M158.5,197 C159.328427,197 160,197.671573 160,198.5 C160,199.328427 159.328427,200 158.5,200 C157.671573,200 157,199.328427 157,198.5 C157,197.671573 157.671573,197 158.5,197 Z M218.5,197 C219.328427,197 220,197.671573 220,198.5 C220,199.328427 219.328427,200 218.5,200 C217.671573,200 217,199.328427 217,198.5 C217,197.671573 217.671573,197 218.5,197 Z M263.5,197 C264.328427,197 265,197.671573 265,198.5 C265,199.328427 264.328427,200 263.5,200 C262.671573,200 262,199.328427 262,198.5 C262,197.671573 262.671573,197 263.5,197 Z M113.5,197 C114.328427,197 115,197.671573 115,198.5 C115,199.328427 114.328427,200 113.5,200 C112.671573,200 112,199.328427 112,198.5 C112,197.671573 112.671573,197 113.5,197 Z M278.5,179 C279.328427,179 280,179.671573 280,180.5 C280,181.328427 279.328427,182 278.5,182 C277.671573,182 277,181.328427 277,180.5 C277,179.671573 277.671573,179 278.5,179 Z M113.5,179 C114.328427,179 115,179.671573 115,180.5 C115,181.328427 114.328427,182 113.5,182 C112.671573,182 112,181.328427 112,180.5 C112,179.671573 112.671573,179 113.5,179 Z M143.5,179 C144.328427,179 145,179.671573 145,180.5 C145,181.328427 144.328427,182 143.5,182 C142.671573,182 142,181.328427 142,180.5 C142,179.671573 142.671573,179 143.5,179 Z M203.5,179 C204.328427,179 205,179.671573 205,180.5 C205,181.328427 204.328427,182 203.5,182 C202.671573,182 202,181.328427 202,180.5 C202,179.671573 202.671573,179 203.5,179 Z M248.5,179 C249.328427,179 250,179.671573 250,180.5 C250,181.328427 249.328427,182 248.5,182 C247.671573,182 247,181.328427 247,180.5 C247,179.671573 247.671573,179 248.5,179 Z M173.5,179 C174.328427,179 175,179.671573 175,180.5 C175,181.328427 174.328427,182 173.5,182 C172.671573,182 172,181.328427 172,180.5 C172,179.671573 172.671573,179 173.5,179 Z M233.5,179 C234.328427,179 235,179.671573 235,180.5 C235,181.328427 234.328427,182 233.5,182 C232.671573,182 232,181.328427 232,180.5 C232,179.671573 232.671573,179 233.5,179 Z M128.5,179 C129.328427,179 130,179.671573 130,180.5 C130,181.328427 129.328427,182 128.5,182 C127.671573,182 127,181.328427 127,180.5 C127,179.671573 127.671573,179 128.5,179 Z M188.5,179 C189.328427,179 190,179.671573 190,180.5 C190,181.328427 189.328427,182 188.5,182 C187.671573,182 187,181.328427 187,180.5 C187,179.671573 187.671573,179 188.5,179 Z M158.5,179 C159.328427,179 160,179.671573 160,180.5 C160,181.328427 159.328427,182 158.5,182 C157.671573,182 157,181.328427 157,180.5 C157,179.671573 157.671573,179 158.5,179 Z M218.5,179 C219.328427,179 220,179.671573 220,180.5 C220,181.328427 219.328427,182 218.5,182 C217.671573,182 217,181.328427 217,180.5 C217,179.671573 217.671573,179 218.5,179 Z M263.5,179 C264.328427,179 265,179.671573 265,180.5 C265,181.328427 264.328427,182 263.5,182 C262.671573,182 262,181.328427 262,180.5 C262,179.671573 262.671573,179 263.5,179 Z M143.5,161 C144.328427,161 145,161.671573 145,162.5 C145,163.328427 144.328427,164 143.5,164 C142.671573,164 142,163.328427 142,162.5 C142,161.671573 142.671573,161 143.5,161 Z M128.5,161 C129.328427,161 130,161.671573 130,162.5 C130,163.328427 129.328427,164 128.5,164 C127.671573,164 127,163.328427 127,162.5 C127,161.671573 127.671573,161 128.5,161 Z M203.5,161 C204.328427,161 205,161.671573 205,162.5 C205,163.328427 204.328427,164 203.5,164 C202.671573,164 202,163.328427 202,162.5 C202,161.671573 202.671573,161 203.5,161 Z M248.5,161 C249.328427,161 250,161.671573 250,162.5 C250,163.328427 249.328427,164 248.5,164 C247.671573,164 247,163.328427 247,162.5 C247,161.671573 247.671573,161 248.5,161 Z M173.5,161 C174.328427,161 175,161.671573 175,162.5 C175,163.328427 174.328427,164 173.5,164 C172.671573,164 172,163.328427 172,162.5 C172,161.671573 172.671573,161 173.5,161 Z M233.5,161 C234.328427,161 235,161.671573 235,162.5 C235,163.328427 234.328427,164 233.5,164 C232.671573,164 232,163.328427 232,162.5 C232,161.671573 232.671573,161 233.5,161 Z M113.5,161 C114.328427,161 115,161.671573 115,162.5 C115,163.328427 114.328427,164 113.5,164 C112.671573,164 112,163.328427 112,162.5 C112,161.671573 112.671573,161 113.5,161 Z M188.5,161 C189.328427,161 190,161.671573 190,162.5 C190,163.328427 189.328427,164 188.5,164 C187.671573,164 187,163.328427 187,162.5 C187,161.671573 187.671573,161 188.5,161 Z M158.5,161 C159.328427,161 160,161.671573 160,162.5 C160,163.328427 159.328427,164 158.5,164 C157.671573,164 157,163.328427 157,162.5 C157,161.671573 157.671573,161 158.5,161 Z M218.5,161 C219.328427,161 220,161.671573 220,162.5 C220,163.328427 219.328427,164 218.5,164 C217.671573,164 217,163.328427 217,162.5 C217,161.671573 217.671573,161 218.5,161 Z M263.5,161 C264.328427,161 265,161.671573 265,162.5 C265,163.328427 264.328427,164 263.5,164 C262.671573,164 262,163.328427 262,162.5 C262,161.671573 262.671573,161 263.5,161 Z M278.5,161 C279.328427,161 280,161.671573 280,162.5 C280,163.328427 279.328427,164 278.5,164 C277.671573,164 277,163.328427 277,162.5 C277,161.671573 277.671573,161 278.5,161 Z M278.5,143 C279.328427,143 280,143.671573 280,144.5 C280,145.328427 279.328427,146 278.5,146 C277.671573,146 277,145.328427 277,144.5 C277,143.671573 277.671573,143 278.5,143 Z M113.5,143 C114.328427,143 115,143.671573 115,144.5 C115,145.328427 114.328427,146 113.5,146 C112.671573,146 112,145.328427 112,144.5 C112,143.671573 112.671573,143 113.5,143 Z M143.5,143 C144.328427,143 145,143.671573 145,144.5 C145,145.328427 144.328427,146 143.5,146 C142.671573,146 142,145.328427 142,144.5 C142,143.671573 142.671573,143 143.5,143 Z M203.5,143 C204.328427,143 205,143.671573 205,144.5 C205,145.328427 204.328427,146 203.5,146 C202.671573,146 202,145.328427 202,144.5 C202,143.671573 202.671573,143 203.5,143 Z M248.5,143 C249.328427,143 250,143.671573 250,144.5 C250,145.328427 249.328427,146 248.5,146 C247.671573,146 247,145.328427 247,144.5 C247,143.671573 247.671573,143 248.5,143 Z M263.5,143 C264.328427,143 265,143.671573 265,144.5 C265,145.328427 264.328427,146 263.5,146 C262.671573,146 262,145.328427 262,144.5 C262,143.671573 262.671573,143 263.5,143 Z M173.5,143 C174.328427,143 175,143.671573 175,144.5 C175,145.328427 174.328427,146 173.5,146 C172.671573,146 172,145.328427 172,144.5 C172,143.671573 172.671573,143 173.5,143 Z M233.5,143 C234.328427,143 235,143.671573 235,144.5 C235,145.328427 234.328427,146 233.5,146 C232.671573,146 232,145.328427 232,144.5 C232,143.671573 232.671573,143 233.5,143 Z M128.5,143 C129.328427,143 130,143.671573 130,144.5 C130,145.328427 129.328427,146 128.5,146 C127.671573,146 127,145.328427 127,144.5 C127,143.671573 127.671573,143 128.5,143 Z M188.5,143 C189.328427,143 190,143.671573 190,144.5 C190,145.328427 189.328427,146 188.5,146 C187.671573,146 187,145.328427 187,144.5 C187,143.671573 187.671573,143 188.5,143 Z M158.5,143 C159.328427,143 160,143.671573 160,144.5 C160,145.328427 159.328427,146 158.5,146 C157.671573,146 157,145.328427 157,144.5 C157,143.671573 157.671573,143 158.5,143 Z M218.5,143 C219.328427,143 220,143.671573 220,144.5 C220,145.328427 219.328427,146 218.5,146 C217.671573,146 217,145.328427 217,144.5 C217,143.671573 217.671573,143 218.5,143 Z M113.5,125 C114.328427,125 115,125.671573 115,126.5 C115,127.328427 114.328427,128 113.5,128 C112.671573,128 112,127.328427 112,126.5 C112,125.671573 112.671573,125 113.5,125 Z M263.5,125 C264.328427,125 265,125.671573 265,126.5 C265,127.328427 264.328427,128 263.5,128 C262.671573,128 262,127.328427 262,126.5 C262,125.671573 262.671573,125 263.5,125 Z M218.5,125 C219.328427,125 220,125.671573 220,126.5 C220,127.328427 219.328427,128 218.5,128 C217.671573,128 217,127.328427 217,126.5 C217,125.671573 217.671573,125 218.5,125 Z M158.5,125 C159.328427,125 160,125.671573 160,126.5 C160,127.328427 159.328427,128 158.5,128 C157.671573,128 157,127.328427 157,126.5 C157,125.671573 157.671573,125 158.5,125 Z M188.5,125 C189.328427,125 190,125.671573 190,126.5 C190,127.328427 189.328427,128 188.5,128 C187.671573,128 187,127.328427 187,126.5 C187,125.671573 187.671573,125 188.5,125 Z M128.5,125 C129.328427,125 130,125.671573 130,126.5 C130,127.328427 129.328427,128 128.5,128 C127.671573,128 127,127.328427 127,126.5 C127,125.671573 127.671573,125 128.5,125 Z M278.5,125 C279.328427,125 280,125.671573 280,126.5 C280,127.328427 279.328427,128 278.5,128 C277.671573,128 277,127.328427 277,126.5 C277,125.671573 277.671573,125 278.5,125 Z M233.5,125 C234.328427,125 235,125.671573 235,126.5 C235,127.328427 234.328427,128 233.5,128 C232.671573,128 232,127.328427 232,126.5 C232,125.671573 232.671573,125 233.5,125 Z M173.5,125 C174.328427,125 175,125.671573 175,126.5 C175,127.328427 174.328427,128 173.5,128 C172.671573,128 172,127.328427 172,126.5 C172,125.671573 172.671573,125 173.5,125 Z M248.5,125 C249.328427,125 250,125.671573 250,126.5 C250,127.328427 249.328427,128 248.5,128 C247.671573,128 247,127.328427 247,126.5 C247,125.671573 247.671573,125 248.5,125 Z M203.5,125 C204.328427,125 205,125.671573 205,126.5 C205,127.328427 204.328427,128 203.5,128 C202.671573,128 202,127.328427 202,126.5 C202,125.671573 202.671573,125 203.5,125 Z M143.5,125 C144.328427,125 145,125.671573 145,126.5 C145,127.328427 144.328427,128 143.5,128 C142.671573,128 142,127.328427 142,126.5 C142,125.671573 142.671573,125 143.5,125 Z" id="合并形状" fill="#0D69F9" fill-rule="nonzero" mask="url(#mask-3)"></path>
                </g>
            </g>
        </g>
    </g>
</svg>