<svg xmlns="http://www.w3.org/2000/svg" xmlns:xlink="http://www.w3.org/1999/xlink" width="1920" height="529" viewBox="0 0 1920 529">
    <defs>
        <path id="jjh2g6hkra" d="M0 0H1920V529H0z"/>
    </defs>
    <g fill="none" fill-rule="evenodd">
        <mask id="9027q30ndb" fill="#fff">
            <use xlink:href="#jjh2g6hkra"/>
        </mask>
        <use fill="#1977EF" xlink:href="#jjh2g6hkra"/>
        <path fill="#1E7FF9" d="M1386.62 923.647c-46.916 17.69-130.865-37.104-207.786-38.164-61.616-.64-127.436 60.274-192.398 49.162-66.066-11.332-124.026-95.739-183.597-119.252-76.293-30.252-171.036-16.318-209.922-63.624-46.44-55.84-11.244-120.02-19.073-158.47-11.06-53.693-53.136-126.105-15.51-153.075 34.137-23.67 125.893 28.925 172.26 18.296 55.88-12.286 77.458-88.31 110.181-95.114 55.2-11.066 137.623 40.679 169.16 24.586 48.88-24.163 15.07-107.01 35.666-135.151 25.956-34.583 107.043-14.91 148.866-37.53 30.656-16.125 36.927-90.714 107.58-90.311 165.445 2.185 272.615 93.387 354.138 144.825 105.562 66.704 204.141 149.284 177.37 245.906-21.92 79.226-145.77 131.621-228.517 202.44-69.358 63.217-116.718 169.301-218.417 205.476" mask="url(#9027q30ndb)"/>
        <path fill="#136EE3" d="M1929.914 541.263c-92.908 57.367-138.601-113.004-254.571-135.68-115.967-22.674-124.941 82.174-237.618 61.926-112.683-20.25-110.29-129.951-226.264-152.628-115.973-22.676-179.668 146.85-264.278 47.45-88.007-101.905 85.306-143.593 79.22-263.262-6.085-119.665-126.595-147.716-135.972-269.81-9.377-122.098 117.716-89.193 111.63-208.864-6.086-119.671-225.033-257.927-132.123-315.298 96.307-54.861 195.093 154.665 334.976 194.978 139.88 40.311 142.272-69.391 285.445-26.651 143.179 42.74 134.205 147.588 274.094 187.903 139.888 40.313 256.672-90.058 344.684 11.85 84.608 99.398-141.796 101.93-159.624 203.961-17.83 102.03 109.263 134.936 88.144 234.539-21.12 99.606-176.742 81.871-159.562 187.775 19.1 131.784 148.131 186.95 51.819 241.81" mask="url(#9027q30ndb)"/>
    </g>
</svg>
