<?xml version="1.0" encoding="UTF-8"?>
<svg width="1440px" height="730px" viewBox="0 0 1440 730" version="1.1" xmlns="http://www.w3.org/2000/svg" xmlns:xlink="http://www.w3.org/1999/xlink">
    <!-- Generator: Sketch 56.2 (81672) - https://sketch.com -->
    <title>蒙版</title>
    <desc>Created with Sketch.</desc>
    <defs>
        <linearGradient x1="50%" y1="100%" x2="50%" y2="3.061617e-15%" id="linearGradient-1">
            <stop stop-color="#125CB9" offset="0%"></stop>
            <stop stop-color="#1977EF" offset="100%"></stop>
        </linearGradient>
        <rect id="path-2" x="0" y="0" width="1440" height="730"></rect>
        <linearGradient x1="50%" y1="100%" x2="50%" y2="1.10325169%" id="linearGradient-4">
            <stop stop-color="#FFFFFF" stop-opacity="0" offset="0%"></stop>
            <stop stop-color="#FFFFFF" offset="100%"></stop>
        </linearGradient>
        <linearGradient x1="50%" y1="100%" x2="50%" y2="1.10325169%" id="linearGradient-5">
            <stop stop-color="#FFFFFF" stop-opacity="0" offset="0%"></stop>
            <stop stop-color="#FFFFFF" offset="100%"></stop>
        </linearGradient>
    </defs>
    <g id="首页新增广告位" stroke="none" stroke-width="1" fill="none" fill-rule="evenodd">
        <g id="1.官网主页_PC1440-02-新增广告" transform="translate(0.000000, -2333.000000)">
            <g id="Fill-1-+-Fill-5蒙版" transform="translate(0.000000, 2333.000000)">
                <mask id="mask-3" fill="white">
                    <use xlink:href="#path-2"></use>
                </mask>
                <use id="蒙版" fill="url(#linearGradient-1)" xlink:href="#path-2"></use>
                <path d="M1240.77586,580.291235 C1222.82788,556.611029 1201.14721,538.263126 1187.44576,508.789353 C1169.7995,470.826883 1160.68848,428.995595 1160.87689,387.077368 C1160.87821,386.5992 1160.87953,386.119824 1160.87953,385.641655 C1160.87953,200.271683 998.974795,50 799.254388,50 C624.604767,50 433.969029,190.826648 439.888886,379.573987 C440.220915,390.145616 440.572707,402.323214 432.737098,409.359294 C426.98589,414.522547 418.619299,415.102145 410.923353,415.420924 C331.71216,418.705314 258.766028,417.067949 194.281352,470.387355 C135.289639,520.575723 88.6119674,597.426812 92.1931319,675.204052 C92.2260712,675.959944 92.2629632,676.714629 92.3051256,677.470522 C100.434553,821.647972 160.45002,936.16328 388.345416,907.52751 C431.203443,902.142077 474.845425,883.105901 518.416259,884.653911 C558.026467,886.059437 597.045085,907.887344 637.431344,911.952983 C698.664249,918.118458 758.621743,895.729066 818.004775,879.4653 C859.36472,868.13778 903.421739,859.713079 946.308752,866.145411 C966.288435,869.142416 984.182399,878.172072 1003.41238,882.282389 C1022.19176,886.294898 1042.5812,887.073733 1061.72159,887.429945 C1135.93523,888.810113 1210.1212,865.407631 1251.38364,799.225977 C1289.08996,738.746119 1287.69597,657.007085 1251.53648,596.162564 C1248.18985,590.529595 1244.5652,585.292684 1240.77586,580.291235" id="Fill-1" fill="url(#linearGradient-4)" fill-rule="nonzero" opacity="0.0925782887" mask="url(#mask-3)"></path>
                <path d="M374,489.5 C374,637.236575 259.832692,757 118.999403,757 C-21.8338854,757 -136,637.236575 -136,489.5 C-136,341.763425 -21.8338854,222 118.999403,222 C259.832692,222 374,341.763425 374,489.5" id="Fill-5" fill="url(#linearGradient-5)" fill-rule="nonzero" opacity="0.142243467" mask="url(#mask-3)"></path>
                <path d="M1534,595.5 C1534,743.236575 1419.83269,863 1278.9994,863 C1138.16611,863 1024,743.236575 1024,595.5 C1024,447.763425 1138.16611,328 1278.9994,328 C1419.83269,328 1534,447.763425 1534,595.5" id="Fill-5" fill="url(#linearGradient-5)" fill-rule="nonzero" opacity="0.0764650074" mask="url(#mask-3)"></path>
            </g>
        </g>
    </g>
</svg>