<svg xmlns="http://www.w3.org/2000/svg" xmlns:xlink="http://www.w3.org/1999/xlink" width="343" height="64" viewBox="0 0 343 64">
    <defs>
        <linearGradient id="bpe50lvwhb" x1="50%" x2="50%" y1="100%" y2="0%">
            <stop offset="0%" stop-color="#FFF" stop-opacity="0"/>
            <stop offset="100%" stop-color="#FFF" stop-opacity=".505"/>
        </linearGradient>
        <path id="z4h8xo6z3a" d="M0 0H343V64H0z"/>
    </defs>
    <g fill="none" fill-rule="evenodd">
        <g>
            <g>
                <g transform="translate(-971 -140) translate(971 140)">
                    <mask id="ach17oiuec" fill="#fff">
                        <use xlink:href="#z4h8xo6z3a"/>
                    </mask>
                    <use fill="#6ECF43" xlink:href="#z4h8xo6z3a"/>
                    <path fill="url(#bpe50lvwhb)" fill-rule="nonzero" d="M331.284 27.882l-36.948 13.791c-2.302.904-1.815.898-4.136-.013l-19.356-7.13 21.629-9.39c.95-.413 1.411-1.584 1.03-2.614l-.032-.093c-.38-1.03-1.46-1.531-2.408-1.117L265.467 32.55c-.147.063-.224.132-.252.207-3.374 2.837-4.355 7.219-4.487 12.119 1.145.78 1.907 2.163 1.907 3.74 0 1.472-.661 2.775-1.683 3.576.579 9.149 1.481 18.348-5.94 21.809-2.032-.737-3.386-1.473-6.012-3.68 5.307-6.877 7.113-12.68 7.746-17.76-1.329-.728-2.242-2.221-2.242-3.944 0-1.88 1.084-3.484 2.605-4.12.054-5.001.31-9.313 4.25-13.46l-8.899-3.281c-2.319-.91-2.333-2.384-.033-3.286l37.455-13.795c2.302-.904 1.815-.898 4.134.013l37.233 13.904c2.32.912 2.337 2.385.035 3.289v.002zM318.36 52.293c0 1.22-.869 2.48-1.993 3.497-15.16 8.92-34.008 9.012-47.643.827-.772-.314-1.314-1.309-1.624-2.328.95-1.187 1.512-2.778 1.512-4.523 0-1.944-.676-3.693-1.902-4.91V38.37l23.43 8.625c2.32.912 1.852.918 4.153.013l24.067-8.998v14.284z" mask="url(#ach17oiuec)"/>
                </g>
            </g>
        </g>
    </g>
</svg>
