<svg xmlns="http://www.w3.org/2000/svg" width="176" height="60" viewBox="0 0 176 60">
    <g fill="none" fill-rule="evenodd">
        <g fill-rule="nonzero">
            <g>
                <g>
                    <g transform="translate(-120 -517) translate(0 117) translate(120 400)">
                        <rect width="176" height="60" fill="#000" rx="8"/>
                        <g fill="#FFF">
                            <text font-family="Montserrat-Bold, Montserrat" font-size="16" font-weight="bold" transform="translate(60 8)">
                                <tspan x="0" y="33">App Store</tspan>
                            </text>
                            <text font-family="PingFangSC-Regular, PingFang SC" font-size="14" transform="translate(60 8)">
                                <tspan x="0" y="15">Download form</tspan>
                            </text>
                        </g>
                        <path fill="#FFF" d="M43.907 36.002c1.045 1.478 2.243 2.434 3.594 2.867-.586 1.81-1.516 3.696-2.79 5.658-1.963 2.957-3.9 4.435-5.812 4.435-.713 0-1.77-.242-3.173-.727-1.3-.484-2.434-.726-3.402-.726-.969 0-2.039.255-3.211.765-1.224.484-2.23.726-3.02.726-2.294 0-4.55-1.95-6.767-5.85C17.109 39.303 16 35.519 16 31.798c0-3.44.841-6.257 2.523-8.449 1.733-2.192 3.874-3.288 6.423-3.288.56 0 1.185.07 1.873.21.688.14 1.402.402 2.14.784.79.434 1.44.733 1.95.899.51.165.905.248 1.186.248.33 0 .84-.076 1.529-.23.688-.152 1.376-.432 2.064-.84.74-.408 1.376-.714 1.912-.918.535-.204 1.083-.306 1.643-.306 1.784 0 3.39.485 4.817 1.453.765.51 1.542 1.262 2.332 2.256-1.172 1.02-2.026 1.911-2.561 2.676-.994 1.427-1.491 2.982-1.491 4.664 0 1.86.523 3.542 1.567 5.046zm-7.684-17.853c-.892.84-1.707 1.389-2.446 1.644-.255.076-.58.146-.975.21s-.848.121-1.357.172c.025-2.243.611-4.18 1.758-5.81 1.147-1.632 3.033-2.753 5.658-3.365.051.255.09.433.115.535v.42c0 .918-.217 1.95-.65 3.097-.459 1.122-1.16 2.154-2.103 3.097z"/>
                    </g>
                </g>
            </g>
        </g>
    </g>
</svg>
