<svg xmlns="http://www.w3.org/2000/svg" width="176" height="60" viewBox="0 0 176 60">
    <g fill="none" fill-rule="evenodd">
        <g fill-rule="nonzero">
            <g>
                <g>
                    <g transform="translate(-306 -517) translate(0 117) translate(120 400) translate(186)">
                        <rect width="176" height="60" fill="#000" rx="8"/>
                        <g fill="#FFF">
                            <text font-family="Montserrat-Bold, Montserrat" font-size="16" font-weight="bold" transform="translate(60 8)">
                                <tspan x="0" y="33">Andriod APK</tspan>
                            </text>
                            <text font-family="PingFangSC-Regular, PingFang SC" font-size="14" transform="translate(60 8)">
                                <tspan x="0" y="15">Download</tspan>
                            </text>
                        </g>
                        <g fill="#A8D436">
                            <path d="M19.95 7.7V6.115h-1.585V7.7h1.585zm-7.473 0V6.115H10.89V7.7h1.586zm8.379-4.303c2.491 1.812 3.85 4.303 3.85 7.247H6.588c0-3.17 1.133-5.435 3.624-7.247L8.174 1.36c-.453-.453-.453-.68 0-1.133.453-.226.679-.226 1.132 0l2.265 2.265c1.132-.68 2.49-.906 4.076-.906 1.359 0 2.718.227 3.85.906L21.762.226c.453-.226.68-.226 1.132 0 .227.227.227.68 0 1.133l-2.038 2.038zm7.474 8.832c.679 0 1.132.227 1.585.68.453.453.68.906.68 1.585v10.644c0 .68-.227 1.133-.68 1.586-.453.453-.906.68-1.585.68-.68 0-1.133-.227-1.586-.68-.453-.453-.68-.906-.68-1.586V14.494c0-.68.227-1.132.68-1.585.453-.453.906-.68 1.586-.68zm-25.592 0c.68 0 1.133.227 1.586.68.453.453.679.906.679 1.585v10.644c0 .68-.226 1.133-.68 1.586-.452.453-.905.68-1.585.68-.68 0-1.132-.227-1.585-.68-.453-.453-.68-.906-.68-1.586V14.494c0-.68.227-1.132.68-1.585.453-.453.906-.68 1.585-.68zm3.624 14.948V12.229H24.48v14.948c0 .453-.227.68-.453 1.132-.227.226-.68.453-1.133.453H21.31v5.209c0 .68-.226 1.132-.68 1.585-.452.453-.905.68-1.585.68-.68 0-1.132-.227-1.585-.68-.453-.453-.68-.906-.68-1.585v-5.209h-2.944v5.209c0 .68-.226 1.132-.679 1.585-.453.453-.906.68-1.585.68-.68 0-1.133-.227-1.586-.68-.453-.453-.679-.906-.679-1.585v-5.209H7.721c-.453 0-.68-.227-1.133-.453 0-.453-.226-.68-.226-1.132z" transform="translate(16 11)"/>
                        </g>
                    </g>
                </g>
            </g>
        </g>
    </g>
</svg>
