<svg xmlns="http://www.w3.org/2000/svg" width="84" height="88" viewBox="0 0 84 88">
    <g fill="none">
        <path fill="#263238" d="M68.264 53.892c2.256 0 4.093 1.836 4.093 4.093v25.922c0 2.257-1.837 4.093-4.093 4.093H12.326c-2.257 0-4.093-1.836-4.093-4.093V57.985c0-2.257 1.836-4.093 4.093-4.093h55.938zm0 1.364H12.326c-1.505 0-2.73 1.224-2.73 2.729v25.922c0 1.505 1.225 2.729 2.73 2.729h55.938c1.505 0 2.728-1.224 2.728-2.729V57.985c0-1.505-1.223-2.73-2.728-2.73zm-64.807 9.55c.343 0 .626.253.675.582l.008.1v15.008c0 .343-.253.626-.582.675l-.1.007c-.343 0-.627-.252-.675-.58l-.008-.102V65.49c0-.377.306-.683.682-.683zM77.132 78.45c.342 0 .626.252.675.581l.007.101v1.364c0 .343-.252.626-.581.675l-.101.007c-.343 0-.626-.252-.675-.58l-.007-.102v-1.364c0-.377.305-.682.682-.682zm0-17.737c.342 0 .626.253.675.582l.007.1v15.008c0 .343-.252.626-.581.675l-.101.007c-.343 0-.626-.252-.675-.58l-.007-.102V61.395c0-.376.305-.682.682-.682zm-25.923-2.728c1.129 0 2.047.918 2.047 2.046v1.364c0 1.129-.918 2.047-2.047 2.047H29.38c-1.127 0-2.046-.918-2.046-2.047v-1.364c0-1.128.919-2.046 2.047-2.046h21.83zM3.457 60.713c.343 0 .626.253.675.582l.008.1v1.365c0 .342-.253.626-.582.675l-.1.007c-.343 0-.627-.252-.675-.581l-.008-.101v-1.365c0-.376.306-.682.682-.682zM51.21 59.35H29.38c-.374 0-.681.307-.681.682v1.364c0 .376.307.683.682.683h21.83c.375 0 .682-.307.682-.683v-1.364c0-.375-.307-.682-.683-.682zm8.556-38.207l.25.136c2.081 1.16 3.394 3.325 3.47 5.694l.003.264c-.003 3.78-3.067 6.845-6.847 6.85h-4.067c-1.882 0-3.411 1.529-3.411 3.41 0 1.882 1.53 3.411 3.41 3.411h8.592c1.831 0 3.624-.526 5.164-1.517l3.652-2.348c2.31-1.487 5-2.277 7.748-2.274h4.86c.377 0 .682.305.682.682 0 .376-.305.682-.682.682h-4.86c-2.486-.002-4.92.713-7.01 2.059l-3.652 2.348c-1.76 1.132-3.809 1.734-5.902 1.732h-8.591c-2.633 0-4.775-2.142-4.775-4.775 0-2.633 2.142-4.775 4.775-4.775h4.067c2.953-.004 5.36-2.34 5.479-5.264l.004-.22c.012-1.897-.967-3.655-2.57-4.647l-.212-.125c-1.715-.987-3.833-.96-5.523.071l-4.306 2.584c-.32.194-.738.092-.933-.23l-.001-.002-.001-.002c-.177-.294-.106-.667.151-.878l.083-.058 4.306-2.584c2.03-1.236 4.552-1.315 6.647-.224zm11.469-8.612l4.573 2.586c1.434.809 3.052 1.234 4.699 1.236h2.083c.377 0 .682.305.682.682 0 .377-.305.682-.682.682h-2.083c-1.882-.001-3.732-.488-5.372-1.412l-4.573-2.586c-5.195-2.936-11.576-2.814-16.654.32l-17.75 10.954c-.081.05-.17.081-.264.094l-.094.007c-.377-.003-.681-.311-.678-.689.002-.233.122-.449.32-.573l17.75-10.954c5.502-3.393 12.414-3.526 18.043-.347zm-33.668-2.297c.377 0 .682.305.682.682 0 .376-.305.682-.682.682h-5.457c-.377 0-.683-.306-.683-.682 0-.377.306-.682.683-.682h5.457zM45.752 0c.343 0 .626.252.675.581l.007.101v2.046h2.047c.376 0 .682.306.682.683 0 .377-.306.682-.682.682h-2.048l.001 2.047c0 .342-.252.626-.581.674l-.101.008c-.343 0-.626-.253-.675-.582l-.007-.1V4.093h-2.047c-.376 0-.682-.305-.682-.682 0-.377.306-.682.682-.682l2.046-.001V.682c0-.377.306-.682.683-.682z"/>
        <path fill="#263238" d="M34.837 14.326c-.377 0-.682-.306-.682-.683V8.186c0-.377.305-.682.682-.682.377 0 .682.305.682.682v5.457c0 .377-.305.683-.682.683z"/>
        <path fill="#1977EF" d="M40.977 25.9c3.629 0 7.063 1.736 9.255 4.664l.202.278c.194.278.154.65-.08.88l-.085.071c-.308.216-.733.142-.95-.165l-.063-.086c-2.144 1.194-3.5 3.465-3.504 5.954l.005.263c.095 2.386 1.43 4.54 3.498 5.692l.063-.088c.235-.296.664-.346.96-.112.274.216.34.602.156.898-2.178 3.097-5.715 4.944-9.457 4.944-6.395 0-11.597-5.202-11.597-11.597 0-6.394 5.202-11.597 11.597-11.597z"/>
        <path fill="#FFF" d="M40.977 31.357c.342 0 .626.252.675.581l.007.1v1.365h1.364c.377 0 .682.306.682.682 0 .377-.305.683-.682.683h-3.07c-.563 0-1.023.46-1.023 1.023s.46 1.023 1.024 1.023H42c1.317 0 2.388 1.071 2.388 2.388 0 1.316-1.071 2.387-2.388 2.387h-.341v1.365c0 .342-.252.626-.581.674l-.101.008c-.343 0-.626-.253-.675-.582l-.007-.1-.001-1.365h-2.046c-.377 0-.682-.305-.682-.682 0-.377.305-.682.682-.682H42c.564 0 1.023-.46 1.023-1.023 0-.564-.46-1.024-1.023-1.024h-2.046c-1.317 0-2.388-1.07-2.388-2.387s1.07-2.388 2.388-2.388h.34v-1.364c0-.377.306-.682.683-.682z"/>
        <path fill="#263238" d="M21.876 33.426h-19.1c-1.13 0-2.047-.918-2.047-2.046V12.279c0-1.128.918-2.046 2.046-2.046h19.101c1.128 0 2.046.918 2.046 2.046v19.1c0 1.13-.918 2.047-2.046 2.047z"/>
        <path fill="#FFF" d="M15.736 22.512c1.505 0 2.73 1.224 2.73 2.728 0 1.505-1.225 2.73-2.73 2.73-1.504 0-2.728-1.225-2.728-2.73 0-1.504 1.224-2.728 2.728-2.728zm2.529-6.605c.255.265.255.684 0 .948L7.35 27.77c-.102.102-.234.168-.375.19l-.107.01c-.377 0-.682-.306-.682-.683 0-.18.072-.354.2-.482L17.3 15.891c.271-.262.703-.255.965.016zm-2.529 7.97c-.753 0-1.364.61-1.364 1.363 0 .71.541 1.292 1.233 1.359l.131.006c.754 0 1.365-.611 1.365-1.365 0-.709-.541-1.292-1.233-1.358l-.132-.006zM8.915 15.69c1.505 0 2.728 1.224 2.728 2.729 0 1.505-1.223 2.728-2.728 2.728-1.505 0-2.729-1.223-2.729-2.728 0-1.505 1.224-2.729 2.729-2.729zm0 1.364c-.754 0-1.365.611-1.365 1.365 0 .709.542 1.292 1.233 1.358l.132.006c.753 0 1.364-.61 1.364-1.364 0-.71-.541-1.292-1.233-1.358l-.131-.007z"/>
    </g>
</svg>
