<svg xmlns="http://www.w3.org/2000/svg" width="88" height="73" viewBox="0 0 88 73">
    <g fill="none">
        <path fill="#303355" d="M74.711 56.976c.34 0 .616.274.616.612v1.9c0 .305-.223.557-.516.605l-.1.008c-.34 0-.615-.274-.615-.612v-1.901c0-.338.275-.612.615-.612zM70.886 0c4.042.005 7.318 3.26 7.323 7.274v30.438c0 .507-.413.918-.924.918-.51 0-.923-.41-.923-.918V7.274c-.003-3.003-2.453-5.436-5.476-5.439H7.323C4.3 1.838 1.85 4.271 1.847 7.275v43.361c0 3 2.456 5.44 5.476 5.44h50.625c.51 0 .923.41.923.917 0 .507-.413.918-.923.918H7.323C3.28 57.905.005 54.65 0 50.636V7.274C.005 3.26 3.28.005 7.323 0h63.563zm0 4.483c1.55 0 2.81 1.252 2.81 2.791v30.438c0 .507-.413.918-.923.918s-.924-.41-.924-.918V7.274c-.001-.527-.431-.955-.963-.956H7.323c-.53-.002-.962.424-.963.951v43.365c-.002.527.427.955.958.957h50.63c.51 0 .924.411.924.918 0 .508-.414.92-.925.92H7.323c-1.552-.002-2.81-1.251-2.81-2.793V7.274c0-1.539 1.26-2.791 2.81-2.791h63.563zM54.878 16.376c6.478.552 11.483 5.85 11.66 12.273l.006.306c-.02 6.999-5.746 12.657-12.791 12.638-6.61-.018-12.11-5.047-12.675-11.588h8.33c.566 2.408 2.99 3.904 5.414 3.342 1.98-.46 3.397-2.175 3.479-4.176l.004-.216c.566-2.408-.94-4.816-3.364-5.379-2.424-.562-4.849.934-5.415 3.342-.077.328-.117.663-.118 1h-8.33c.602-6.973 6.78-12.14 13.8-11.542zm-36.31 18.346c1.067 0 1.933.86 1.933 1.921l-.006.15c-.077.99-.91 1.77-1.928 1.77-1.068 0-1.933-.86-1.933-1.92l.005-.15c.077-.99.911-1.77 1.928-1.77zm7.736 0c1.068 0 1.933.86 1.933 1.921l-.006.15c-.077.99-.91 1.77-1.927 1.77-1.068 0-1.934-.86-1.934-1.92l.006-.15c.077-.99.91-1.77 1.928-1.77zm7.736 0c1.068 0 1.934.86 1.934 1.921l-.006.15c-.077.99-.91 1.77-1.928 1.77-1.067 0-1.933-.86-1.933-1.92l.006-.15c.077-.99.91-1.77 1.927-1.77zm19.755-8.26c1.389 0 2.514 1.119 2.514 2.498l-.005.164c-.085 1.304-1.176 2.334-2.51 2.334-1.388 0-2.514-1.118-2.514-2.498l.005-.164c.085-1.303 1.176-2.334 2.51-2.334zm-35.228.575c1.068 0 1.934.86 1.934 1.92l-.006.15c-.077.991-.91 1.771-1.928 1.771-1.068 0-1.933-.86-1.933-1.92l.005-.15c.077-.991.911-1.771 1.928-1.771zm7.737 0c1.068 0 1.933.86 1.933 1.92l-.006.15c-.077.991-.91 1.771-1.927 1.771-1.068 0-1.934-.86-1.934-1.92l.006-.15c.077-.991.91-1.771 1.928-1.771zm7.736 0c1.068 0 1.934.86 1.934 1.92l-.006.15c-.077.991-.91 1.771-1.928 1.771-1.067 0-1.933-.86-1.933-1.92l.006-.15c.077-.991.91-1.771 1.927-1.771zm-15.473-7.685c1.068 0 1.934.86 1.934 1.92l-.006.15c-.077.991-.91 1.771-1.928 1.771-1.068 0-1.933-.86-1.933-1.92l.005-.15c.077-.991.911-1.771 1.928-1.771zm7.737 0c1.068 0 1.933.86 1.933 1.92l-.006.15c-.077.991-.91 1.771-1.927 1.771-1.068 0-1.934-.86-1.934-1.92l.006-.15c.077-.991.91-1.771 1.928-1.771zm7.736 0c1.068 0 1.934.86 1.934 1.92l-.006.15c-.077.991-.91 1.771-1.928 1.771-1.067 0-1.933-.86-1.933-1.92l.006-.15c.077-.991.91-1.771 1.927-1.771z"/>
        <path fill="#1977EF" d="M74.532 72.973c-2.81-.873-12.06-4.624-13.11-16.225l-.002-.053V45.787c0-.305.224-.563.528-.607 4.615-.663 8.685-2.08 12.443-4.333.196-.118.442-.118.638 0 3.759 2.253 7.83 3.67 12.444 4.333.303.044.528.302.527.607v10.905c-1.062 11.715-10.298 15.422-13.104 16.281-.058.018-.119.027-.18.027-.062 0-.124-.01-.184-.027z"/>
        <path fill="#FFF" d="M78.99 53.362H70.88V51.63c.076-2.102 1.853-3.744 3.968-3.669 2.009.072 3.62 1.673 3.693 3.669 0 .338.275.611.615.611.34 0 .616-.273.616-.611 0-2.772-2.27-5.028-5.062-5.028-2.79 0-5.061 2.256-5.061 5.028v1.891c-1.345.352-2.36 1.517-2.36 2.96v4.116c0 1.72 1.409 3.117 3.14 3.117h8.557c1.732 0 3.14-1.4 3.14-3.117V56.48c0-1.721-1.404-3.117-3.137-3.117zm1.909 7.233c-.002 1.046-.856 1.894-1.91 1.894h-8.556c-1.053 0-1.908-.848-1.909-1.894v-4.116c0-1.044.857-1.893 1.909-1.893h8.557c1.052 0 1.909.849 1.909 1.893v4.116z"/>
    </g>
</svg>
