<?xml version="1.0" encoding="UTF-8"?>
<svg width="22px" height="22px" viewBox="0 0 22 22" version="1.1" xmlns="http://www.w3.org/2000/svg" xmlns:xlink="http://www.w3.org/1999/xlink">
    <!-- Generator: Sketch 56.2 (81672) - https://sketch.com -->
    <title>gouxuan01</title>
    <desc>Created with Sketch.</desc>
    <defs>
        <linearGradient x1="50%" y1="0%" x2="50%" y2="100%" id="linearGradient-1">
            <stop stop-color="#7C81AC" offset="0%"></stop>
            <stop stop-color="#303355" offset="100%"></stop>
        </linearGradient>
    </defs>
    <g id="最终稿" stroke="none" stroke-width="1" fill="none" fill-rule="evenodd">
        <g id="2.5关于我们_PC1440" transform="translate(-120.000000, -1605.000000)" fill="url(#linearGradient-1)">
            <g id="编组-26备份" transform="translate(0.000000, 1196.000000)">
                <g id="编组备份-5" transform="translate(120.000000, 405.000000)">
                    <g id="编组-29">
                        <g id="勾选" transform="translate(0.000000, 4.000000)">
                            <g id="勾选-选中态">
                                <g>
                                    <path d="M0.276570819,10.9972728 L0.276570819,10.9972931 C0.276570819,10.9969663 0.276570819,10.9966394 0.276570819,10.9963126 C0.276570819,4.95751737 5.06073846,0.0620899824 10.9623098,0.0620899824 C16.8638596,0.0620899824 21.6480273,4.95749539 21.6480273,10.9963126 L21.6480273,10.9968028 C21.6480273,10.9971297 21.6480273,10.9974565 21.6480273,10.9977834 C21.6480273,17.0365786 16.8638597,21.932006 10.9622883,21.932006 C5.0607385,21.932006 0.276570819,17.0365786 0.276570819,10.9977614 L0.276570819,10.9972728 Z M5.92365728,11.0538597 L5.92303445,11.0538537 C5.4629181,10.5907562 5.08766147,10.8030097 4.92234696,10.9393659 C4.43268934,11.3452198 4.82428979,12.0218555 4.82428979,12.0218555 L8.12115691,17.0220148 C8.81698721,17.9321279 9.40344473,17.0323058 9.40344473,17.0323058 L17.0456177,6.97988499 C17.3775044,6.45504248 17.2304179,6.12058327 17.1028178,6.00159313 C16.6741309,5.60860495 16.1825872,6.11222187 16.1825872,6.11222187 L8.86349664,13.683854 L5.92365728,11.0538597 Z" id="形状结合" fill-rule="nonzero"></path>
                                </g>
                            </g>
                        </g>
                    </g>
                </g>
            </g>
        </g>
    </g>
</svg>