<?xml version="1.0" encoding="UTF-8"?>
<svg width="24px" height="24px" viewBox="0 0 24 24" version="1.1" xmlns="http://www.w3.org/2000/svg" xmlns:xlink="http://www.w3.org/1999/xlink">
    <!-- Generator: Sketch 56.2 (81672) - https://sketch.com -->
    <title>facebook</title>
    <desc>Created with Sketch.</desc>
    <defs>
        <path d="M0.389417619,11.4351764 C0.389417619,17.5687272 5.58769711,22.5409398 12.0000171,22.5409398 C18.4123943,22.5409398 23.6106165,17.5686998 23.6106165,11.4351764 C23.6106165,5.30159813 18.4123657,0.329358197 12.0000171,0.329358197 C5.58766846,0.329358197 0.389417619,5.30159813 0.389417619,11.4351764 Z" id="path-1"></path>
    </defs>
    <g id="优化调整5月7日" stroke="none" stroke-width="1" fill="none" fill-rule="evenodd">
        <g id="1.官网主页_PC1440=3" transform="translate(-120.000000, -5386.000000)">
            <g id="编组-9" transform="translate(0.000000, 4994.000000)">
                <g id="编组-7">
                    <g id="风险提醒和资质" transform="translate(0.000000, 196.000000)">
                        <g id="编组-38" transform="translate(120.000000, 38.000000)">
                            <g id="编组-52" transform="translate(0.000000, 130.000000)">
                                <g id="编组-37" transform="translate(0.000000, 28.000000)">
                                    <g id="facebook">
                                        <mask id="mask-2" fill="white">
                                            <use xlink:href="#path-1"></use>
                                        </mask>
                                        <use id="路径" fill="#5F79D7" fill-rule="nonzero" xlink:href="#path-1"></use>
                                        <path d="M11.435407,23.584418 L11.435407,15.0086974 L9.09741733,15.0086974 L9.09741733,12.2405726 L11.435407,12.2405726 L11.435407,9.94789943 C11.435407,7.52967764 12.8526613,5.82898997 15.8387637,5.82898997 L17.9469276,5.831182 L17.9469276,8.74430971 L16.5471187,8.74430971 C15.3852997,8.74430971 14.9434085,9.57867911 14.9434085,10.3526032 L14.9434085,12.242655 L17.9454667,12.242655 L17.2814555,15.0093824 L14.9433799,15.0093824 L14.9433799,23.5837878 L11.435407,23.5837878 L11.435407,23.584418 L11.435407,23.584418 Z" id="路径" fill="#FFFFFF" fill-rule="nonzero" mask="url(#mask-2)"></path>
                                    </g>
                                </g>
                            </g>
                        </g>
                    </g>
                </g>
            </g>
        </g>
    </g>
</svg>