<?xml version="1.0" encoding="UTF-8"?>
<svg width="16px" height="19px" viewBox="0 0 16 19" version="1.1" xmlns="http://www.w3.org/2000/svg" xmlns:xlink="http://www.w3.org/1999/xlink">
    <!-- Generator: Sketch 56.2 (81672) - https://sketch.com -->
    <title>路径</title>
    <desc>Created with Sketch.</desc>
    <g id="优化调整" stroke="none" stroke-width="1" fill="none" fill-rule="evenodd">
        <g id="1.官网主页_PC1440" transform="translate(-294.000000, -4366.000000)">
            <rect fill="#FFFFFF" x="0" y="0" width="1440" height="5252"></rect>
            <g id="公告策略" transform="translate(0.000000, 4147.000000)">
                <rect id="蒙版" fill="#FFFFFF" x="0" y="0" width="1440" height="626"></rect>
                <g id="编组-18" transform="translate(120.000000, 100.000000)">
                    <g id="1备份-3">
                        <g id="编组-39" transform="translate(0.000000, 54.000000)">
                            <g id="1" transform="translate(0.000000, 32.000000)">
                                <rect id="矩形" fill="#FFFFFF" x="0" y="0" width="551" height="85"></rect>
                                <g id="编组-8" transform="translate(16.000000, 14.000000)" fill="#1968CB" fill-rule="nonzero">
                                    <g id="编组" transform="translate(136.000000, 19.000000)">
                                        <g id="火备份" transform="translate(22.000000, 0.000000)">
                                            <path d="M3.99679963,18.8412613 C3.99679963,18.8412613 0.547441501,16.9119587 0.0797338977,13.1702823 C0.0797338977,13.1702823 -0.271048746,10.9486615 1.36593563,8.49318688 C1.36593563,8.49318688 2.18442782,7.61623027 2.1259634,5.62847296 C2.1259634,5.62847296 3.11984691,6.62235647 3.11984691,8.55165518 C3.11984691,8.55165518 6.04302913,6.09618056 6.62767334,0.191347807 C6.62767334,0.191347807 10.1939681,2.82220793 11.6555592,7.26546898 C11.6555592,7.26546898 12.3571245,6.09619415 11.8309503,4.04996465 C11.8309503,4.04996465 15.5141623,7.67470828 15.2803085,12.9364479 C15.2803085,12.9364479 15.2218448,16.8535137 10.4278275,18.899749 C10.4278275,18.899749 11.7724937,16.6196599 10.8370746,12.1764182 C10.8370746,12.1764182 10.369365,9.604007 7.68003855,7.79164489 C7.68003855,7.79164489 8.49853074,9.83788021 6.80308194,12.5856769 C6.80308194,12.5856769 7.03693768,11.1825464 6.15998107,10.2471195 C6.15998107,10.2471195 5.57534463,12.2348865 4.34760538,13.5210921 C4.40606921,13.4041647 2.65215658,14.9242227 3.99682273,18.8413001 L3.99679963,18.8412613 Z" id="路径"></path>
                                        </g>
                                    </g>
                                </g>
                            </g>
                            <rect id="矩形" stroke="#E2E3EC" x="0.5" y="0.5" width="550" height="371"></rect>
                        </g>
                    </g>
                </g>
            </g>
        </g>
    </g>
</svg>