<?xml version="1.0" encoding="UTF-8"?>
<svg width="40px" height="29px" viewBox="0 0 40 29" version="1.1" xmlns="http://www.w3.org/2000/svg" xmlns:xlink="http://www.w3.org/1999/xlink">
    <!-- Generator: Sketch 56.2 (81672) - https://sketch.com -->
    <title>形状</title>
    <desc>Created with Sketch.</desc>
    <g id="首页新增广告位" stroke="none" stroke-width="1" fill="none" fill-rule="evenodd">
        <g id="1.官网主页_PC1440-02-新增广告" transform="translate(-1161.000000, -2065.000000)" fill="#FAFAFA" fill-rule="nonzero">
            <g id="编组-11" transform="translate(0.000000, 1786.000000)">
                <g id="编组-9" transform="translate(164.000000, 100.000000)">
                    <g id="编组-17" transform="translate(40.000000, 137.000000)">
                        <g id="编组-7" transform="translate(532.000000, 0.000000)">
                            <g id="交易" transform="translate(425.000000, 42.000000)">
                                <path d="M10.8426868,25.7790069 C10.3357538,25.7790069 9.92471856,25.3684129 9.92471856,24.8610386 L9.92471856,3.88362751 C9.92471856,3.3766945 10.3357525,2.96565925 10.8426868,2.96565925 C11.3496198,2.96565925 11.7606551,3.37669321 11.7606551,3.88362751 L11.7606551,24.8610386 C11.7606551,25.3684572 11.3496211,25.7790069 10.8426868,25.7790069 Z M29.201966,25.7790069 C28.6945947,25.7790069 28.2839977,25.3684129 28.2839977,24.8610386 L28.2839977,3.88362751 C28.2839977,3.3766945 28.6945917,2.96565925 29.201966,2.96565925 C29.7093373,2.96565925 30.1199343,3.37669321 30.1199343,3.88362751 L30.1199343,24.8610386 C30.1199343,25.3684572 29.7093842,25.7790069 29.201966,25.7790069 L29.201966,25.7790069 Z M20.0222834,12.4931829 C19.7941217,12.4931829 19.5660063,12.4089361 19.3884979,12.2390348 C19.0218301,11.8889878 19.0084191,11.3080513 19.3584663,10.9414287 L29.1876222,0.644772138 L39.0163055,10.9414287 C39.365913,11.3080965 39.3524582,11.8889852 38.9858342,12.2390348 C38.6192102,12.5890819 38.0364729,12.5756709 37.6877897,12.2090032 L29.1876587,3.30367641 L20.6866254,12.2090032 C20.5055119,12.398163 20.2643792,12.4931829 20.0223234,12.4931829 L20.0222834,12.4931829 Z M10.8426439,28.1375643 L1.05697231,18.6916471 C0.692107469,18.3393575 0.68181816,17.7584206 1.03410779,17.3936026 C1.38595781,17.0296607 1.96821083,17.0188885 2.33171399,17.3702984 L10.8426301,25.5862767 L19.3535463,17.3702984 C19.7179716,17.0188884 20.3001833,17.0296611 20.6515908,17.3936026 C21.0038804,17.7584679 20.9931515,18.3393588 20.6282866,18.6916471 L10.842615,28.1375643 L10.8426439,28.1375643 Z" id="形状"></path>
                            </g>
                        </g>
                    </g>
                </g>
            </g>
        </g>
    </g>
</svg>