<svg xmlns="http://www.w3.org/2000/svg" width="37" height="44" viewBox="0 0 37 44">
    <g fill="none" fill-rule="evenodd" transform="translate(-33 -28)">
        <path fill="#1977EF" fill-rule="nonzero" d="M39.714 60.646c0 1.488 1.19 2.697 2.655 2.697h1.919c-.066.226-.1.468-.1.706v5.394c0 1.411 1.125 2.557 2.514 2.557 1.39 0 2.515-1.144 2.515-2.557v-5.394c0-.243-.036-.482-.1-.706h4.672c-.064.226-.1.468-.1.706v5.394c0 1.411 1.127 2.557 2.515 2.557 1.391 0 2.518-1.144 2.518-2.557v-5.394c0-.243-.037-.482-.102-.706h1.918c1.465 0 2.655-1.209 2.655-2.697V41.918H39.71v18.73h.005v-.002zm-4.197-18.728c-1.392 0-2.517 1.146-2.517 2.552v10.927c0 1.408 1.127 2.552 2.517 2.552s2.518-1.144 2.518-2.552V44.47c0-1.41-1.127-2.552-2.518-2.552zm31.874 0c-1.391 0-2.515 1.146-2.515 2.552v10.927c0 1.408 1.125 2.552 2.515 2.552 1.39 0 2.515-1.144 2.515-2.552V44.47c0-1.41-1.125-2.552-2.515-2.552zm-10.162-10.22l1.985-3.022c.129-.195.075-.463-.116-.592-.194-.13-.452-.074-.583.123l-1.12 1.706-.472.717-.479.727c-1.517-.598-3.207-.932-4.99-.932-1.783 0-3.473.339-4.989.932l-.949-1.444-1.122-1.706c-.129-.197-.39-.252-.582-.123-.191.134-.244.397-.118.592l1.985 3.022c-3.558 1.68-5.966 4.869-5.966 8.518h23.484c0-3.65-2.41-6.837-5.968-8.518zm-10.805 5.11c-.696 0-1.261-.57-1.261-1.274 0-.702.564-1.275 1.26-1.275.696 0 1.258.567 1.258 1.275 0 .703-.563 1.275-1.257 1.275zm10.063 0c-.695 0-1.259-.57-1.259-1.274 0-.702.564-1.275 1.26-1.275.695 0 1.257.567 1.257 1.275 0 .703-.564 1.275-1.258 1.275zm-16.68 23.823c0 1.488 1.19 2.696 2.655 2.696h1.916c-.063.226-.1.468-.1.711v5.39c0 1.41 1.127 2.556 2.515 2.556 1.391 0 2.515-1.144 2.515-2.557v-5.389c0-.248-.035-.486-.1-.71h4.675c-.065.225-.102.467-.102.71v5.39c0 1.41 1.129 2.556 2.518 2.556 1.388 0 2.517-1.144 2.517-2.557v-5.389c0-.248-.037-.486-.102-.71h1.917c1.466 0 2.655-1.21 2.655-2.697V41.907H39.802v18.725h.005v-.001zm-4.195-18.724c-1.393 0-2.518 1.143-2.518 2.552v10.922c0 1.408 1.125 2.553 2.518 2.553 1.388 0 2.515-1.145 2.515-2.553V44.46c0-1.412-1.127-2.557-2.515-2.557v.005zm31.871 0c-1.388 0-2.513 1.143-2.513 2.552v10.922c0 1.408 1.125 2.553 2.513 2.553 1.392 0 2.517-1.145 2.517-2.553V44.46c0-1.412-1.127-2.557-2.517-2.557v.005zm-10.16-10.225l1.983-3.017c.13-.2.077-.463-.114-.592-.196-.133-.456-.078-.586.118l-1.12 1.706-.472.717-.476.727c-1.519-.593-3.207-.932-4.99-.932-1.783 0-3.474.339-4.99.932l-.948-1.444-1.124-1.706c-.128-.196-.39-.251-.582-.118-.191.129-.244.393-.115.592l1.985 3.017c-3.557 1.681-5.969 4.872-5.969 8.519h23.482c0-3.645-2.408-6.833-5.966-8.514v-.005h.002zm-10.809 5.11c-.695 0-1.257-.567-1.257-1.274 0-.701.562-1.274 1.257-1.274.696 0 1.258.571 1.258 1.274 0 .707-.562 1.275-1.258 1.275zm10.065 0c-.695 0-1.259-.567-1.259-1.274 0-.701.564-1.274 1.26-1.274.695 0 1.257.571 1.257 1.274 0 .707-.562 1.275-1.258 1.275z"/>
        <rect width="100" height="100" stroke="#CBCDDB" rx="4"/>
    </g>
</svg>
