<?xml version="1.0" encoding="UTF-8"?>
<svg width="100px" height="100px" viewBox="0 0 100 100" version="1.1" xmlns="http://www.w3.org/2000/svg" xmlns:xlink="http://www.w3.org/1999/xlink">
    <!-- Generator: Sketch 64 (93537) - https://sketch.com -->
    <title>比例</title>
    <desc>Created with Sketch.</desc>
    <g id="Page-1" stroke="none" stroke-width="1" fill="none" fill-rule="evenodd">
        <g id="高杠杆-pc" transform="translate(-1034.000000, -1098.000000)">
            <g id="分组-3-copy-2" transform="translate(928.000000, 1048.000000)">
                <g id="编组-copy-4" transform="translate(106.000000, 50.000000)">
                    <g id="编组-copy">
                        <circle id="椭圆形" fill="#FFF6D6" cx="50" cy="50" r="50"></circle>
                        <path d="M61.3030888,38.2684236 L69.3822279,38.2684236 C69.8144372,38.2699055 70.2274327,38.445536 70.5262109,38.7549137 C70.831552,39.0697123 71.0014344,39.4897443 70.9999909,39.9263055 L70.9999909,71.3402103 C71.0012324,71.7767332 70.8313792,72.1966931 70.5262109,72.5116021 C70.2269773,72.8200928 69.8141068,72.9949815 69.3822279,72.9961844 L61.3030888,72.9961844 C60.8712099,72.9949815 60.4583394,72.8200928 60.1591058,72.5116021 C59.8539375,72.1966931 59.6840843,71.7767332 59.6852391,71.3402103 L59.6852391,39.9205821 C59.675659,39.0227189 60.3987418,38.2851363 61.3050147,38.2684236 L61.3030888,38.2684236 Z M46.0885002,46.5368472 L54.1676394,46.5368472 C54.5995183,46.5380501 55.0123888,46.7129388 55.3116223,47.0214295 C55.6167906,47.3363385 55.7866439,47.7562984 55.7854,48.1928213 L55.7854,71.3421181 C55.7866439,71.778641 55.6167906,72.1986009 55.3116223,72.5135099 C55.0128441,72.8228877 54.5998486,72.9985181 54.1676394,73 L46.0885002,73 C45.656291,72.9985181 45.2432955,72.8228877 44.9445173,72.5135099 C44.6391762,72.1987113 44.4692938,71.7786793 44.4707465,71.3421181 L44.4707465,48.1890057 C44.4578814,47.2906195 45.1816231,46.551486 46.0885002,46.5368472 L46.0885002,46.5368472 Z M30.6177674,30 L38.6969065,30 C39.1291157,30.0014819 39.5421112,30.1771123 39.8408895,30.4864901 C40.1462305,30.8012887 40.3161129,31.2213207 40.3146694,31.6578819 L40.3146694,71.3402103 C40.315911,71.7767332 40.1460577,72.1966931 39.8408895,72.5116021 C39.5416559,72.8200928 39.1287854,72.9949815 38.6969065,72.9961844 L30.6177674,72.9961844 C30.1858885,72.9949815 29.7730179,72.8200928 29.4737844,72.5116021 C29.1686161,72.1966931 28.9987629,71.7767332 29.0000068,71.3402103 L29.0000068,31.6578819 C28.9987629,31.221359 29.1686161,30.8013991 29.4737844,30.4864901 C29.7725626,30.1771123 30.1855581,30.0014819 30.6177674,30 Z" id="形状" fill="#FFA704" fill-rule="nonzero"></path>
                    </g>
                </g>
            </g>
        </g>
    </g>
</svg>