<svg xmlns="http://www.w3.org/2000/svg" width="88" height="88" viewBox="0 0 88 88">
    <defs>
        <linearGradient id="tbcx36flva" x1="50%" x2="50%" y1="0%" y2="100%">
            <stop offset="0%" stop-color="#FFCA1C"/>
            <stop offset="100%" stop-color="#FF590B"/>
        </linearGradient>
    </defs>
    <g fill="none" fill-rule="evenodd">
        <g fill="url(#tbcx36flva)" fill-rule="nonzero" transform="translate(-777 -1159)">
            <g>
                <g>
                    <path d="M79.411 23.954c2.01 0 3.589 1.58 3.589 3.59v13.494H63.955c-7.178 0-13.016 5.838-13.016 13.016 0 7.177 5.838 13.016 13.016 13.016H83v13.59c0 2.01-1.58 3.589-3.589 3.589l-70.822.047C6.579 84.296 5 82.717 5 80.708V27.59c0-2.01 1.58-3.589 3.589-3.589zM83 43.957v20.098H64.625c-5.551 0-10.05-4.498-10.05-10.05 0-5.55 4.499-10.048 10.05-10.048H83zm-18.998 6.412c-2.01 0-3.636 1.627-3.636 3.637s1.627 3.637 3.636 3.637c2.01 0 3.637-1.627 3.637-3.637s-1.627-3.637-3.637-3.637zM69.936 3.09c1.531-.382 3.158.479 3.637 2.058l4.45 15.504H15.24z" transform="translate(745 1112) translate(32 47)"/>
                </g>
            </g>
        </g>
    </g>
</svg>
