<?xml version="1.0" encoding="UTF-8"?>
<svg width="36px" height="36px" viewBox="0 0 36 36" version="1.1" xmlns="http://www.w3.org/2000/svg" xmlns:xlink="http://www.w3.org/1999/xlink">
    <!-- Generator: Sketch 56.2 (81672) - https://sketch.com -->
    <title>形状结合</title>
    <desc>Created with Sketch.</desc>
    <defs>
        <linearGradient x1="50%" y1="0%" x2="50%" y2="100%" id="linearGradient-1">
            <stop stop-color="#4396FF" offset="0%"></stop>
            <stop stop-color="#1977EF" offset="100%"></stop>
        </linearGradient>
    </defs>
    <g id="首页新增广告位" stroke="none" stroke-width="1" fill="none" fill-rule="evenodd">
        <g id="1.官网主页_PC1440-02-新增广告" transform="translate(-292.000000, -1360.000000)" fill="url(#linearGradient-1)">
            <g id="编组-6" transform="translate(0.000000, 986.000000)">
                <g id="编组-5" transform="translate(230.000000, 254.000000)">
                    <g id="编组-2">
                        <path d="M80,156 C70.0588745,156 62,147.941125 62,138 C62,128.058875 70.0588745,120 80,120 C89.9411255,120 98,128.058875 98,138 C98,147.941125 89.9411255,156 80,156 Z M83.8488442,130 C82.4007957,130 81.2406381,130.519922 80.2179806,131.54258 C80.2179806,131.54258 80.2158322,131.54258 80.2158322,131.544728 L79.633605,132.277346 L79.0513777,131.589846 L79.0492293,131.587697 C78.0265718,130.56504 76.8664142,130 75.4183657,130 C73.9703171,130 72.6103546,130.562891 71.5876972,131.587697 C70.5650397,132.610355 70,133.972466 70,135.418366 C70,136.864266 70.5628913,138.224228 71.5855487,139.249034 L78.7785258,146.502168 C79.004112,146.729902 79.311339,146.858809 79.633605,146.858809 C79.9537225,146.858809 80.2630979,146.729902 80.4886841,146.502168 L87.6816612,139.249034 C88.7043186,138.226377 89.2672099,136.866414 89.2672099,135.418366 C89.2672099,133.970317 88.7043186,132.610355 87.6795128,131.587697 C86.6568553,130.562891 85.2947444,130 83.8488442,130 Z" id="形状结合"></path>
                    </g>
                </g>
            </g>
        </g>
    </g>
</svg>