<?xml version="1.0" encoding="UTF-8"?>
<svg width="36px" height="36px" viewBox="0 0 36 36" version="1.1" xmlns="http://www.w3.org/2000/svg" xmlns:xlink="http://www.w3.org/1999/xlink">
    <!-- Generator: Sketch 56.2 (81672) - https://sketch.com -->
    <title>形状结合</title>
    <desc>Created with Sketch.</desc>
    <defs>
        <linearGradient x1="50%" y1="0%" x2="50%" y2="100%" id="linearGradient-1">
            <stop stop-color="#4396FF" offset="0%"></stop>
            <stop stop-color="#1977EF" offset="100%"></stop>
        </linearGradient>
    </defs>
    <g id="首页新增广告位" stroke="none" stroke-width="1" fill="none" fill-rule="evenodd">
        <g id="1.官网主页_PC1440-02-新增广告" transform="translate(-292.000000, -1268.000000)" fill="url(#linearGradient-1)">
            <g id="编组-6" transform="translate(0.000000, 986.000000)">
                <g id="编组-5" transform="translate(230.000000, 254.000000)">
                    <g id="编组-2">
                        <path d="M80,64 C70.0588745,64 62,55.9411255 62,46 C62,36.0588745 70.0588745,28 80,28 C89.9411255,28 98,36.0588745 98,46 C98,55.9411255 89.9411255,64 80,64 Z M76.8750079,46.2500096 C79.1531857,46.2500096 81.0000127,44.4031891 81.0000127,42.1250048 C81.0000127,39.846827 79.1531922,38 76.8750081,38 C74.5968302,38 72.7500033,39.8468205 72.7500033,42.1250048 C72.7500033,44.4031826 74.5968238,46.2500096 76.8750082,46.2500096 Z M75.5,47.6250112 C72.4624345,47.6250112 70,50.0874465 70,53.1250112 L70,54.5000192 L83.750016,54.5000192 L83.750016,53.1250112 C83.750016,50.0874457 81.2875815,47.6250112 78.2500098,47.6250112 L75.5,47.6250112 Z M85.1250178,44.8750081 L83.0625154,44.8750081 C82.6828194,44.8750081 82.3750146,45.182813 82.3750146,45.5625089 C82.3750146,45.9422049 82.6828194,46.2500097 83.0625154,46.2500097 L85.1250178,46.2500097 L85.1250178,48.3125121 C85.1250178,48.6922081 85.4328227,49.0000129 85.8125186,49.0000129 C86.1922146,49.0000129 86.5000194,48.6922081 86.5000194,48.3125121 L86.5000194,46.2500097 L88.5625218,46.2500097 C88.9422178,46.2500097 89.2500226,45.9422049 89.2500226,45.5625089 C89.2500226,45.182813 88.9422178,44.8750081 88.5625218,44.8750081 L86.5000194,44.8750081 L86.5000194,42.8125057 C86.5000194,42.4328098 86.1922146,42.1250049 85.8125186,42.1250049 C85.4328227,42.1250049 85.1250178,42.4328098 85.1250178,42.8125056 L85.1250178,44.875008 Z" id="形状结合"></path>
                    </g>
                </g>
            </g>
        </g>
    </g>
</svg>