<svg width="158" height="107" viewBox="0 0 158 107" fill="none" xmlns="http://www.w3.org/2000/svg">
<path d="M128.154 82.4778L83.0596 90.3895L110.231 70.0107L128.154 82.4778Z" fill="#3678E7" fill-opacity="0.18"/>
<path d="M52.9936 82.1397C52.5187 81.983 52.069 81.7679 51.6531 81.5096C49.8378 80.3846 48.6309 78.3839 48.6309 76.1068V47.3032L52.1373 79.6012C52.2396 80.5383 52.5408 81.3988 52.9936 82.1397Z" fill="#D7E3F7"/>
<path d="M134.585 29.5329V59.065L130.746 23.7026C131.094 23.8532 131.423 24.0316 131.733 24.2405C133.452 25.3837 134.585 27.3261 134.585 29.5329Z" fill="#D7E3F7"/>
<path d="M134.585 74.604C136.012 73.1349 136.81 71.0141 136.568 68.7799L134.585 50.5149L131.733 24.2406L131.618 23.1897C131.203 19.3632 127.898 16.6312 124.255 17.0984L76.9487 23.1619H84.5326L124.36 18.0571C124.717 18.0111 125.071 18.0018 125.418 18.0235C128.115 18.2049 130.386 20.3867 130.703 23.3067L130.746 23.7032L134.584 59.0655L135.652 68.8972C135.819 70.4555 135.404 71.9523 134.584 73.1353V74.604H134.585ZM58.4822 84.8476C56.2325 85.1364 54.1349 84.0117 52.9928 82.14C52.5399 81.3995 52.2388 80.5389 52.1365 79.6014L48.6301 47.3034L47.1873 34.0113C46.995 32.2256 47.5691 30.5261 48.6362 29.2783C48.6579 28.7404 48.7447 28.2181 48.8938 27.7231C47.0691 29.1798 45.9985 31.5801 46.2745 34.1279L48.6297 55.8228L51.2238 79.7184C51.2921 80.3485 51.4381 80.9477 51.652 81.5103C52.5859 83.9688 54.8078 85.6777 57.3552 85.8468C57.7587 85.8746 58.1683 85.8622 58.5841 85.8097L84.5754 82.4782H76.9699L58.4822 84.8476Z" fill="#3678E7"/>
<path d="M134.586 59.0649V76.1067C134.586 79.6259 131.706 82.4779 128.153 82.4779H55.0634C54.3372 82.4779 53.6423 82.3582 52.9936 82.1397C52.5408 81.3992 52.2396 80.5386 52.1373 79.6012L48.6309 47.3032V29.5328C48.6309 29.4467 48.6339 29.3637 48.637 29.2776C48.6587 28.7398 48.7455 28.2174 48.8946 27.7225C49.6826 25.0855 52.1466 23.1616 55.0634 23.1616H128.153C129.077 23.1616 129.956 23.3551 130.747 23.7025L134.586 59.0649Z" fill="url(#paint0_linear_2252:4161)"/>
<path d="M70.4746 63.7105L69.8946 57.5547C67.9232 57.187 66.4348 56.4923 65.4295 55.4704C64.433 54.4378 63.86 53.1281 63.7105 51.5414C63.5592 49.9351 63.9367 48.5409 64.8431 47.3586C65.7584 46.1657 67.0505 45.4066 68.7195 45.0814L68.5825 43.6269L70.7128 43.4262L70.8498 44.8807C72.4246 44.92 73.7139 45.3371 74.7177 46.1319C75.7205 46.9169 76.4184 48.0319 76.8115 49.4771L73.1402 50.3121C72.806 49.1776 72.1445 48.4494 71.1557 48.1275L71.6969 53.872C74.1075 54.2872 75.7869 54.964 76.735 55.9023C77.6822 56.8309 78.2305 58.0885 78.38 59.6752C78.547 61.448 78.149 62.9924 77.186 64.3085C76.2329 65.6236 74.8142 66.5082 72.9301 66.9624L73.189 69.7097L71.0587 69.9104L70.8068 67.2365C69.0929 67.1905 67.6573 66.6884 66.4998 65.7302C65.3423 64.7721 64.5258 63.3421 64.0502 61.4403L67.846 60.6676C68.0765 61.4364 68.434 62.0846 68.9185 62.6121C69.403 63.1395 69.9217 63.5057 70.4746 63.7105ZM69.0212 48.2842C68.4618 48.5345 68.0328 48.9109 67.7343 49.4133C67.4358 49.9157 67.3133 50.451 67.3668 51.0191C67.4157 51.5382 67.6181 52.0083 67.974 52.4293C68.3289 52.8405 68.8376 53.1533 69.5001 53.3675L69.0212 48.2842ZM72.6242 63.7155C73.3459 63.5092 73.9115 63.115 74.3211 62.5329C74.7298 61.941 74.8995 61.2778 74.8303 60.5432C74.7685 59.887 74.5196 59.3423 74.0835 58.909C73.6563 58.4651 72.9899 58.1573 72.0844 57.9857L72.6242 63.7155ZM81.3873 58.7143L86.6247 57.6682C86.8885 58.8503 87.4252 59.759 88.2346 60.3942C89.0428 61.0168 89.9318 61.2824 90.9014 61.1911C92.0096 61.0867 92.9056 60.5512 93.5896 59.5848C94.2723 58.6057 94.5283 57.2095 94.3574 55.3961C94.1973 53.696 93.6934 52.4603 92.8457 51.689C92.0095 50.9038 90.9806 50.5688 89.7591 50.6839C88.2353 50.8275 86.9325 51.6299 85.8505 53.0912L81.485 52.8736L82.8472 38.2048L96.882 36.8825L97.3501 41.8504L87.3387 42.7936L86.9507 47.5754C88.0786 46.872 89.2597 46.4622 90.4938 46.3459C92.8487 46.124 94.9253 46.7923 96.7238 48.3507C98.5222 49.9091 99.5501 52.0547 99.8076 54.7873C100.022 57.0667 99.5528 59.1627 98.399 61.0755C96.8284 63.6882 94.4438 65.1452 91.2452 65.4465C88.6888 65.6874 86.54 65.1974 84.7988 63.9766C83.0576 62.7559 81.9204 61.0017 81.3873 58.7143ZM109.869 35.1635C112.552 34.9108 114.739 35.6703 116.43 37.442C118.444 39.5391 119.699 43.2133 120.194 48.4645C120.687 53.7032 120.135 57.5539 118.538 60.0167C117.217 62.0468 115.216 63.1882 112.534 63.4409C109.839 63.6948 107.569 62.8668 105.725 60.957C103.879 59.0346 102.706 55.4163 102.206 50.1021C101.715 44.8886 102.268 41.0505 103.865 38.5877C105.186 36.5576 107.187 35.4162 109.869 35.1635ZM110.284 39.5647C109.642 39.6252 109.088 39.887 108.624 40.35C108.158 40.8004 107.837 41.5676 107.659 42.6515C107.423 44.0585 107.458 46.3865 107.765 49.6355C108.071 52.8845 108.445 55.1043 108.887 56.295C109.329 57.4731 109.814 58.2405 110.343 58.5972C110.885 58.9527 111.477 59.1002 112.119 59.0397C112.761 58.9792 113.315 58.7237 113.781 58.2733C114.245 57.8103 114.566 57.0368 114.744 55.9529C114.981 54.5584 114.946 52.2367 114.64 48.9877C114.334 45.7388 113.96 43.5252 113.519 42.3472C113.077 41.1565 112.585 40.3834 112.043 40.0279C111.513 39.6586 110.926 39.5042 110.284 39.5647Z" fill="#3678E7"/>
<path d="M140.892 78.3518L152.889 78.0669L151.108 82.3335L140.892 78.3518Z" fill="#E47174"/>
<path d="M123.654 9.05217L122.328 1.82155L126.284 0L123.654 9.05217Z" fill="#5C3AF2"/>
<path d="M154.848 23.3098L157.341 28.0589L146.305 26.1142L154.848 23.3098Z" stroke="#5C3AF2" stroke-width="0.719571"/>
<path d="M140.112 11.614L148.724 0.0263672L153.667 4.35478L140.112 11.614Z" fill="#EDBA4E"/>
<path d="M37.3797 44.4487L31.7235 50.157L28.4932 46.3182L37.3797 44.4487Z" fill="#EDBA4E"/>
<path d="M35.8668 26.0672L27.6386 25.6213L26.9004 20.2559L35.8668 26.0672Z" fill="#E47174"/>
<path d="M46.0576 15.1878L35.4746 6.2349L40.5157 1.00537L46.0576 15.1878Z" fill="#EDBA4E"/>
<path d="M125.835 92.5303L127.013 101.496L121.595 102.869L125.835 92.5303Z" fill="#EDBA4E"/>
<path d="M145.423 41.9292L152.475 42.7616L152.759 46.9676L145.423 41.9292Z" fill="#EDBA4E"/>
<path d="M140.625 100.381L137.386 90.8245L144.573 97.2105L140.625 100.381Z" stroke="#E47174" stroke-width="0.719571"/>
<path d="M12.4218 95.9235L10.8794 96.8103C10.8774 96.8123 10.6539 97.6103 10.652 97.6122C10.3697 97.8809 10.5852 97.6169 10.8636 97.9365C12.6585 99.9963 15.3962 103.623 16.273 104.793C16.5606 105.178 16.273 104.95 17.1843 105.794C18.2637 107.233 18.6235 106.513 20.7822 105.074C21.6544 104.242 21.8616 104.714 19.3447 101.678L14.7132 94.7934C14.5117 94.4938 14.1688 94.4166 13.9198 94.6154C13.4059 95.0262 12.9056 95.4617 12.4218 95.9235Z" fill="#3678E7"/>
<rect x="26.4579" y="66.5105" width="2.56255" height="25.7495" rx="0.359785" transform="rotate(-29.4365 26.4579 66.5105)" stroke="#3678E7" stroke-width="0.719571"/>
<path d="M24.8929 69.9125L24.8929 69.9125L35.7338 89.1164C35.7338 89.1164 35.7338 89.1164 35.7338 89.1164C35.917 89.4409 35.7322 89.8496 35.3676 89.9265L15.5981 94.0893L10.2319 84.5835L24.0104 69.8077L24.0105 69.8075C24.2641 69.5352 24.7097 69.5879 24.8929 69.9125Z" fill="white" stroke="#3678E7" stroke-width="0.719571"/>
<path d="M11.7036 97.8318L14.6626 96.1612C15.4919 95.6929 15.7845 94.6412 15.3166 93.8119L10.3249 84.9697C9.85657 84.1404 8.80487 83.8478 7.97556 84.3157L5.0166 85.9863C4.18729 86.4546 3.89463 87.5063 4.36257 88.3356L9.35427 97.1778C9.82221 98.0075 10.8739 98.3001 11.7036 97.8318Z" fill="#EDBA4E"/>
<path d="M6.06689 98.1906L7.21858 97.5404C7.52822 97.3655 7.63749 96.9733 7.46259 96.6636L3.8245 90.2195C3.64961 89.9098 3.25734 89.8006 2.9477 89.9754L1.79601 90.6256C1.03967 91.0526 0.772495 92.0121 1.19951 92.7688L3.92373 97.5941C4.35074 98.3508 5.31055 98.618 6.06689 98.1906Z" fill="#3678E7"/>
<path d="M24.4219 71.3472L25.8281 73.8374L11.3691 84.422L24.4219 71.3472Z" fill="#3678E7" fill-opacity="0.18"/>
<defs>
<linearGradient id="paint0_linear_2252:4161" x1="91.6082" y1="23.1616" x2="91.6082" y2="82.4779" gradientUnits="userSpaceOnUse">
<stop stop-color="#D7E3F7" stop-opacity="0"/>
<stop offset="1" stop-color="#D7E3F7"/>
</linearGradient>
</defs>
</svg>
