<svg width="68" height="68" viewBox="0 0 68 68" fill="none" xmlns="http://www.w3.org/2000/svg">
<path d="M61.4639 53.6044C61.4639 54.3618 61.3356 55.0586 61.0669 55.712C60.8089 56.3567 60.4245 56.9432 59.9363 57.4371C59.4481 57.9309 58.8661 58.322 58.2244 58.5875C57.5762 58.8648 56.8638 59 56.0856 59H11.744C10.9745 59 10.2396 58.8648 9.548 58.5875C8.87064 58.3191 8.24844 57.9284 7.7125 57.4349C7.18398 56.95 6.7579 56.3642 6.45936 55.712C6.15351 55.0517 5.9967 54.3321 6.00005 53.6044V23.9971C6.00005 22.4944 6.54082 21.2205 7.62064 20.1667C8.70045 19.1233 10.0108 18.5964 11.5586 18.5964H55.9053C57.4531 18.5964 58.7652 19.1233 59.845 20.1667C60.9248 21.2135 61.4639 22.4875 61.4639 23.9971V32.0637H47.5962C46.0467 32.0637 44.7381 32.575 43.6582 33.608C43.1354 34.09 42.7207 34.6774 42.4414 35.3313C42.162 35.9853 42.0244 36.691 42.0377 37.402C42.0793 38.4351 42.3028 39.3363 42.7067 40.1284C43.0325 40.7975 43.5716 41.4076 44.329 41.9657C45.0847 42.5203 46.1714 42.7959 47.5979 42.7959H61.4639V53.6044ZM53.1547 15.8769H25.4263C27.5104 14.8248 29.5863 13.7565 31.6538 12.6721C33.3472 11.8107 35.0388 10.9423 36.7253 10.0601C38.3944 9.19177 39.6978 8.5158 40.6355 8.0461C42.0602 7.2904 43.3359 6.94895 44.4503 7.00615C45.5683 7.06335 46.5164 7.25574 47.2877 7.56945C48.182 8.00276 48.9585 8.57993 49.6067 9.29056L53.1547 15.8769ZM44.8455 37.409C44.8455 36.655 45.1124 36.0207 45.6376 35.5076C45.8951 35.2558 46.2005 35.0581 46.5357 34.9262C46.8709 34.7943 47.2291 34.731 47.5892 34.7398C48.3588 34.7398 49.0157 34.9963 49.5409 35.5076C50.073 36.0207 50.333 36.655 50.333 37.409C50.333 38.1664 50.066 38.806 49.5409 39.3363C49.2887 39.5979 48.9851 39.8046 48.6493 39.9433C48.3134 40.0819 47.9525 40.1497 47.5892 40.1423C46.811 40.1423 46.1628 39.8719 45.6376 39.3363C45.3824 39.0852 45.1806 38.7849 45.0445 38.4537C44.9083 38.1224 44.8407 37.7671 44.8455 37.409Z" fill="#15468C"/>
</svg>
