<svg width="60" height="60" viewBox="0 0 60 60" fill="none" xmlns="http://www.w3.org/2000/svg">
<circle cx="30" cy="30" r="30" fill="#F1F1F1"/>
<path d="M20.4351 36.3754C20.1964 36.3768 20.002 36.1838 20.002 35.9451C20.0009 33.7552 19.9973 23.7949 20.0037 18.5157C20.0052 17.2222 20.5921 16.4011 21.709 16.0967C21.978 16.0232 22.2696 16.005 22.5507 16.0047C27.8257 15.9997 33.1006 15.9979 38.3759 16.0033C39.6333 16.0047 40.5504 16.642 40.8148 17.6964C40.8904 17.9979 40.9008 18.3212 40.9011 18.6348C40.9054 23.8434 40.904 33.6692 40.9036 35.8323C40.9036 36.0692 40.712 36.2616 40.4751 36.263L20.4351 36.3754ZM20.4737 37.8512C20.2357 37.8512 20.043 38.0443 20.0426 38.2819C20.0412 39.5997 20.0355 40.8914 20.0533 42.1827C20.0562 42.389 20.1747 42.6066 20.281 42.7961C20.7905 43.7042 21.5962 44.0325 22.6111 44.03C27.8374 44.0179 33.0635 44.0246 38.2899 44.0232C38.479 44.0232 38.6688 44.0143 38.8572 43.9975C39.8474 43.9097 40.7859 43.1258 40.8426 42.142C40.9158 40.8678 40.874 39.5872 40.8647 38.2783C40.8629 38.0418 40.6706 37.8509 40.434 37.8509H20.4737V37.8512ZM28.4965 40.9128C28.4979 39.843 29.3882 38.9624 30.4622 38.9684C31.5224 38.9745 32.3805 39.8216 32.4044 40.886C32.4283 41.9401 31.5313 42.8535 30.4655 42.8603C29.3978 42.8671 28.4951 41.974 28.4965 40.9128Z" fill="#3A3E44"/>
</svg>
