<?xml version="1.0" encoding="UTF-8"?>
<svg width="42px" height="42px" viewBox="0 0 42 42" version="1.1" xmlns="http://www.w3.org/2000/svg" xmlns:xlink="http://www.w3.org/1999/xlink">
    <!-- Generator: Sketch 56.2 (81672) - https://sketch.com -->
    <title>形状</title>
    <desc>Created with Sketch.</desc>
    <g id="最终稿" stroke="none" stroke-width="1" fill="none" fill-rule="evenodd">
        <g id="2.5关于我们_PC1440" transform="translate(-561.000000, -3359.000000)" fill="#303355" fill-rule="nonzero">
            <g id="编组-8" transform="translate(0.000000, 3309.000000)">
                <g id="编组-6" transform="translate(120.000000, 50.000000)">
                    <g id="编组-3" transform="translate(441.000000, 0.000000)">
                        <g id="电话">
                            <path d="M21.0000256,41.6444285 C9.61698892,41.6444285 0.355622671,32.3839646 0.355622671,21.0000256 C0.355622671,9.61698892 9.61698892,0.355622671 21.0000256,0.355622671 C32.3837068,0.355622671 41.6444285,9.61677407 41.6444285,21.0000256 C41.6444285,32.3837068 32.3837498,41.6444285 21.0000256,41.6444285 Z M21.0000256,0.971881201 C9.95622759,0.971881201 0.971881201,9.95627056 0.971881201,21.0000256 C0.971881201,32.0431791 9.95627056,41.02817 21.0000256,41.02817 C32.0431791,41.02817 41.02817,32.0431361 41.02817,21.0000256 C41.02817,9.95622759 32.0431361,0.971881201 21.0000256,0.971881201 Z M16.9504826,19.1087109 L16.9504837,19.1087125 C18.4953366,21.4838173 20.5208644,23.5087606 22.8964203,25.0528874 L22.8964219,25.0528862 C23.5862903,24.5088754 24.2685059,23.9552267 24.9428625,23.3921034 L24.9428626,23.3921034 C26.404137,24.2671115 27.9810103,24.9326509 29.6273212,25.369244 L27.8530191,29.627349 C27.756219,29.5987489 27.6596389,29.5697089 27.5634988,29.5400089 L27.5269787,29.627349 C20.2515875,27.4841082 14.5155105,21.7480312 12.3722697,14.4726399 L12.4596098,14.4361199 L12.4596096,14.4361193 C12.429809,14.3398516 12.4007028,14.2433699 12.3722697,14.1466819 L16.630399,12.3723776 L16.6303984,12.3723776 C17.0680657,14.022401 17.7356333,15.6026688 18.6134815,17.0667619 L18.6134833,17.0667599 C18.0498787,17.7397415 17.4955425,18.4204318 16.9506294,19.1086373 L16.9504826,19.1087109 Z" id="形状"></path>
                        </g>
                    </g>
                </g>
            </g>
        </g>
    </g>
</svg>