<?xml version="1.0" encoding="UTF-8"?>
<svg width="44px" height="42px" viewBox="0 0 44 42" version="1.1" xmlns="http://www.w3.org/2000/svg" xmlns:xlink="http://www.w3.org/1999/xlink">
    <!-- Generator: Sketch 56.2 (81672) - https://sketch.com -->
    <title>形状</title>
    <desc>Created with Sketch.</desc>
    <g id="首页新增广告位" stroke="none" stroke-width="1" fill="none" fill-rule="evenodd">
        <g id="1.官网主页_PC1440-02-新增广告" transform="translate(-625.000000, -2058.000000)" fill="#FAFAFA" fill-rule="nonzero">
            <g id="编组-11" transform="translate(0.000000, 1786.000000)">
                <g id="编组-9" transform="translate(164.000000, 100.000000)">
                    <g id="编组-17" transform="translate(40.000000, 137.000000)">
                        <g id="编组-8">
                            <g id="入金" transform="translate(421.000000, 35.000000)">
                                <path d="M21.1200246,41.8000486 C9.68001126,41.8000486 0.660000768,32.5600379 0.660000768,21.3400248 C0.660000768,10.1200118 9.90001152,0.880001024 21.1200246,0.880001024 C32.5600379,0.880001024 41.5800484,10.1200118 41.5800484,21.3400248 C41.5800484,21.5600251 41.3600481,22.0000256 40.9200476,22.0000256 C40.4800471,22.0000256 40.2600468,21.7800253 40.2600468,21.3400248 C40.2600468,10.5600123 31.4600366,1.9800023 20.9000243,1.9800023 C10.340012,1.9800023 1.54000179,10.7800125 1.54000179,21.3400248 C1.54000179,32.1200374 10.340012,40.7000474 20.9000243,40.7000474 C21.1200246,40.7000474 21.5600251,40.9200476 21.5600251,41.3600481 C21.5600251,41.8000486 21.3400248,41.8000486 21.1200246,41.8000486 Z M42.9000499,32.3400376 L23.1000269,32.3400376 C22.8800266,32.3400376 22.4400261,32.1200374 22.4400261,31.6800369 C22.4400261,31.2400364 22.6600264,31.0200361 23.1000269,31.0200361 L42.9000499,31.0200361 C43.1200502,31.0200361 43.5600507,31.2400364 43.5600507,31.6800369 C43.5600507,32.1200374 43.1200502,32.3400376 42.9000499,32.3400376 Z M29.0400338,38.2800445 C28.8200335,38.2800445 28.8200335,38.2800445 28.6000333,38.0600443 L22.6600264,32.1200374 C22.4400261,31.9000371 22.4400261,31.4600366 22.6600264,31.2400364 C22.8800266,31.0200361 23.3200271,31.0200361 23.5400274,31.2400364 L29.4800343,37.1800433 C29.7000346,37.4000435 29.7000346,37.840044 29.4800343,38.0600443 C29.260034,38.2800445 29.260034,38.2800445 29.0400338,38.2800445 Z M23.1000269,32.3400376 C22.8800266,32.3400376 22.8800266,32.3400376 22.6600264,32.1200374 C22.4400261,31.9000371 22.4400261,31.4600366 22.6600264,31.2400364 L28.380033,25.5200297 C28.6000333,25.3000294 29.0400338,25.3000294 29.260034,25.5200297 C29.4800343,25.74003 29.4800343,26.1800305 29.260034,26.4000307 L23.5400274,32.1200374 C23.3200271,32.3400376 23.1000269,32.3400376 23.1000269,32.3400376 Z M18.4800215,26.1800305 C17.16002,26.1800305 15.8400184,25.5200297 14.9600174,24.6400287 C13.8600161,23.7600276 13.2000154,22.4400261 13.2000154,20.9000243 C13.2000154,20.6800241 13.4200156,20.2400236 13.8600161,20.2400236 C14.3000166,20.2400236 14.5200169,20.4600238 14.5200169,20.9000243 C14.5200169,22.0000256 14.9600174,23.1000269 15.8400184,23.9800279 C16.7200195,24.8600289 17.8200207,25.3000294 18.7000154,25.3000294 C21.3400248,25.3000294 22.6600264,22.6600264 22.6600264,21.1200246 C22.6600264,20.0200233 22.4400261,19.800023 19.1400223,18.7000218 L18.4800215,18.2600212 C15.1800177,17.16002 13.2000154,16.2800189 13.2000154,13.8600161 C13.2000154,11.8800138 15.6200182,9.24001075 18.4800215,9.24001075 C20.9000243,9.24001075 23.5400274,11.0000128 23.5400274,13.8600161 C23.5400274,14.0800164 23.3200271,14.5200169 22.8800266,14.5200169 C22.4400261,14.5200169 22.2200259,14.3000166 22.2200259,13.8600161 C22.2200259,11.8800138 20.2400236,10.340012 18.2600212,10.340012 C15.8400184,10.340012 14.0800164,12.3200143 14.0800164,13.8600161 C14.0800164,15.1800177 14.9600174,15.8400184 18.4800215,17.16002 L19.1400223,17.3800202 C22.4400261,18.4800215 23.3200271,18.920022 23.3200271,20.9000243 C23.5400274,23.1000269 21.7800253,26.1800305 18.4800215,26.1800305 L18.4800215,26.1800305 Z M18.4800215,29.9200348 C18.2600212,29.9200348 17.8200207,29.7000346 17.8200207,29.260034 L17.8200207,5.94000691 C17.8200207,5.72000666 18.040021,5.28000614 18.4800215,5.28000614 C18.920022,5.28000614 19.1400223,5.5000064 19.1400223,5.94000691 L19.1400223,29.4800343 C18.920022,29.7000346 18.7000218,29.9200348 18.4800215,29.9200348 Z" id="形状"></path>
                            </g>
                        </g>
                    </g>
                </g>
            </g>
        </g>
    </g>
</svg>