<svg xmlns="http://www.w3.org/2000/svg" width="88" height="88" viewBox="0 0 88 88">
    <defs>
        <linearGradient id="ppn4xkh8wa" x1="50%" x2="50%" y1=".581%" y2="100%">
            <stop offset="0%" stop-color="#5CCCF8"/>
            <stop offset="100%" stop-color="#6435D1"/>
        </linearGradient>
    </defs>
    <g fill="none" fill-rule="evenodd">
        <g fill="url(#ppn4xkh8wa)" fill-rule="nonzero" transform="translate(-187 -1159)">
            <g>
                <g>
                    <path d="M44 0c24.3 0 44 19.7 44 44S68.3 88 44 88c-.755 0-1.505-.02-2.146-.052l-.105-.005C18.494 86.771 0 67.546 0 44S18.494 1.228 41.749.057C42.495.019 43.245 0 44 0zm15.947 27.76c-6.18 0-11.692 3.55-14.782 9.438-.752 1.42-.167 3.216 1.252 3.925 1.42.752 3.216.167 3.926-1.252 2.046-3.926 5.596-6.306 9.563-6.306 5.261 0 9.563 4.301 9.563 9.563 0 5.262-4.302 9.563-9.563 9.563-4.677 0-8.352-3.926-13.03-8.853-.793-.835-1.628-1.712-2.505-2.631-2.088-2.297-12.695-13.447-20.42-13.447-8.519 0-15.41 6.932-15.41 15.41 0 8.477 6.891 15.409 15.41 15.409 6.306 0 11.901-3.55 14.991-9.521.752-1.42.168-3.216-1.252-3.926-1.42-.751-3.216-.167-3.926 1.253-2.088 4.05-5.637 6.348-9.771 6.348-5.304 0-9.605-4.302-9.605-9.563 0-5.262 4.301-9.563 9.563-9.563 3.842 0 11.776 6.807 16.202 11.609l.084.083 2.464 2.59c5.178 5.512 10.106 10.69 17.288 10.69 8.477 0 15.41-6.89 15.41-15.41 0-8.518-6.933-15.409-15.452-15.409z" transform="translate(155 1112) translate(32 47)"/>
                </g>
            </g>
        </g>
    </g>
</svg>
