<?xml version="1.0" encoding="UTF-8"?>
<svg width="100px" height="100px" viewBox="0 0 100 100" version="1.1" xmlns="http://www.w3.org/2000/svg" xmlns:xlink="http://www.w3.org/1999/xlink">
    <!-- Generator: Sketch 64 (93537) - https://sketch.com -->
    <title>杠杆</title>
    <desc>Created with Sketch.</desc>
    <g id="Page-1" stroke="none" stroke-width="1" fill="none" fill-rule="evenodd">
        <g id="高杠杆-pc" transform="translate(-306.000000, -1098.000000)">
            <g id="分组-3" transform="translate(200.000000, 1048.000000)">
                <g id="编组-copy-2" transform="translate(106.000000, 50.000000)">
                    <g id="编组-copy">
                        <circle id="椭圆形" fill="#FFF6D6" cx="50" cy="50" r="50"></circle>
                        <path d="M68.8329775,33.7106949 L59.3487966,33.7106949 C58.2351514,28.7320458 54.3701475,26.25 49.7554348,26.25 C45.1334433,26.25 41.2684394,28.7320458 40.162073,33.7106949 L30.6560559,33.7106949 L22.7004076,53.603455 L28.0575505,53.603455 L32.3374418,42.9037267 L38.6117042,58.5748253 L20,58.5748253 L20,61.0641498 C20.0072787,67.9279891 25.5755047,73.4889363 32.4393439,73.4962151 C39.3031832,73.4889363 44.8641304,67.9279891 44.8714092,61.0641498 L44.8714092,60.5837539 L36.00592,38.6820652 L40.1547943,38.6820652 C41.2611607,43.6534356 45.1261646,46.1427601 49.7481561,46.1427601 C54.3701475,46.1427601 58.2351514,43.6534356 59.3415179,38.6820652 L63.1774068,38.6820652 L57.2088509,53.603455 L62.5659938,53.603455 L66.9987384,42.5179542 L73.425854,58.5748253 L54.8141498,58.5748253 L54.8141498,61.0641498 C54.8214286,67.9279891 60.3823758,73.4889363 67.2462151,73.4962151 C74.1100543,73.4889363 79.6710016,67.9279891 79.685559,61.0641498 L79.685559,60.5837539 L68.8329775,33.7106949 Z" id="路径" fill="#FFA704" fill-rule="nonzero"></path>
                    </g>
                </g>
            </g>
        </g>
    </g>
</svg>