<svg xmlns="http://www.w3.org/2000/svg" width="41" height="41" viewBox="0 0 41 41">
    <path fill="#1977EF" d="M40.583 11.17c.09-1.95-.181-3.9-.801-5.752-.996-2.362-2.996-4.156-5.452-4.89-1.603-.4-3.253-.575-4.904-.517H11.173C9.523-.047 7.872.127 6.27.527 3.813 1.262 1.814 3.057.818 5.42.2 7.271-.072 9.221.016 11.172v18.257c-.086 1.95.186 3.9.802 5.752.996 2.363 2.995 4.157 5.451 4.892 1.604.398 3.252.575 4.904.516h18.253c1.65.057 3.301-.116 4.904-.516 2.456-.735 4.456-2.529 5.452-4.892.618-1.852.89-3.802.801-5.752V11.17zM8.063 27.913H6.555v-9.014h1.508v9.013zm-.757-10.536c-.517-.004-.933-.427-.928-.944v-.003c.002-.517.424-.935.941-.933.518.003.935.425.933.942-.002.52-.425.94-.944.938h-.002zm9.061 10.762c-3.98 0-6.49-2.844-6.49-7.37 0-4.524 2.505-7.377 6.49-7.377 3.984 0 6.497 2.853 6.497 7.378s-2.503 7.37-6.498 7.37l.001-.001zm13.14 0c-2.988 0-5.09-1.649-5.239-4.113h1.359c.149 1.717 1.76 2.881 4.002 2.881 2.142 0 3.678-1.169 3.678-2.772 0-1.336-.925-2.129-3.044-2.663l-1.775-.458c-2.644-.674-3.822-1.793-3.822-3.678 0-2.31 2.079-3.953 4.89-3.953 2.79 0 4.818 1.648 4.905 3.913H33.1c-.125-1.613-1.556-2.686-3.585-2.686-1.979 0-3.445 1.1-3.445 2.672 0 1.228.887 1.952 2.988 2.486l1.548.4c2.87.724 4.08 1.825 4.08 3.813.005 2.514-2.02 4.158-5.18 4.158zm-13.14-13.493c-3.128 0-5.098 2.37-5.098 6.124 0 3.754 1.97 6.11 5.098 6.11 3.13 0 5.112-2.37 5.112-6.11 0-3.741-1.978-6.124-5.112-6.124z"/>
</svg>
