<svg xmlns="http://www.w3.org/2000/svg" width="187" height="96" viewBox="0 0 187 96">
    <g fill="none">
        <path fill="#FFF" stroke="#1977EF" d="M45.16 73.184L45.16 60.08 50.56 60.08 50.56 51.152 45.16 51.152 45.16 14.864 31.192 14.864 16 51.224 16 60.08 33.928 60.08 33.928 73.184z"/>
        <path fill="#652DFC" d="M33.2 78L34.83 89.407 44.607 88.593 33.2 78zM49.2 13.63L53.274 12 58.163 17.704 52.459 23.407 49.2 13.63z"/>
        <path fill="#1977EF" fill-opacity=".15" d="M53.16 80.184L53.16 67.08 58.56 67.08 58.56 58.152 53.16 58.152 53.16 21.864 39.192 21.864 24 58.224 24 67.08 41.928 67.08 41.928 80.184z"/>
        <path fill="#FFF" stroke="#1977EF" d="M65.112 74.264c5.04 0 8.94-1.524 11.7-4.572s4.14-7.092 4.14-12.132h0V31.136c0-5.328-1.32-9.516-3.96-12.564-2.64-3.048-6.6-4.572-11.88-4.572-5.28 0-9.252 1.524-11.916 4.572-2.664 3.048-3.996 7.236-3.996 12.564h0V57.56c0 5.088 1.368 9.144 4.104 12.168 2.736 3.024 6.672 4.536 11.808 4.536z"/>
        <path fill="#1977EF" fill-opacity=".15" d="M73.112 81.264c5.04 0 8.94-1.524 11.7-4.572s4.14-7.092 4.14-12.132V38.136c0-5.328-1.32-9.516-3.96-12.564-2.64-3.048-6.6-4.572-11.88-4.572-5.28 0-9.252 1.524-11.916 4.572-2.664 3.048-3.996 7.236-3.996 12.564V64.56c0 5.088 1.368 9.144 4.104 12.168 2.736 3.024 6.672 4.536 11.808 4.536z"/>
        <path fill="#FFF" stroke="#1977EF" d="M92.712 74.264c5.04 0 8.94-1.524 11.7-4.572s4.14-7.092 4.14-12.132h0V31.136c0-5.328-1.32-9.516-3.96-12.564-2.64-3.048-6.6-4.572-11.88-4.572-5.28 0-9.252 1.524-11.916 4.572-2.664 3.048-3.996 7.236-3.996 12.564h0V57.56c0 5.088 1.368 9.144 4.104 12.168 2.736 3.024 6.672 4.536 11.808 4.536z"/>
        <path fill="#1977EF" fill-opacity=".15" d="M100.712 81.264c5.04 0 8.94-1.524 11.7-4.572s4.14-7.092 4.14-12.132V38.136c0-5.328-1.32-9.516-3.96-12.564-2.64-3.048-6.6-4.572-11.88-4.572-5.28 0-9.252 1.524-11.916 4.572-2.664 3.048-3.996 7.236-3.996 12.564V64.56c0 5.088 1.368 9.144 4.104 12.168 2.736 3.024 6.672 4.536 11.808 4.536z"/>
        <path fill="#FFF" stroke="#1977EF" d="M122.112 74.264c5.04 0 8.94-1.524 11.7-4.572s4.14-7.092 4.14-12.132h0V31.136c0-5.328-1.32-9.516-3.96-12.564-2.64-3.048-6.6-4.572-11.88-4.572-5.28 0-9.252 1.524-11.916 4.572-2.664 3.048-3.996 7.236-3.996 12.564h0V57.56c0 5.088 1.368 9.144 4.104 12.168 2.736 3.024 6.672 4.536 11.808 4.536z"/>
        <path fill="#1977EF" fill-opacity=".15" d="M130.112 81.264c5.04 0 8.94-1.524 11.7-4.572s4.14-7.092 4.14-12.132V38.136c0-5.328-1.32-9.516-3.96-12.564-2.64-3.048-6.6-4.572-11.88-4.572-5.28 0-9.252 1.524-11.916 4.572-2.664 3.048-3.996 7.236-3.996 12.564V64.56c0 5.088 1.368 9.144 4.104 12.168 2.736 3.024 6.672 4.536 11.808 4.536z"/>
        <path fill="#FFF" stroke="#F7B82F" d="M154.45 31C142.592 31 133 40.614 133 52.45c0 11.836 9.592 21.45 21.45 21.45 11.836 0 21.45-9.614 21.45-21.45 0-11.836-9.614-21.45-21.45-21.45"/>
        <path fill="#F7B82F" fill-opacity=".3" d="M162.45 38C150.592 38 141 47.614 141 59.45c0 11.836 9.592 21.45 21.45 21.45 11.836 0 21.45-9.614 21.45-21.45 0-11.836-9.614-21.45-21.45-21.45"/>
        <path fill="#FFF" stroke="#1977EF" d="M33.928 51.152L25.144 51.152 33.928 26.888zM65.112 63.536c-2.4 0-3.6-2.088-3.6-6.264h0V31.424c0-1.968.204-3.576.612-4.824.408-1.248 1.404-1.872 2.988-1.872s2.58.636 2.988 1.908c.408 1.272.612 2.868.612 4.788h0v25.848c0 1.68-.228 3.144-.684 4.392-.456 1.248-1.428 1.872-2.916 1.872zM92.712 63.536c-2.4 0-3.6-2.088-3.6-6.264h0V31.424c0-1.968.204-3.576.612-4.824.408-1.248 1.404-1.872 2.988-1.872s2.58.636 2.988 1.908c.408 1.272.612 2.868.612 4.788h0v25.848c0 1.68-.228 3.144-.684 4.392-.456 1.248-1.428 1.872-2.916 1.872zM122.112 63.536c-2.4 0-3.6-2.088-3.6-6.264h0V31.424c0-1.968.204-3.576.612-4.824.408-1.248 1.404-1.872 2.988-1.872s2.58.636 2.988 1.908c.408 1.272.612 2.868.612 4.788h0v25.848c0 1.68-.228 3.144-.684 4.392-.456 1.248-1.428 1.872-2.916 1.872z"/>
        <path fill="#FFF" stroke="#F7B82F" d="M160.172 60.766c-1.122.836-2.486 1.452-4.114 1.584v2.64h-2.838v-2.684c-1.738-.198-2.97-.726-4.026-1.562-1.386-1.1-1.826-2.288-2.09-3.784l4.268-1.034c0 1.408 1.452 2.992 3.608 2.992 1.276 0 2.816-.638 2.794-2.31-.022-1.364-1.452-2.354-3.014-2.706-1.628-.374-4.884-1.474-5.808-2.464-.902-.99-1.166-2.398-1.166-4.026 0-1.408.616-2.816 1.65-3.674.99-.836 2.134-1.364 3.784-1.562V39.91h2.838v2.244c1.562.176 2.838.66 3.806 1.496 1.232 1.056 1.848 2.398 1.848 3.212l-4.246.99c0-1.056-1.584-2.354-2.64-2.354-1.386 0-2.486.396-2.486 2.134 0 1.254.946 1.65 2.596 2.178 2.772.88 4.862 2.024 5.83 3.014.968.99 1.452 2.244 1.452 3.762-.022 1.914-.726 3.168-2.046 4.18"/>
        <path fill="#FFF" stroke="#652DFC" d="M137.895 10.327l1.363 9.543 8.18-.682-9.543-8.86z"/>
        <path fill="#F7B82F" d="M186.881 22.889L181.993 18 180.2 31.526 186.881 22.889z"/>
        <path fill="#F56970" d="M174.089 84.296L175.719 95.704 185.496 94.889 174.089 84.296z"/>
        <path fill="#FFF" stroke="#F56970" d="M82.881 80.889L77.993 76 76.2 89.526 82.881 80.889z"/>
        <path fill="#F7B82F" d="M116.2 20.63L120.274 19 125.163 24.704 119.459 30.407 116.2 20.63z"/>
        <path fill="#F56970" d="M24.881 4.889L19.993 0 18.2 13.526 24.881 4.889z"/>
        <path fill="#F7B82F" d="M0.2 65.63L4.274 64 9.163 69.704 3.459 75.407 0.2 65.63z"/>
    </g>
</svg>
