<?xml version="1.0" encoding="UTF-8"?>
<svg width="12px" height="8px" viewBox="0 0 12 8" version="1.1" xmlns="http://www.w3.org/2000/svg" xmlns:xlink="http://www.w3.org/1999/xlink">
    <!-- Generator: Sketch 56.2 (81672) - https://sketch.com -->
    <title>路径</title>
    <desc>Created with Sketch.</desc>
    <g id="最终稿" stroke="none" stroke-width="1" fill="none" fill-rule="evenodd">
        <g id="设计规范" transform="translate(-1229.000000, -414.000000)" fill="#D00000" fill-rule="nonzero">
            <g id="编组-16" transform="translate(0.000000, 308.000000)">
                <g id="编组-2" transform="translate(1145.000000, 70.000000)">
                    <g id="编组" transform="translate(30.000000, 30.000000)">
                        <g id="选中">
                            <g id="选择" transform="translate(54.000000, 6.000000)">
                                <path d="M4.41914226,8.01914827 C4.24696814,8.01914827 4.1321854,7.96175689 3.96001129,7.84697415 L0.344354905,4.34610051 C0.114789421,4.11653503 0.114789421,3.71479543 0.344354905,3.48522995 C0.57392039,3.25566446 0.975659987,3.25566446 1.20522547,3.48522995 L4.36175088,6.58436399 L10.560019,0.558270019 C10.7895845,0.328704534 11.191324,0.328704534 11.4208895,0.558270019 C11.650455,0.787835503 11.650455,1.1895751 11.4208895,1.41914059 L4.87827322,7.84697415 C4.76349048,7.96175689 4.59131637,8.01914827 4.41914226,8.01914827 L4.41914226,8.01914827 Z" id="路径"></path>
                            </g>
                        </g>
                    </g>
                </g>
            </g>
        </g>
    </g>
</svg>