<svg width="68" height="68" viewBox="0 0 68 68" fill="none" xmlns="http://www.w3.org/2000/svg">
<path d="M61.0145 50.5099C59.4219 51.4709 57.2541 52.2333 54.5165 52.7916C51.7803 53.3521 48.8023 53.6353 45.5858 53.6353C42.3674 53.6353 39.3895 53.3521 36.6503 52.7916C33.914 52.2302 31.7465 51.4709 30.153 50.5099C28.5604 49.552 27.7624 48.5112 27.7624 47.3875V43.2415C29.6029 44.6068 32.1161 45.6393 35.3012 46.3403C38.4897 47.0377 41.9148 47.3875 45.5824 47.3875C49.2498 47.3875 52.6753 47.0381 55.8639 46.3403C59.0489 45.6393 61.5645 44.6068 63.404 43.2415V47.3875C63.404 48.5112 62.607 49.552 61.0145 50.5099ZM61.011 41.1416C59.4184 42.1013 57.2523 42.8634 54.5146 43.4238C51.7771 43.9839 48.8009 44.2657 45.5823 44.2657C42.3657 44.2657 39.3861 43.9839 36.6502 43.4238C33.9139 42.8602 31.7465 42.1013 30.1529 41.1416C28.5603 40.1821 27.7624 39.1416 27.7624 38.0194V33.8716C29.6028 35.2373 32.116 36.2728 35.3011 36.969C38.4897 37.67 41.9147 38.0194 45.5823 38.0194C49.2498 38.0194 52.6752 37.67 55.8603 36.969C59.0454 36.2714 61.5627 35.2373 63.4021 33.8716V38.0194C63.4022 39.1416 62.6035 40.1821 61.011 41.1416ZM61.011 31.7735C59.4184 32.7313 57.2523 33.4937 54.5146 34.0538C51.7771 34.6157 48.8009 34.8957 45.5823 34.8957C42.3657 34.8957 39.3861 34.6173 36.6485 34.0572C33.9109 33.4969 31.7441 32.7382 30.1505 31.7758C28.5573 30.8166 27.7599 29.7758 27.7599 28.6529V25.53C27.7599 24.4073 28.5573 23.3659 30.1505 22.4069C31.7441 21.4477 33.9109 20.6876 36.6485 20.1258C39.3861 19.5657 42.3658 19.2839 45.5823 19.2839C48.8009 19.2839 51.7771 19.5657 54.5146 20.1258C57.2523 20.6876 59.4184 21.4473 61.011 22.4069C62.6035 23.3658 63.4022 24.4073 63.4022 25.53V28.6504C63.4022 29.7735 62.6035 30.8142 61.011 31.7735ZM24.4781 24.7277C20.8486 24.7098 17.4715 24.4063 14.3682 23.7875C11.1754 23.1511 8.64743 22.2886 6.78903 21.1956C4.92962 20.1051 4 18.9228 4 17.6466V14.0978C4 12.8219 4.92962 11.6385 6.78908 10.5488C8.64749 9.45937 11.1755 8.59603 14.3682 7.95621C17.564 7.31982 21.0385 7 24.792 7C28.5463 7 32.0201 7.31982 35.2134 7.95621C38.4069 8.59603 40.9355 9.45937 42.7933 10.5488C44.651 11.6385 45.5824 12.8219 45.5824 14.0978V15.4849L38.8419 16.0578C33.5408 16.0578 24.2312 19.2912 24.4781 24.7277ZM24.3835 28.2803V35.3698C20.7916 35.3467 17.4431 35.0448 14.3716 34.4317C11.1789 33.7921 8.65021 32.9285 6.79145 31.8391C4.93305 30.7486 4.00237 29.5663 4.00237 28.29V23.5769C6.14914 25.1297 9.0809 26.3055 12.7981 27.0977C16.3975 27.8666 20.2623 28.2555 24.3835 28.2803ZM24.3835 38.9275V46.017C20.7923 45.9939 17.4456 45.689 14.3716 45.0775C11.1789 44.4376 8.65021 43.5761 6.79145 42.4839C4.93305 41.3951 4.00237 40.2138 4.00237 38.9375V34.2231C6.14914 35.7756 9.0809 36.949 12.7981 37.7459C16.3975 38.5135 20.2623 38.9027 24.3835 38.9275ZM24.3835 49.5703V56.2122C24.3835 56.3663 24.4219 56.5089 24.4291 56.6614C20.8189 56.6415 17.4573 56.34 14.3716 55.7232C11.1789 55.0851 8.65021 54.2218 6.79145 53.1314C4.93305 52.0409 4.00237 50.8596 4.00237 49.5816V44.8702C6.1495 46.423 9.08114 47.593 12.7981 48.3886C16.3975 49.1559 20.2623 49.5453 24.3835 49.5703ZM45.5823 56.754C49.2498 56.754 52.6752 56.4046 55.8603 55.705C59.0454 55.0058 61.5627 53.9733 63.4021 52.6079V56.754C63.4021 57.8776 62.6035 58.9184 61.0109 59.8763C59.4183 60.8359 57.2522 61.5963 54.5146 62.1581C51.7771 62.7182 48.8008 63 45.5822 63C42.3657 63 39.3861 62.7216 36.6502 62.1615C33.9138 61.5998 31.7464 60.839 30.1528 59.8798C28.5603 58.9201 27.7623 57.8794 27.7623 56.7558V52.6097C29.6028 53.9767 32.116 55.0058 35.301 55.705C38.4897 56.4046 41.9151 56.754 45.5823 56.754Z" fill="#15468C"/>
</svg>
