<?xml version="1.0" encoding="UTF-8"?>
<svg width="109px" height="119px" viewBox="0 0 109 119" version="1.1" xmlns="http://www.w3.org/2000/svg" xmlns:xlink="http://www.w3.org/1999/xlink">
    <!-- Generator: Sketch 56.2 (81672) - https://sketch.com -->
    <title>形状</title>
    <desc>Created with Sketch.</desc>
    <g id="首页新增广告位" stroke="none" stroke-width="1" fill="none" fill-rule="evenodd">
        <g id="1.官网主页_PC1440-02-新增广告" transform="translate(-267.000000, -3107.000000)" fill="#CBCDDB" fill-rule="nonzero">
            <g id="例子" transform="translate(267.000000, 3107.000000)">
                <path d="M56.9307191,33.031104 C60.1944375,32.9757372 63.2942871,31.5942651 65.5747933,29.1905038 C67.8416437,26.7867425 69.0979704,23.5402833 69.0433475,20.1833062 C68.9750689,16.4257023 67.4046605,12.8615045 64.6735154,10.3472254 C65.0012528,11.1761087 65.1378101,12.0740655 65.0558757,12.9582076 C65.0558757,17.5723241 61.4234528,21.3161133 56.9307191,21.3161133 C52.4379855,21.3161133 48.8055625,17.5723241 48.8055625,12.9582076 C48.7099724,12.3089157 48.8465297,11.6458091 49.1879228,11.0794056 C46.7162365,13.5936847 45.2960411,16.9921059 45.200451,20.5701184 C45.0912052,23.8442071 46.2792533,27.0215928 48.4914808,29.3700952 C50.7037083,31.7324124 53.7489351,33.0448108 56.9307191,33.031104 L56.9307191,33.031104 Z M56.5483588,16.7158497 C61.013781,16.6743673 64.6325482,12.9582076 64.6735154,8.35790573 C64.6735154,3.74378918 61.0410925,0 56.5483588,0 C52.0556252,0 48.4232022,3.74378918 48.4232022,8.35790573 C48.4641694,12.9996517 52.1512152,16.7296262 56.6576046,16.7158497 L56.5483588,16.7158497 Z M0,92.9592524 L19.5003758,100.764569 C18.052869,97.4075923 11.9077925,47.3154168 11.9077925,47.3154168 L0,92.9592524 Z M78.8208469,119 L79.9269607,99.4798003 L36.4744425,103.776178 L78.8208469,119 Z M91.6845402,11.4800325 L70.7366575,14.8508242 C71.8700827,17.2960297 72.4982461,19.948456 72.552869,22.6561412 C72.552869,28.4859531 69.5349536,33.873694 64.6188925,36.7886 C59.7164871,39.7035059 53.6670008,39.7035059 48.7509396,36.7886 C43.8348785,33.873694 40.8306189,28.4859531 40.8306189,22.6561412 C40.775996,21.5233341 40.8988975,20.390527 41.2129792,19.2991642 L15.7450514,23.4435802 C16.8511651,49.2494776 27.8576798,100.667866 27.8576798,100.667866 L109,86.3420014 C103.073415,79.8628976 91.6981959,11.3418853 91.6981959,11.3418853 L91.6981959,11.4800325 L91.6845402,11.4800325 Z M30.8892508,52.3163455 L65.04222,47.0805665 L66.1483338,50.9901323 L31.9953646,56.3364291 L30.8892508,52.3163455 Z M38.290654,82.2252148 L37.1845402,77.7354307 L79.6948133,71.2563269 L80.8009271,75.746111 L38.290654,82.2252148 Z M35.7506891,69.377525 L34.1529692,64.929185 L88.6529692,57.3172742 L90.4691807,61.8070583 L35.7097219,69.377525 L35.7506891,69.377525 L35.7506891,69.377525 Z" id="形状"></path>
            </g>
        </g>
    </g>
</svg>