<?xml version="1.0" encoding="UTF-8"?>
<svg width="44px" height="44px" viewBox="0 0 44 44" version="1.1" xmlns="http://www.w3.org/2000/svg" xmlns:xlink="http://www.w3.org/1999/xlink">
    <!-- Generator: Sketch 56.2 (81672) - https://sketch.com -->
    <title>形状</title>
    <desc>Created with Sketch.</desc>
    <g id="最终稿" stroke="none" stroke-width="1" fill="none" fill-rule="evenodd">
        <g id="2.5关于我们_PC1440" transform="translate(-918.000000, -3359.000000)" fill="#303355" fill-rule="nonzero">
            <g id="编组-8" transform="translate(0.000000, 3309.000000)">
                <g id="编组-6" transform="translate(120.000000, 50.000000)">
                    <g id="编组-5" transform="translate(798.000000, 0.000000)">
                        <g id="email">
                            <path d="M22.0000256,44.0000512 L22.0000246,44.0000512 C9.84973706,44.0000512 -9.61650337e-07,34.1503132 -9.61650337e-07,22.0000256 C-9.61650337e-07,9.84973802 9.84973706,-1.9539948e-14 22.0000246,-1.9539948e-14 C34.1503122,-1.9539948e-14 44.0000502,9.84973802 44.0000502,22.0000256 L44.0000502,22.0000256 C44.0000502,34.1503132 34.1503122,44.0000512 22.0000246,44.0000512 C22.0000246,44.0000512 22.0000246,44.0000512 22.0000246,44.0000512 L22.0000256,44.0000512 Z M22.0000256,0.879985598 L22.0000247,0.879985598 C10.3357572,0.879985598 0.880000101,10.3357581 0.880000101,22.0000256 C0.880000101,33.6642931 10.3357572,43.1200502 22.0000247,43.1200502 C33.6642922,43.1200502 43.1200502,33.6642931 43.1200502,22.0000256 L43.1200502,21.9938656 C43.1200502,10.3329927 33.6670431,0.879985598 22.0061701,0.879985598 C22.0020632,0.879985598 21.9979562,0.879985598 21.9938492,0.879985598 L22.0000256,0.879985598 Z M30.8000358,29.9200365 L13.2000154,29.9200365 L13.2000153,29.9200365 C12.2291954,29.9171354 11.4429137,29.1308526 11.4400133,28.1600328 L11.4400133,15.8400184 L11.4400133,15.8400182 C11.4400133,14.8679952 12.2279923,14.0800161 13.2000153,14.0800161 L30.8000358,14.0800161 L30.8000357,14.0800161 C31.7720587,14.0800161 32.5600378,14.8679952 32.5600378,15.8400182 C32.5600378,15.8400182 32.5600378,15.8400182 32.5600378,15.8400182 L32.5600378,28.1600325 L32.5600378,28.1600387 C32.5571349,29.1308586 31.770847,29.9171404 30.8000314,29.9200365 L30.8000358,29.9200365 Z M29.4800343,17.6000205 L22.0704085,22.0616429 L14.449591,17.6616377 L14.0095905,18.4184386 L21.630408,22.8184437 L22.0000084,22.8800438 L22.4400089,22.8800438 L29.911209,18.38323 L29.4800343,17.6000205 Z" id="形状"></path>
                        </g>
                    </g>
                </g>
            </g>
        </g>
    </g>
</svg>