<svg width="50" height="50" viewBox="0 0 50 50" fill="none" xmlns="http://www.w3.org/2000/svg">
<circle cx="25" cy="25" r="25" fill="#D72E29"/>
<path d="M23.6661 31.5152C23.2085 33.9278 22.6891 35.9013 22.1084 37.4363C21.5277 38.9714 20.6559 40.1595 19.494 41C19.3531 40.1595 19.3005 39.2365 19.3357 38.2312C19.3701 37.2259 19.4227 36.3583 19.494 35.6272C19.5645 34.896 19.6963 34.0736 19.8903 33.16C20.083 32.2464 20.2679 31.4601 20.4449 30.8021C20.6207 30.1446 20.8225 29.3678 21.0522 28.4723C21.281 27.5772 21.4481 26.8194 21.5538 26.1971C21.2014 25.5034 21.0257 24.6986 21.0257 23.7845C21.0257 22.8718 21.1753 22.03 21.4746 21.2627C21.773 20.495 22.2485 19.9111 22.9001 19.5082C23.5517 19.1063 24.2643 19.0512 25.039 19.3438C25.7785 19.6731 26.1831 20.2398 26.2535 21.0433C26.324 21.8476 26.2009 22.7345 25.8838 23.7023C25.5671 24.6711 25.2678 25.6307 24.9864 26.5809C24.7041 27.532 24.6693 28.3716 24.8807 29.1027C25.0916 29.8334 25.655 30.2905 26.5707 30.4729C27.8026 30.729 28.9027 30.3636 29.871 29.3764C30.8393 28.3896 31.5084 27.1752 31.8777 25.7305C32.2474 24.2867 32.344 22.7792 32.1683 21.2076C31.9921 19.6369 31.4992 18.4307 30.6897 17.5893C29.8097 16.6391 28.7535 16.0186 27.5216 15.7255C26.2892 15.4333 25.0921 15.4789 23.9302 15.8628C22.7687 16.2467 21.7034 16.8315 20.7355 17.6173C19.7663 18.404 19.0368 19.4179 18.544 20.6598C18.0503 21.9022 17.9102 23.2006 18.1216 24.5523C18.1921 24.9176 18.333 25.2925 18.544 25.6763C18.7554 26.0602 18.9403 26.3809 19.0986 26.636C19.257 26.8916 19.3274 27.248 19.3096 27.705C19.2913 28.1625 19.1247 28.6642 18.808 29.2125C16.1676 28.5915 14.9004 26.4531 15.0061 22.7982C15.1118 20.2033 16.0701 18.0102 17.8841 16.2196C19.6972 14.4294 21.783 13.3875 24.142 13.0944C27.0992 12.7656 29.7044 13.2954 31.9573 14.6846C34.2106 16.0742 35.5134 18.1204 35.8649 20.8251C36.1464 22.9084 35.988 24.9366 35.3895 26.9106C34.7913 28.8841 33.77 30.4833 32.3266 31.7076C30.8837 32.9324 29.1937 33.4712 27.2575 33.3253C26.8699 33.2887 26.5093 33.2061 26.1752 33.0783C25.8403 32.9505 25.568 32.8227 25.3566 32.6944C25.1456 32.5666 24.8628 32.3747 24.5118 32.119C24.159 31.863 23.8776 31.6616 23.6661 31.5152Z" fill="white"/>
</svg>
