<svg width="68" height="68" viewBox="0 0 68 68" fill="none" xmlns="http://www.w3.org/2000/svg">
<path d="M63.6934 52.9002C63.8696 53.5616 63.9963 54.2355 64.0725 54.9162C64.1711 55.7123 64.2206 56.5138 64.2205 57.3162C64.2248 58.0806 64.1674 58.8441 64.0487 59.5991C63.9795 60.1663 63.7971 60.7134 63.5127 61.2071C63.3557 61.441 62.8967 61.6751 62.1237 61.924C61.1883 62.197 60.2379 62.4144 59.2775 62.575C58.1402 62.776 56.8845 62.959 55.5162 63.142C54.1479 63.325 52.7677 63.466 51.3698 63.583C49.9719 63.6999 48.6392 63.802 47.3478 63.883C46.0565 63.964 44.9193 64 43.942 64C42.9646 64 41.8451 63.958 40.5686 63.883C39.2921 63.808 37.9771 63.7 36.6118 63.583C35.2465 63.466 33.89 63.334 32.5572 63.199C31.2244 63.0641 30.0072 62.899 28.8877 62.731C27.7682 62.5631 26.8382 62.374 26.0741 62.1971C25.569 62.1138 25.0819 61.9423 24.6348 61.6901C24.3208 61.4141 24.0651 60.5831 23.8677 59.1971C23.6873 57.4142 23.748 55.6146 24.0483 53.8482C24.1011 53.2968 24.2606 52.7613 24.5177 52.2723C24.7749 51.7833 25.1246 51.3504 25.547 50.9983C26.409 50.3308 27.3708 49.8072 28.3961 49.4473C29.4889 49.0543 30.6174 48.7063 31.7695 48.4154C32.8639 48.1432 33.9066 47.6901 34.8555 47.0744C35.438 46.6991 35.9782 46.2606 36.4667 45.7665C36.8022 45.42 37.0803 45.0209 37.29 44.5844C37.463 44.1906 37.5528 43.7645 37.5536 43.3335C37.5536 42.9015 37.5299 42.3975 37.4973 41.8335C37.4549 41.1284 37.1625 40.4626 36.674 39.9586C36.1929 39.4811 35.6814 39.0361 35.1428 38.6266C34.835 38.3434 34.5863 38.0007 34.4113 37.6187C34.2008 37.1936 34.0139 36.7569 33.8515 36.3107C33.6935 35.8367 33.5395 35.3037 33.3895 34.7116C33.1426 34.623 32.9077 34.503 32.6905 34.3547C32.4519 34.1472 32.2444 33.9057 32.0745 33.6377C31.8087 33.2337 31.6013 32.7932 31.4584 32.3297C31.2662 31.8287 31.1843 31.2912 31.2186 30.7547C31.2413 30.3336 31.3418 29.9205 31.5148 29.5368C31.6687 29.1479 31.886 28.788 32.1574 28.4718C32.1247 27.182 32.1861 25.8915 32.341 24.6109C32.5117 23.4384 32.756 22.278 33.0726 21.137C33.4023 19.9429 33.9311 18.8146 34.6363 17.8011C35.2052 16.9123 35.9205 16.1289 36.751 15.4852C38.1692 14.3736 39.8459 13.6504 41.6199 13.3852C42.3968 13.2708 43.1806 13.2117 43.9656 13.2082C45.8228 13.1753 47.6595 13.6049 49.3144 14.4592C50.6375 15.101 51.8161 16.0119 52.7766 17.1351C53.6319 18.2018 54.2792 19.4235 54.684 20.735C55.0725 21.949 55.3812 23.1876 55.608 24.4429C55.8017 25.7805 55.881 27.1325 55.8449 28.4838C56.0517 28.6684 56.2242 28.8888 56.3543 29.1348C56.489 29.4362 56.5961 29.7495 56.6742 30.0708C56.7764 30.5331 56.7874 31.0112 56.7068 31.4778C56.6561 32.0744 56.4964 32.6562 56.2359 33.1937C56.0485 33.5621 55.8102 33.9016 55.5281 34.2017C55.2794 34.4708 54.958 34.6596 54.604 34.7447C54.446 35.3447 54.292 35.8777 54.1419 36.3437C53.9782 36.7946 53.7801 37.2318 53.5496 37.6516C53.367 38.0157 53.1083 38.3351 52.7914 38.5876C52.4775 38.8636 52.1991 39.1036 51.9355 39.2956C51.6941 39.4759 51.4682 39.6767 51.2602 39.8956C51.0604 40.1167 50.8938 40.3664 50.7657 40.6366C50.6134 40.9599 50.503 41.3017 50.4369 41.6535C50.3536 42.1741 50.3199 42.7015 50.3362 43.2285C50.3535 43.7716 50.4826 44.3049 50.7153 44.7944C50.9915 45.3681 51.3805 45.8785 51.8585 46.2944C52.5116 46.8434 53.2598 47.2646 54.0649 47.5364C54.9468 47.9196 55.8568 48.2325 56.7867 48.4724C57.7626 48.7304 58.7236 49.0429 59.6655 49.4084C60.5467 49.7458 61.3771 50.2062 62.1326 50.7763C62.8478 51.3197 63.3887 52.0648 63.6875 52.9183L63.6934 52.9002ZM32.4061 41.9685C32.3516 42.3163 32.2521 42.6552 32.1099 42.9765C31.9084 43.3041 31.6242 43.5713 31.2866 43.7505C30.2558 44.3922 29.1545 44.9097 28.0051 45.2924C26.8204 45.6915 25.692 46.1264 24.6228 46.6004C23.5846 47.0552 22.6325 47.6897 21.8093 48.4754C20.955 49.3644 20.4263 50.5223 20.3106 51.7573C20.2383 52.1822 20.1889 52.6109 20.1625 53.0413C20.1625 53.4582 20.1122 53.8393 20.0796 54.1992C20.0418 54.2704 20.0003 54.3395 19.9553 54.4062C19.9226 54.4632 19.8812 54.5322 19.8398 54.6132C18.3086 54.4902 16.7715 54.3552 15.2136 54.1962C13.6557 54.0372 12.2105 53.8543 10.9044 53.6623C9.59824 53.4702 8.48464 53.2632 7.58726 53.0623C6.98561 52.98 6.40645 52.7759 5.88426 52.4623C5.53085 52.1903 5.2663 51.3613 5.0906 49.9754C4.92101 48.1742 4.98972 46.3582 5.29492 44.5755C5.42066 43.4828 5.94966 42.4786 6.77579 41.7645C7.62246 41.0819 8.58076 40.5549 9.60715 40.2076C10.7 39.8326 11.8195 39.4816 12.9805 39.1666C14.0718 38.884 15.1172 38.4435 16.0844 37.8586C16.667 37.4832 17.2099 37.0479 17.7043 36.5596C18.0447 36.2082 18.3134 35.7923 18.4951 35.3357C18.6487 34.9286 18.727 34.4964 18.7261 34.0607C18.7339 33.591 18.7151 33.1213 18.6699 32.6538C18.6353 31.9533 18.3548 31.2884 17.8791 30.7788C17.4104 30.2836 16.9161 29.8139 16.3982 29.3718C16.0558 29.1382 15.7824 28.8147 15.6075 28.4358C15.3969 28.0108 15.2101 27.5741 15.0477 27.1279C14.8898 26.6539 14.7358 26.1209 14.5857 25.5289C14.3381 25.4409 14.1023 25.322 13.8838 25.1749C13.6473 24.9654 13.44 24.7241 13.2677 24.4579C13.002 24.0427 12.789 23.5952 12.634 23.126C12.4492 22.6262 12.3705 22.0926 12.403 21.56C12.4261 21.1176 12.5263 20.6829 12.6992 20.276C12.8291 19.8779 13.0434 19.5134 13.327 19.208C13.2876 17.9194 13.346 16.6297 13.5017 15.3502C13.6778 14.1837 13.9331 13.031 14.2659 11.9002C14.6027 10.7082 15.1397 9.58377 15.8533 8.57632C16.4226 7.68776 17.1378 6.90446 17.968 6.26035C18.6977 5.69451 19.4935 5.22196 20.3374 4.8534C21.118 4.52895 21.9344 4.30132 22.7689 4.17547C23.5685 4.06053 24.375 4.00236 25.1826 4.00139C27.0199 3.97225 28.8358 4.40296 30.4692 5.25529C31.8068 5.90446 33.0054 6.81369 33.9966 7.93127C34.4425 8.48177 34.7704 9.12034 34.9592 9.80626C35.1216 10.4769 35.3083 11.1414 35.5189 11.7982C34.649 12.3343 33.8524 12.9838 33.1496 13.7301C32.3495 14.5288 31.6108 15.3883 30.9402 16.3011C30.1544 17.4207 29.5597 18.6659 29.1809 19.985C28.8164 21.2173 28.5198 22.4692 28.2924 23.7349C28.0995 25.1123 28.0005 26.5016 27.9962 27.8928C27.6893 28.2384 27.4492 28.6393 27.2884 29.0747C26.9064 30.0857 26.8865 31.2004 27.2321 32.2247C27.3725 32.7672 27.589 33.2864 27.8748 33.7666C28.0707 34.0652 28.2938 34.3444 28.5412 34.6007C28.7366 34.8121 28.9794 34.9726 29.249 35.0687C29.406 35.7016 29.563 36.3016 29.7111 36.8686C29.868 37.3366 30.0487 37.8046 30.2619 38.3266C30.4354 38.7535 30.7101 39.1306 31.0616 39.4245C31.3341 39.6585 31.5236 39.8595 31.7043 40.0245C31.8438 40.162 31.9734 40.3094 32.0922 40.4655C32.1988 40.6354 32.2582 40.8313 32.2641 41.0325C32.2925 41.3475 32.342 41.6602 32.4121 41.9685L32.4061 41.9685Z" fill="#15468C"/>
</svg>
