<?xml version="1.0" encoding="UTF-8"?>
<svg width="100px" height="100px" viewBox="0 0 100 100" version="1.1" xmlns="http://www.w3.org/2000/svg" xmlns:xlink="http://www.w3.org/1999/xlink">
    <!-- Generator: Sketch 64 (93537) - https://sketch.com -->
    <title>入金</title>
    <desc>Created with Sketch.</desc>
    <g id="Page-1" stroke="none" stroke-width="1" fill="none" fill-rule="evenodd">
        <g id="高杠杆-pc" transform="translate(-670.000000, -1098.000000)">
            <g id="分组-3-copy" transform="translate(564.000000, 1048.000000)">
                <g id="编组-copy-3" transform="translate(106.000000, 50.000000)">
                    <g id="编组-copy">
                        <circle id="椭圆形" fill="#FFF6D6" cx="50" cy="50" r="50"></circle>
                        <path d="M70.9983639,40.0356721 C71.7924014,40.0356721 72.5515361,40.358083 73.1187057,40.9157665 C73.6858753,41.4734501 74,42.240265 74,43.0332214 L74,43.0332214 L74,49.0196061 L63.5029995,49.0196061 C59.3582985,49.0196061 55.9989093,52.3744213 55.9989093,56.5134792 C55.9989093,60.652537 59.3582985,64.0073523 63.5029995,64.0073523 L63.5029995,64.0073523 L74,64.0073523 L74,70.0024508 C74,70.7954071 73.6858753,71.562222 73.1187057,72.1199056 C72.5602618,72.686303 71.7924014,73 70.9983639,73 L70.9983639,73 L29.0016361,73 C28.2075986,73 27.4397382,72.6775892 26.8812943,72.1199056 C26.3141247,71.562222 26,70.7954071 26,70.0024508 L26,70.0024508 L26,43.0332214 C26,41.3775983 27.3437557,40.0356721 29.0016361,40.0356721 L29.0016361,40.0356721 Z M66.5046355,52.0258691 C68.9914561,52.0258691 71.0070896,54.0387583 71.0070896,56.522193 C71.0070896,59.0056277 68.9914561,61.0185168 66.5046355,61.0185168 C64.0178149,61.0185168 62.0021814,59.0056277 62.0021814,56.522193 C62.0021814,54.0387583 64.0178149,52.0258691 66.5046355,52.0258691 Z M49.5506272,25.9018789 C50.7634975,24.6993737 52.7180513,24.6993737 53.9309217,25.9018789 L53.9309217,25.9018789 L65.0910744,37.0468367 L38.3904745,37.0468367 Z" id="形状结合" fill="#FFA704"></path>
                    </g>
                </g>
            </g>
        </g>
    </g>
</svg>