<?xml version="1.0" encoding="UTF-8"?>
<svg width="40px" height="40px" viewBox="0 0 40 40" version="1.1" xmlns="http://www.w3.org/2000/svg" xmlns:xlink="http://www.w3.org/1999/xlink">
    <!-- Generator: Sketch 56.2 (81672) - https://sketch.com -->
    <title>形状结合</title>
    <desc>Created with Sketch.</desc>
    <g id="最终稿" stroke="none" stroke-width="1" fill="none" fill-rule="evenodd">
        <g id="2.9条款和条件_PC1440" transform="translate(-610.000000, -353.000000)" fill="#D00000" fill-rule="nonzero">
            <g id="编组-18" transform="translate(0.000000, 106.000000)">
                <g id="编组-17" transform="translate(120.000000, 227.000000)">
                    <g id="编组">
                        <g id="PDF" transform="translate(490.000000, 20.000000)">
                            <path d="M39.7745424,10.7682391 L39.7991205,10.7682391 L39.7991205,39.8180268 L4.40584888,39.8180268 L4.40584888,37.6303133 L25.4227483,37.6303133 L25.4227483,37.6294539 L37.5727781,37.6294539 L37.5727781,12.9568549 L27.5328172,12.9568549 L27.5328172,2.23179947 L6.5998358,2.23179947 L6.5998358,16.0699015 L4.40584888,16.0699015 L4.40584888,-1.98951966e-13 L29.7268471,-1.98951966e-13 L39.7745424,10.7682391 Z M16.3368237,23.4911719 C16.7921211,23.6678166 17.1790981,24.0169811 17.4963797,24.5368606 C17.8151653,25.0577284 17.9744076,25.8025925 17.9744076,26.7722265 C17.9744076,27.4716726 17.8934974,28.0671772 17.7315909,28.5580528 C17.5683525,29.0497447 17.3420358,29.4404171 17.0512659,29.7312299 C16.8452735,29.9373942 16.5682107,30.0981405 16.2192181,30.2118789 C15.8728896,30.3258322 15.3923695,30.3826799 14.781482,30.3826799 L12.802511,30.3826799 L12.802511,23.3012498 L14.749814,23.3012498 C15.4794243,23.3012498 16.0081124,23.3644139 16.3368237,23.4911719 Z M30.1825742,18.486166 L30.1825742,35.1979355 L-4.74287276e-13,35.1979355 L-4.74287276e-13,18.4857364 L30.1825742,18.486166 Z M9.26196781,26.8887149 C9.76392933,26.3436557 10.0143515,25.6760924 10.0143515,24.8885172 C10.0143515,24.4293097 9.92080842,24.0070123 9.73247617,23.6237306 C9.54517517,23.2405349 9.2973741,22.9421165 8.99001827,22.7285616 C8.68274838,22.5161239 8.30079872,22.3720065 7.84575913,22.2960806 C7.52061422,22.2365688 7.05148086,22.2075219 6.4358239,22.2075219 L2.93945264,22.2075219 L2.93945264,31.4761499 L4.16578219,31.4761499 L4.16578219,27.7081299 L6.54320293,27.7081299 C7.85439586,27.7081299 8.75979144,27.4349343 9.26196781,26.8887149 Z M18.9922096,28.6628107 C19.1566942,28.1189976 19.2389794,27.4956922 19.2389794,26.7912616 C19.2389794,25.9655302 19.1174207,25.2307208 18.874604,24.587263 C18.6330764,23.9449224 18.2675838,23.4177812 17.7782551,23.0041635 C17.4027937,22.6842608 16.9501603,22.4629285 16.4191089,22.3403385 C16.0397374,22.2517368 15.4896079,22.207479 14.7689352,22.207479 L11.5759666,22.207479 L11.5759666,31.4762358 L14.920572,31.4762358 C15.4807133,31.4762358 15.9776905,31.4232553 16.4088394,31.3181966 C16.8414063,31.2133957 17.2105513,31.0577627 17.5165751,30.8542195 C17.8214387,30.6493872 18.103314,30.368758 18.3600526,30.0122029 C18.6168342,29.656765 18.8279399,29.2066668 18.9922096,28.6628107 Z M27.2433364,23.3012498 L27.2433364,23.3012068 L27.2433364,22.207436 L20.9902588,22.207436 L20.9902588,31.4761929 L22.2168032,31.4761929 L22.2168032,27.2656802 L26.5666637,27.2656802 L26.5666637,26.1716945 L22.2168462,26.1716945 L22.2168462,23.3012498 L27.2433364,23.3012498 Z M7.68123159,23.3837069 C8.00113431,23.4718359 8.26045102,23.6541096 8.45505671,23.9297114 C8.65236944,24.2066454 8.74982268,24.5380207 8.74982268,24.926029 C8.74982268,25.4612054 8.58293186,25.8772293 8.25026741,26.1716945 C7.91781781,26.4666753 7.3550984,26.6142302 6.56206623,26.6142302 L4.16578219,26.6142302 L4.16578219,23.3012498 L6.53692948,23.3012498 C7.09337544,23.3012498 7.47506729,23.3292654 7.68123159,23.3837069 Z" id="形状结合"></path>
                        </g>
                    </g>
                </g>
            </g>
        </g>
    </g>
</svg>