<svg xmlns="http://www.w3.org/2000/svg" width="88" height="88" viewBox="0 0 88 88">
    <defs>
        <linearGradient id="jy4wpxvwfa" x1="50%" x2="50%" y1="100%" y2="0%">
            <stop offset="0%" stop-color="#D90707"/>
            <stop offset="100%" stop-color="#FF8A78"/>
        </linearGradient>
    </defs>
    <g fill="none" fill-rule="evenodd">
        <g fill="url(#jy4wpxvwfa)" fill-rule="nonzero" transform="translate(-187 -928)">
            <g>
                <g>
                    <path d="M44 5.282c3.139 0 6.874-5.908 9.797-5.227 3.022.7 3.882 7.701 6.61 9.053 2.767 1.372 8.653-2.293 11.03-.34 2.395 1.953.215 8.642 2.121 11.096 1.907 2.444 8.761 1.743 10.1 4.577 1.31 2.794-3.48 7.842-2.796 10.936C81.527 38.382 88 40.795 88 44c0 3.205-6.473 5.618-7.138 8.623-.694 3.094 4.107 8.142 2.806 10.936-1.34 2.834-8.193 2.133-10.1 4.577-1.916 2.454.274 9.143-2.122 11.096-2.376 1.953-8.262-1.712-11.03-.34-2.727 1.352-3.588 8.352-6.609 9.053-2.933.681-6.668-5.227-9.797-5.227-3.139 0-6.874 5.908-9.798 5.227-3.02-.7-3.881-7.701-6.61-9.053-2.776-1.372-8.662 2.293-11.038.34-2.396-1.953-.216-8.642-2.122-11.096-1.907-2.434-8.761-1.743-10.1-4.577-1.31-2.794 3.48-7.842 2.796-10.936C6.473 49.618 0 47.205 0 44c0-3.205 6.473-5.628 7.138-8.623.694-3.094-4.107-8.142-2.797-10.936 1.34-2.844 8.194-2.143 10.1-4.577 1.917-2.454-.273-9.143 2.123-11.096 2.376-1.953 8.262 1.712 11.029.34C30.32 7.766 31.18.756 34.203.055 37.136-.626 40.87 5.282 44 5.282zm10.179 23.335h-3.667l-16.68 30.776h3.617l16.73-30.776zm.44 12.369c-4.967 0-8.135 4.036-8.135 9.343.039 5.589 3.53 8.974 7.91 8.974 4.204 0 8.057-3.255 8.057-9.474 0-5.088-2.816-8.843-7.832-8.843zm-.088 3.785c2.102 0 2.855 2.344 2.855 5.358 0 3.345-.939 5.358-2.855 5.358-1.975 0-3.002-2.243-2.953-5.358 0-2.974.89-5.358 2.953-5.358zM33.694 28.607c-4.967 0-8.145 4.036-8.145 9.344 0 5.588 3.491 8.983 7.92 8.983 4.205 0 8.047-3.254 8.047-9.484 0-5.087-2.816-8.843-7.822-8.843zm-.137 3.806c2.103 0 2.904 2.333 2.914 5.358 0 3.345-.939 5.358-2.865 5.358-1.975 0-3.002-2.244-3.002-5.358 0-2.975.94-5.358 2.953-5.358z" transform="translate(155 881) translate(32 47)"/>
                </g>
            </g>
        </g>
    </g>
</svg>
