<svg width="50" height="50" viewBox="0 0 50 50" fill="none" xmlns="http://www.w3.org/2000/svg">
<circle cx="25" cy="25" r="25" fill="#1275B1"/>
<path d="M19.8247 17.2562C19.8247 18.5023 18.7447 19.5124 17.4124 19.5124C16.0801 19.5124 15 18.5023 15 17.2562C15 16.0101 16.0801 15 17.4124 15C18.7447 15 19.8247 16.0101 19.8247 17.2562Z" fill="white"/>
<path d="M15.3299 23.2327C15.3299 22.0939 16.253 21.1708 17.3918 21.1708C18.5305 21.1708 19.4536 22.0939 19.4536 23.2327V31.6048C19.4536 32.7435 18.5305 33.6667 17.3918 33.6667C16.253 33.6667 15.3299 32.7435 15.3299 31.6048V23.2327Z" fill="white"/>
<path d="M26.0928 21.5829C26.0928 21.3553 25.9083 21.1708 25.6807 21.1708H24.0309C22.8922 21.1708 21.9691 22.0939 21.9691 23.2327V31.6048C21.9691 32.7435 22.8922 33.6667 24.0309 33.6667C25.1697 33.6667 26.0928 32.7439 26.0928 31.6052C26.0928 30.2807 26.0928 28.5715 26.0928 27.2731C26.0928 25.7968 26.5969 24.314 28.6082 24.314C30.8814 24.314 30.8677 26.246 30.8571 27.7428C30.848 29.0192 30.859 30.3126 30.8677 31.6048C30.8753 32.7435 31.7994 33.6667 32.9381 33.6667C34.0769 33.6667 35 32.7435 35 31.6048V27.0716C34.9651 22.8605 33.8678 20.9201 30.2577 20.9201C28.7906 20.9201 27.7051 21.3759 26.9442 21.9459C26.631 22.1805 26.0928 21.9742 26.0928 21.5829Z" fill="white"/>
</svg>
