<?xml version="1.0" encoding="UTF-8"?>
<svg width="36px" height="36px" viewBox="0 0 36 36" version="1.1" xmlns="http://www.w3.org/2000/svg" xmlns:xlink="http://www.w3.org/1999/xlink">
    <!-- Generator: Sketch 56.2 (81672) - https://sketch.com -->
    <title>形状结合</title>
    <desc>Created with Sketch.</desc>
    <defs>
        <linearGradient x1="50%" y1="0%" x2="50%" y2="100%" id="linearGradient-1">
            <stop stop-color="#4396FF" offset="0%"></stop>
            <stop stop-color="#1977EF" offset="100%"></stop>
        </linearGradient>
    </defs>
    <g id="首页新增广告位" stroke="none" stroke-width="1" fill="none" fill-rule="evenodd">
        <g id="1.官网主页_PC1440-02-新增广告" transform="translate(-292.000000, -1452.000000)" fill="url(#linearGradient-1)">
            <g id="编组-6" transform="translate(0.000000, 986.000000)">
                <g id="编组-5" transform="translate(230.000000, 254.000000)">
                    <g id="编组-2">
                        <path d="M80,248 C70.0588745,248 62,239.941125 62,230 C62,220.058875 70.0588745,212 80,212 C89.9411255,212 98,220.058875 98,230 C98,239.941125 89.9411255,248 80,248 Z M87.135855,233.673553 C85.7247596,233.673553 84.5710258,234.428902 84.0337224,235.601477 L77.2129626,232.700202 C77.6108107,232.08375 77.829393,231.328423 77.829393,230.513864 C77.829393,230.176322 77.7895609,229.838222 77.7098752,229.520038 L82.0648276,226.141208 C82.6419845,226.578373 83.3779541,226.836787 84.1930508,226.836787 C86.1619027,226.836787 87.6333048,225.365965 87.6333048,223.418684 C87.6333048,221.470844 86.1613656,220 84.1930508,220 C82.2241989,220 80.7727343,221.470822 80.7727343,223.418684 C80.7727343,223.915596 80.872336,224.372677 81.0311486,224.769988 L77.0137377,227.850529 C76.2185571,226.658037 74.9059892,225.823003 73.414671,225.823003 C70.9826157,225.816923 69.0060938,227.783573 69,230.215639 C69,230.222271 69,230.228903 69,230.235535 L69,230.235514 C68.9954098,232.667591 70.9632621,234.642888 73.3953305,234.647486 C73.4017903,234.647498 73.40825,234.647496 73.4147097,234.64748 C74.3294081,234.64748 75.1843583,234.409519 75.8804743,233.972376 L83.7160713,237.310794 C83.815673,239.159032 85.2472216,240.530252 87.1358507,240.530252 C89.1052612,240.530252 90.5567258,239.059968 90.5567258,237.112149 C90.5567258,235.164309 89.0847866,233.673571 87.1364093,233.673571 L87.135855,233.673553 Z" id="形状结合"></path>
                    </g>
                </g>
            </g>
        </g>
    </g>
</svg>