<svg xmlns="http://www.w3.org/2000/svg" width="193" height="56" viewBox="0 0 193 56">
    <g fill="none" fill-rule="evenodd">
        <g>
            <g>
                <g>
                    <g>
                        <g transform="translate(-623 -484) translate(0 295) translate(345 100) translate(279 90)">
                            <circle cx="25" cy="25" r="25" stroke="#FFF"/>
                            <g fill="#FFF" fill-rule="nonzero">
                                <path d="M11 0c6.05 0 11 4.95 11 11s-4.95 11-11 11S0 17.05 0 11 4.95 0 11 0zm3.575 7.975L9.35 12.65l-1.925-2.062c-.275-.275-.687-.275-.962 0-.275.275-.275.687 0 .962L8.8 14.163c.138.137.275.275.55.275 0-.138.138-.275.275-.275l5.913-5.225c.275-.275.275-.688 0-.963s-.688-.275-.963 0z" transform="translate(39 33)"/>
                            </g>
                            <g fill="#FFF" fill-rule="nonzero">
                                <path d="M22.485.162H3.512C1.63.162.096 1.665.096 3.512V15.24c0 1.85 1.533 3.35 3.416 3.35h18.973c1.883 0 3.416-1.504 3.416-3.35V3.512c0-1.847-1.533-3.35-3.416-3.35zm2.14 15.08c0 .375-.101.727-.277 1.03l-5.311-4.753c-.26-.234-.665-.216-.901.04-.24.256-.22.65.04.884l5.239 4.69c-.282.135-.596.21-.93.21H3.512c-.328 0-.639-.072-.915-.202l5.227-4.68c.26-.234.28-.628.04-.885-.239-.256-.642-.273-.901-.04l-5.308 4.75c-.182-.309-.283-.663-.283-1.043V3.512c0-.412.121-.795.332-1.12l5.504 4.4c.273.22.677.179.898-.09.222-.267.182-.662-.092-.88L2.697 1.57c.25-.1.527-.158.815-.158h18.973c.293 0 .573.057.83.164l-5.33 4.257c-.273.219-.313.614-.091.881.221.268.625.309.898.09L24.3 2.4c.205.322.326.703.326 1.109v11.734zM14.455 6.93c.181 0 .322.153.308.329-.139 1.572-.205 2.39-.205 2.454 0 .66.193.988.576.988.357 0 .651-.19.885-.574.233-.38.348-.878.348-1.489 0-.892-.288-1.624-.867-2.191-.579-.568-1.377-.85-2.4-.85-.996 0-1.82.343-2.473 1.025-.654.683-.98 1.538-.98 2.564 0 1.005.306 1.811.92 2.425.61.613 1.445.919 2.5.919.639 0 1.215-.084 1.719-.251.199-.066.406.08.406.288 0 .127-.08.242-.202.285-.547.193-1.21.288-1.987.288-1.227 0-2.218-.363-2.973-1.086-.754-.723-1.131-1.67-1.131-2.84 0-1.21.394-2.214 1.186-3.015.792-.8 1.806-1.201 3.042-1.201 1.155 0 2.108.334 2.86 1 .752.665 1.126 1.532 1.126 2.6 0 .795-.202 1.446-.605 1.95-.403.504-.896.755-1.475.755-.74 0-1.111-.383-1.12-1.152h-.02c-.25.769-.729 1.152-1.434 1.152-.458 0-.833-.165-1.118-.496-.285-.331-.43-.78-.43-1.35 0-.747.197-1.369.591-1.861.395-.493.902-.74 1.521-.74.245 0 .46.06.648.181.19.121.308.27.357.452h.02c.003-.008.012-.104.026-.282.015-.156.147-.277.309-.277h.072zm-2.777 2.532c0 .372.08.668.242.893.161.225.389.337.685.337.41 0 .732-.202.968-.602.236-.4.354-.93.354-1.59 0-.691-.296-1.037-.89-1.037-.403 0-.728.193-.982.58-.25.385-.377.86-.377 1.42z" transform="translate(12 16)"/>
                            </g>
                        </g>
                        <g transform="translate(-623 -484) translate(0 295) translate(345 100) translate(279 90) translate(131)">
                            <circle cx="25" cy="25" r="25" stroke="#FFF"/>
                            <g fill="#FFF" fill-rule="nonzero">
                                <path d="M11 0c6.05 0 11 4.95 11 11s-4.95 11-11 11S0 17.05 0 11 4.95 0 11 0zm3.575 7.975L9.35 12.65l-1.925-2.062c-.275-.275-.687-.275-.962 0-.275.275-.275.687 0 .962L8.8 14.163c.138.137.275.275.55.275 0-.138.138-.275.275-.275l5.913-5.225c.275-.275.275-.688 0-.963s-.688-.275-.963 0z" transform="translate(39 33)"/>
                            </g>
                            <g fill="#FFF" fill-rule="nonzero">
                                <path d="M2.474 0L15.44.252c1.145.023 2.066 1.045 2.047 2.27l-.344 22.29c-.02 1.226-.971 2.21-2.116 2.188l-12.964-.252c-1.147-.023-2.067-1.044-2.048-2.27l.344-22.29C.378.963 1.328-.022 2.474 0zm6.123 23.307c-.689-.014-1.258.575-1.27 1.314-.01.739.54 1.347 1.23 1.36.692.014 1.259-.572 1.27-1.311.012-.74-.537-1.35-1.23-1.363zM1.285 3.799l-.28 18.15 15.224.297.28-18.15-15.224-.297zm7.753 13.349c.628.012 1.132.535 1.122 1.166-.01.63-.53 1.134-1.158 1.122-.628-.012-1.132-.536-1.122-1.167.01-.63.53-1.134 1.158-1.121zm-.01.573c-.312-.006-.571.245-.576.56-.005.314.246.575.56.581.313.006.571-.245.576-.56.005-.314-.246-.575-.56-.58zm4.21-4.228c.628.012 1.131.536 1.122 1.167-.01.63-.53 1.134-1.158 1.121-.629-.012-1.133-.535-1.123-1.166.01-.63.53-1.134 1.158-1.122zm-4.143-.08c.629.012 1.132.535 1.123 1.166-.01.63-.53 1.134-1.158 1.122-.629-.013-1.132-.536-1.122-1.166.01-.631.529-1.135 1.157-1.123zm-4.142-.081c.629.012 1.133.536 1.123 1.166-.01.631-.53 1.134-1.158 1.122-.628-.012-1.132-.535-1.122-1.166.01-.63.529-1.135 1.157-1.122zm8.275.735c-.313-.006-.572.245-.577.56-.005.314.246.575.56.58.313.007.572-.244.577-.559.005-.314-.246-.575-.56-.581zm-4.142-.08c-.313-.007-.572.244-.577.559-.004.314.247.575.56.581.313.006.572-.245.577-.56.005-.314-.246-.575-.56-.58zm-4.141-.082c-.314-.006-.573.245-.578.56-.004.314.247.575.56.581.314.006.573-.244.577-.559.005-.315-.246-.575-.56-.582zm8.347-3.99c.629.013 1.133.536 1.123 1.167-.01.63-.529 1.134-1.158 1.122-.628-.012-1.132-.536-1.123-1.167.01-.63.53-1.134 1.158-1.122zm-4.141-.08c.628.012 1.132.535 1.122 1.166-.01.63-.53 1.134-1.158 1.122-.628-.012-1.132-.536-1.122-1.166.01-.631.53-1.135 1.158-1.123zm-4.142-.08c.628.011 1.132.534 1.122 1.165-.01.631-.53 1.135-1.158 1.122-.628-.012-1.132-.535-1.122-1.166.01-.63.53-1.134 1.158-1.122zm8.275.734c-.314-.006-.573.245-.578.559-.005.315.246.576.56.582.313.006.572-.245.577-.56.005-.314-.246-.575-.56-.581zm-4.142-.08c-.314-.007-.573.244-.577.558-.005.315.246.576.56.582.312.006.571-.245.576-.56.005-.314-.246-.575-.56-.58zM5 10.326c-.314-.006-.572.245-.577.56-.005.314.246.575.56.581.313.006.572-.244.577-.56.005-.314-.247-.574-.56-.58zm2.68-8.443c-.23-.004-.418.192-.422.438-.004.248.179.45.408.455l2.498.048c.23.005.421-.19.425-.438.004-.246-.18-.45-.41-.454z" transform="translate(17 12)"/>
                            </g>
                        </g>
                        <path stroke="#FFF" d="M110.5 11.5L83 39" transform="translate(-623 -484) translate(0 295) translate(345 100) translate(279 90)"/>
                    </g>
                </g>
            </g>
        </g>
    </g>
</svg>
