<svg xmlns="http://www.w3.org/2000/svg" width="267" height="44" viewBox="0 0 267 44">
    <g fill="none" fill-rule="evenodd">
        <g>
            <g>
                <g>
                    <g>
                        <g fill="#FFF" fill-rule="nonzero">
                            <path d="M22 0c12.029 0 21.803 9.654 21.997 21.636L44 22c0 12.029-9.654 21.803-21.636 21.997L22 44C9.85 44 0 34.15 0 22S9.85 0 22 0zm0 2.2C11.065 2.2 2.2 11.065 2.2 22S11.065 41.8 22 41.8c10.82 0 19.613-8.68 19.797-19.455L41.8 22c0-10.82-8.68-19.613-19.455-19.797L22 2.2zm7.15 8.969c.68 0 1.02.34 1.02 1.019l-.001 18.066 4.021-4.02c.449-.449.897-.479 1.346-.09l.096.09c.48.48.48.96 0 1.441l-5.553 5.556c-.088.208-.241.351-.458.43l-.045.014c-.28.164-.56.165-.84.004-.249-.074-.42-.224-.515-.45l-5.545-5.546c-.449-.449-.479-.897-.09-1.346l.09-.096c.48-.48.96-.48 1.441 0l4.013 4.013V12.188c0-.634.297-.972.889-1.015l.131-.004zm-13.591.01l.096.048c.236.075.402.221.496.439l5.548 5.55c.448.449.478.897.09 1.346l-.09.096c-.48.48-.961.48-1.442 0l-4.014-4.015v18.071c0 .634-.296.973-.888 1.015l-.131.004c-.68 0-1.02-.34-1.02-1.019V14.649l-4.014 4.016c-.449.448-.897.478-1.346.09l-.096-.09c-.48-.481-.48-.961 0-1.442l5.545-5.547c.088-.21.241-.355.46-.435l.035-.01c.257-.155.514-.173.77-.053z" transform="translate(-587 -491) translate(0 295) translate(345 100) translate(242 96) translate(111)"/>
                        </g>
                        <g fill="#FFF" fill-rule="nonzero">
                            <path d="M42.635 38.51H2.751V1.374C2.75.55 2.2 0 1.375 0 .55 0 0 .55 0 1.375v38.51c0 .825.55 1.375 1.375 1.375h41.26c.825 0 1.376-.55 1.376-1.375 0-.826-.55-1.376-1.376-1.376zM8.252 28.881v5.501c0 .826.55 1.376 1.375 1.376s1.376-.55 1.376-1.376v-5.501c0-.825-.55-1.375-1.376-1.375-.825 0-1.375.55-1.375 1.375zm8.252-5.501v11.002c0 .826.55 1.376 1.375 1.376s1.376-.55 1.376-1.376V23.381c0-.826-.55-1.376-1.376-1.376-.825 0-1.375.55-1.375 1.376zm8.252-2.751v13.753c0 .826.55 1.376 1.375 1.376s1.376-.55 1.376-1.376V20.63c0-.825-.55-1.375-1.376-1.375-.825 0-1.375.55-1.375 1.375zm8.252-2.75v16.503c0 .826.55 1.376 1.375 1.376s1.376-.55 1.376-1.376V17.88c0-.825-.55-1.375-1.376-1.375-.825 0-1.375.55-1.375 1.375zm-24.756 5.5c.275 0 .55 0 .825-.274l10.728-7.977h7.702c.275 0 .825-.275 1.1-.275l7.152-7.427v4.951c0 .825.55 1.375 1.375 1.375s1.375-.55 1.375-1.375V4.126c0-.825-.55-1.375-1.375-1.375h-8.252c-.825 0-1.375.55-1.375 1.375s.55 1.375 1.375 1.375h4.951l-6.877 6.877h-7.701c-.276 0-.55 0-.826.275L7.427 20.905c-.55.55-.826 1.375-.275 1.926.275.275.55.55 1.1.55z" transform="translate(-587 -491) translate(0 295) translate(345 100) translate(242 96) translate(222 1)"/>
                        </g>
                        <g fill="#FFF" fill-rule="nonzero">
                            <path d="M40.505 30.837c-1.575-1.133-3.815-2.062-6.656-2.76-.67-.194-1.37.19-1.565.86-.194.67.19 1.37.86 1.565.034.01.068.018.103.025 4.664 1.147 7.449 2.96 7.449 4.855 0 1.571-2 3.128-5.488 4.271-3.526 1.157-8.34 1.82-13.208 1.82-4.877 0-9.697-.663-13.218-1.82-3.481-1.14-5.478-2.697-5.478-4.269 0-1.865 2.77-3.672 7.409-4.835.676-.168 1.089-.853.92-1.53-.167-.676-.852-1.089-1.529-.92H10.1c-2.825.71-5.05 1.64-6.617 2.77C1.248 32.477.78 34.212.78 35.383c0 1.963 1.251 4.714 7.215 6.67C11.76 43.292 16.865 44 22 44c5.124 0 10.225-.71 13.995-1.945 5.972-1.959 7.226-4.705 7.226-6.67 0-1.186-.472-2.932-2.716-4.548zm-20.101 6.616l.041.05c.39.448.955.707 1.55.71.615.007 1.196-.28 1.565-.773.85-1.027 3.793-4.645 6.652-8.912 4.136-6.174 6.234-10.912 6.234-14.079C36.446 6.484 29.956 0 21.976 0S7.506 6.484 7.506 14.45c0 3.166 2.099 7.907 6.242 14.084 2.869 4.288 5.82 7.91 6.656 8.919zm1.572-34.928c6.587 0 11.945 5.349 11.945 11.924 0 5.015-7.336 15.305-11.945 20.941-4.61-5.635-11.946-15.924-11.946-20.94 0-6.576 5.359-11.925 11.946-11.925zm7.293 11.34c0-3.997-3.26-7.249-7.269-7.249-4.008 0-7.269 3.254-7.269 7.248.006 4.01 3.26 7.254 7.27 7.248 4.007 0 7.268-3.25 7.268-7.247zm-10.624 3.339c-.896-.88-1.397-2.085-1.39-3.34 0-2.604 2.13-4.723 4.745-4.723 2.616 0 4.744 2.119 4.744 4.723 0 2.605-2.128 4.724-4.744 4.724-1.255.006-2.46-.49-3.347-1.378l-.008-.006z" transform="translate(-587 -491) translate(0 295) translate(345 100) translate(242 96)"/>
                        </g>
                        <path stroke="#FFF" d="M91.25 8.5L63.75 36M202.25 8.5L174.75 36" transform="translate(-587 -491) translate(0 295) translate(345 100) translate(242 96)"/>
                    </g>
                </g>
            </g>
        </g>
    </g>
</svg>
