<svg xmlns="http://www.w3.org/2000/svg" width="284" height="52" viewBox="0 0 284 52">
    <g fill="none" fill-rule="evenodd">
        <g>
            <g>
                <g transform="translate(-578 -2016) translate(240 1865) translate(338 151)">
                    <circle cx="26" cy="26" r="25" stroke="#CBCDDB"/>
                    <g fill-rule="nonzero">
                        <path fill="#1977EF" d="M11 22C4.95 22 0 17.05 0 11S4.95 0 11 0s11 4.95 11 11-4.95 11-11 11z" transform="translate(40 29)"/>
                        <path fill="#FFF" d="M9.625 14.163l5.913-5.225c.275-.275.275-.688 0-.963s-.688-.275-.963 0L9.35 12.65l-1.925-2.062c-.275-.275-.687-.275-.962 0-.275.275-.275.687 0 .962L8.8 14.163c.138.137.275.275.55.275 0-.138.138-.275.275-.275z" transform="translate(40 29)"/>
                    </g>
                    <circle cx="137" cy="26" r="25" stroke="#CBCDDB"/>
                    <circle cx="248" cy="26" r="25" stroke="#CBCDDB"/>
                    <g fill-rule="nonzero">
                        <path fill="#1977EF" d="M11 22C4.95 22 0 17.05 0 11S4.95 0 11 0s11 4.95 11 11-4.95 11-11 11z" transform="translate(151 29)"/>
                        <path fill="#FFF" d="M9.625 14.163l5.913-5.225c.275-.275.275-.688 0-.963s-.688-.275-.963 0L9.35 12.65l-1.925-2.062c-.275-.275-.687-.275-.962 0-.275.275-.275.687 0 .962L8.8 14.163c.138.137.275.275.55.275 0-.138.138-.275.275-.275z" transform="translate(151 29)"/>
                    </g>
                    <g fill-rule="nonzero">
                        <path fill="#1977EF" d="M11 22C4.95 22 0 17.05 0 11S4.95 0 11 0s11 4.95 11 11-4.95 11-11 11z" transform="translate(262 29)"/>
                        <path fill="#FFF" d="M9.625 14.163l5.913-5.225c.275-.275.275-.688 0-.963s-.688-.275-.963 0L9.35 12.65l-1.925-2.062c-.275-.275-.687-.275-.962 0-.275.275-.275.687 0 .962L8.8 14.163c.138.137.275.275.55.275 0-.138.138-.275.275-.275z" transform="translate(262 29)"/>
                    </g>
                    <path stroke="#CBCDDB" d="M101.5 12.5L74 40M212.5 12.5L185 40"/>
                    <g fill="#303355" fill-rule="nonzero">
                        <path d="M25.02 16.02c.322.004.622.165.802.431l5.88 3.87c.187.192.292.448.287.717.04.288-.055.578-.256.789L25.71 25.79c-.07.07-.181.062-.26.107-.03.014-.06.027-.092.038-.17.08-.361.103-.546.066H17.97v3.996h10.984c.552-.036 1.03.382 1.066.935.036.553-.383 1.03-.935 1.066-.044.003-.088.003-.131 0H3c-.552.036-1.03-.383-1.065-.935-.037-.553.382-1.03.935-1.066.043-.003.087-.003.13 0h12.974v-3.993H5.233c-.316.09-.655.01-.896-.214-.07-.072-.064-.183-.107-.264-.057-.09-.099-.189-.124-.292-.02-.066-.034-.134-.04-.203v-.028c.003-.345.188-.664.486-.838l3.136-3.093-3.35-3.298c-.05-.051-.037-.124-.074-.182-.085-.12-.142-.259-.166-.405-.016-.052-.028-.106-.034-.16 0-.552.448-.998 1-.998h10.914v-2.003h-8.78c-.185.035-.376.012-.547-.069-.03-.01-.062-.024-.091-.038-.086-.045-.182-.036-.26-.107L.281 9.852c-.198-.2-.299-.476-.278-.756-.022-.278.077-.553.271-.753L6.22 4.437c.183-.244.468-.39.773-.395h8.985V1.045c0-.552.448-1 1-1 .553 0 1 .448 1 1V4.04h8.983c.553 0 .999.448.999.999-.006.054-.017.107-.032.16-.024.146-.08.284-.167.405-.038.057-.025.13-.076.181l-3.36 3.31 3.136 3.094c.303.173.49.495.494.843v.025c-.006.07-.02.137-.042.203-.024.103-.064.202-.12.292-.047.088-.036.192-.108.265-.24.223-.58.305-.896.215h-8.817v2.001h7.048V16.02zm-5.051-3.985h4.488l-2.216-2.182c-.195-.2-.295-.474-.273-.753-.022-.28.077-.554.273-.755l2.342-2.312H7.343L2.695 9.096 7.15 12.03H19.97v.004zm-3.994 5.984H7.428l2.34 2.304c.365.436.365 1.07 0 1.506L7.554 24.01h17.304L29.3 21.09l-4.66-3.064h-8.661v-.004l-.003-.002z" transform="translate(10 9)"/>
                    </g>
                    <g fill="#303355" fill-rule="nonzero">
                        <path d="M21.738 2.991c.436-.219.92-.354 1.44-.354 1.782 0 3.23 1.45 3.23 3.23 0 .53-.139 1.023-.366 1.466.423.684.788 1.407 1.085 2.166.883-.96 1.436-2.227 1.436-3.631 0-2.97-2.416-5.384-5.385-5.384-1.385 0-2.637.54-3.593 1.403.755.303 1.473.676 2.153 1.104zm-7.181 23.007c-6.387 0-11.583-5.197-11.583-11.585 0-6.386 5.196-11.582 11.583-11.582 6.387 0 11.585 5.196 11.585 11.582 0 6.388-5.198 11.585-11.585 11.585zm0-21.013c-5.2 0-9.43 4.23-9.43 9.428 0 5.202 4.23 9.431 9.43 9.431 5.2 0 9.431-4.23 9.431-9.43 0-5.2-4.23-9.43-9.431-9.43zm3.192 14l-4.268-4.318V7.222h2.154v6.56l3.645 3.69-1.531 1.514zm4.696 1.799l4.846 4.846-1.523 1.523-4.846-4.846 1.523-1.523zm-15.59 0l1.523 1.523-4.845 4.846L2.01 25.63l4.846-4.846zM2.966 7.511c-.181-.422-.283-.886-.283-1.374 0-1.93 1.57-3.5 3.5-3.5.473 0 .924.097 1.336.268.709-.435 1.46-.805 2.247-1.105C8.786.99 7.549.484 6.182.484 3.064.484.528 3.02.528 6.137c0 1.39.525 2.65 1.36 3.635.29-.791.65-1.547 1.077-2.26z" transform="translate(122 12)"/>
                    </g>
                    <g fill="#303355" fill-rule="nonzero">
                        <path d="M25.423 13.638l-.742 1.58 4.16 1.95-12.833 5.498L3.176 17.17l4.159-1.95-.742-1.58-6.432 3.014v8.56L16.008 32l15.847-6.787v-8.56l-6.432-3.015zm-9.415 16.46l-14.09-6.046v-5.529l14.09 6.045 14.09-6.045v5.53l-14.09 6.045zm-2.918-13.67h5.82V8.511h3.788L15.992 0l-6.69 8.512h3.788v7.915z" transform="translate(232 8)"/>
                    </g>
                </g>
            </g>
        </g>
    </g>
</svg>
