<svg xmlns="http://www.w3.org/2000/svg" width="284" height="52" viewBox="0 0 284 52">
    <g fill="none" fill-rule="evenodd">
        <circle cx="26" cy="26" r="25" stroke="#CBCDDB"/>
        <g fill-rule="nonzero">
            <path fill="#1977EF" d="M11 22C4.95 22 0 17.05 0 11S4.95 0 11 0s11 4.95 11 11-4.95 11-11 11z" transform="translate(40 29)"/>
            <path fill="#FFF" d="M9.625 14.163l5.913-5.225c.275-.275.275-.688 0-.963s-.688-.275-.963 0L9.35 12.65l-1.925-2.062c-.275-.275-.687-.275-.962 0-.275.275-.275.687 0 .962L8.8 14.163c.138.137.275.275.55.275 0-.138.138-.275.275-.275z" transform="translate(40 29)"/>
        </g>
        <circle cx="137" cy="26" r="25" stroke="#CBCDDB"/>
        <circle cx="248" cy="26" r="25" stroke="#CBCDDB"/>
        <g fill-rule="nonzero">
            <path fill="#1977EF" d="M11 22C4.95 22 0 17.05 0 11S4.95 0 11 0s11 4.95 11 11-4.95 11-11 11z" transform="translate(151 29)"/>
            <path fill="#FFF" d="M9.625 14.163l5.913-5.225c.275-.275.275-.688 0-.963s-.688-.275-.963 0L9.35 12.65l-1.925-2.062c-.275-.275-.687-.275-.962 0-.275.275-.275.687 0 .962L8.8 14.163c.138.137.275.275.55.275 0-.138.138-.275.275-.275z" transform="translate(151 29)"/>
        </g>
        <g fill-rule="nonzero">
            <path fill="#1977EF" d="M11 22C4.95 22 0 17.05 0 11S4.95 0 11 0s11 4.95 11 11-4.95 11-11 11z" transform="translate(262 29)"/>
            <path fill="#FFF" d="M9.625 14.163l5.913-5.225c.275-.275.275-.688 0-.963s-.688-.275-.963 0L9.35 12.65l-1.925-2.062c-.275-.275-.687-.275-.962 0-.275.275-.275.687 0 .962L8.8 14.163c.138.137.275.275.55.275 0-.138.138-.275.275-.275z" transform="translate(262 29)"/>
        </g>
        <path stroke="#CBCDDB" d="M101.5 12.5L74 40M212.5 12.5L185 40"/>
        <path fill="#303355" fill-rule="nonzero" d="M35.649 17.29c1.474.002 2.668 1.196 2.67 2.67v12.014c-.002 1.474-1.196 2.668-2.67 2.67h-18.69c-1.473-.002-2.667-1.196-2.669-2.67V19.96c.002-1.474 1.196-2.668 2.67-2.67zm0 1.335H16.96c-.737 0-1.334.598-1.335 1.335v12.014c.001.737.598 1.334 1.335 1.335h18.689c.736 0 1.333-.598 1.334-1.335V19.96c0-.737-.597-1.334-1.334-1.335zm-4.673 2.002c1.84 0 3.338 1.498 3.338 3.338 0 1.017-.467 1.918-1.188 2.53 1.497.78 2.523 2.344 2.523 4.144l-.007.099c-.048.322-.326.569-.66.569-.37 0-.668-.3-.668-.668l-.005-.183c-.095-1.755-1.554-3.154-3.332-3.154-1.84 0-3.338 1.497-3.338 3.337 0 .369-.299.668-.667.668-.369 0-.668-.3-.668-.668 0-1.8 1.027-3.364 2.523-4.143-.72-.613-1.188-1.514-1.188-2.531 0-1.84 1.497-3.338 3.337-3.338zm-8.01 8.01c.37 0 .668.299.668.667 0 .369-.298.668-.667.668h-5.34c-.368 0-.667-.3-.667-.668 0-.368.299-.667.667-.667zm2.003-3.338c.369 0 .668.3.668.668 0 .369-.3.667-.668.667h-7.342c-.368 0-.667-.298-.667-.667 0-.369.299-.668.667-.668zm6.007-3.337c-1.106 0-2.002.897-2.002 2.003.001 1.105.897 2 2.002 2.002 1.106 0 2.003-.897 2.003-2.002 0-1.106-.897-2.003-2.003-2.003zm-5.34 0c.37 0 .668.299.668.668 0 .368-.299.667-.667.667h-8.01c-.368 0-.667-.299-.667-.667 0-.369.299-.668.667-.668zM142.067 15.762l.014.021c1.422.06 2.557 1.237 2.557 2.678v5.86l.007-.003 2.13 7.455c.435 1.52-.441 3.106-1.956 3.542l-.588.17c-.473.755-1.31 1.257-2.265 1.257h-2.26l.012.04-5.37 1.545c-1.033.297-2.111-.302-2.408-1.339l-.07-.246h-.55c-.886 0-1.604-.72-1.604-1.608v-5.907h-.002l-.19-.693-2.437-8.528c-.294-1.027.289-2.097 1.303-2.407l.031-.009 1.304-.375c.087-.806.768-1.434 1.594-1.434h3.392l4.18-1.203c1.233-.355 2.51.16 3.176 1.184zm-6.456 20.98h-2.519c.147.365.548.567.934.456l1.585-.456zm-3.554-19.782h-.738c-.233 0-.423.188-.427.42v17.754c0 .234.187.424.419.429h.746V16.96zm2.796 0h-2.262v18.603h9.375c.818 0 1.483-.659 1.496-1.476V18.462c0-.821-.657-1.488-1.472-1.502h-7.134l-.003.001zm9.785 11.592v5.51c0 .026 0 .052-.002.077.807-.31 1.257-1.194 1.015-2.042l-1.013-3.545zm-4.818 4.46c.147 0 .267.12.267.268 0 .145-.116.264-.26.268h-3.551c-.148 0-.267-.12-.267-.268 0-.146.115-.264.26-.268h3.551zm1.993-2.465c.325 0 .588.264.588.59 0 .322-.258.584-.578.589h-7.54c-.325 0-.588-.264-.588-.59 0-.322.258-.584.578-.59h7.54zm-3.765-11.73h.018c2.524.01 4.568 2.067 4.568 4.602 0 2.542-2.053 4.602-4.586 4.602h.018H138.03c-2.525-.01-4.568-2.066-4.568-4.602 0-2.541 2.053-4.602 4.586-4.602h-.018.018zm.934 5.192h-1.868c.047.782.186 1.494.394 2.035.116.303.247.534.375.675.05.055.094.09.13.11.012.006.02.01.027.011l.008.002c.002 0 .004 0 .007-.002.007-.001.016-.005.027-.01.036-.02.08-.056.13-.11.129-.142.26-.373.376-.676.208-.541.347-1.253.394-2.035zm-3.046 0h-1.248c.179 1.033.82 1.908 1.7 2.401-.247-.668-.404-1.503-.452-2.401zm5.472 0h-1.248c-.048.898-.206 1.733-.453 2.401.881-.493 1.522-1.368 1.701-2.401zm-11.692-5.57l-.972.28c-.412.118-.65.55-.532.963l1.504 5.264V18.44zm6.673 1.99h-.001c-.881.493-1.522 1.367-1.7 2.4h1.248c.048-.898.205-1.733.453-2.4zm1.659-.432h-.008l-.026.012c-.037.02-.081.055-.13.11-.129.142-.26.372-.376.675-.208.542-.347 1.254-.394 2.035h1.868c-.047-.781-.186-1.493-.394-2.035-.116-.303-.247-.533-.376-.675-.05-.055-.094-.09-.13-.11-.01-.006-.02-.01-.027-.011l-.007-.001zm1.659.431l.007.019c.243.665.398 1.492.446 2.382h1.248c-.179-1.033-.82-1.908-1.701-2.4zm-.466-4.729l-.027.008-.257.074h1.392c-.338-.148-.726-.185-1.108-.082zM258.426 16.48H238.39c-1.069 0-1.94.983-1.94 2.188V33.26c0 1.207.871 2.188 1.94 2.188h20.036c1.069 0 1.94-.983 1.94-2.188V18.668c0-1.208-.868-2.188-1.94-2.188zm.647 16.777c0 .4-.291.73-.647.73H238.39c-.356 0-.647-.33-.647-.73v-14.59c0-.4.291-.728.647-.728h20.036c.356 0 .647.328.647.729v14.59zM257 27.284h-4.35c-.376 0-.683.307-.683.684 0 .376.307.683.683.683H257c.376 0 .684-.307.684-.683 0-.377-.308-.684-.684-.684zm-4.504-2.218h3.021c.377 0 .684-.307.684-.684 0-.376-.307-.684-.684-.684h-3.021c-.377 0-.684.308-.684.684 0 .377.307.684.684.684zm-4.863 2.832c-.52 0-.945-.425-.945-.946 0-.52.424-.945.945-.945.521 0 .946.424.946.945 0 .521-.422.946-.946.946zm1.98-3.297l-.342-1.584-.003-.008c-.197-.743-.788-1.186-1.579-1.186h-4.931c-.759 0-1.31.425-1.544 1.191l-.358 1.574c-.676.238-1.138.887-1.138 1.622v3.21h.569c.002.853.67 1.518 1.522 1.518.853 0 1.52-.665 1.523-1.517h3.783c.003.852.67 1.517 1.523 1.517.852 0 1.52-.665 1.523-1.517h.571v-3.209c0-.716-.454-1.362-1.12-1.61zm-.598 4.823c-.003.208-.166.368-.374.368-.209 0-.372-.163-.375-.368h.749zm-6.832 0c-.002.208-.165.368-.374.368-.208 0-.371-.163-.374-.368h.748zm.575-6.452h4.934c.334 0 .425.173.462.307l.254 1.194h-6.347l.261-1.157c.086-.27.18-.344.436-.344zm6.826 5.3h-8.718V26.21c0-.305.217-.545.505-.564l.332-.021h7.17l.203.021c.283.027.508.278.508.566v2.06zm-6.77-2.268c-.521 0-.946.425-.946.946 0 .52.425.945.946.945.524 0 .948-.424.948-.945 0-.521-.424-.946-.948-.946z"/>
    </g>
</svg>
