<svg xmlns="http://www.w3.org/2000/svg" width="343" height="177" viewBox="0 0 343 177">
    <g fill="none" fill-rule="evenodd">
        <g fill-rule="nonzero">
            <g>
                <path fill="#FFF" stroke="#1977EF" stroke-width="1.834" d="M82.834 134.236L82.834 110.2 92.738 110.2 92.738 93.824 82.834 93.824 82.834 27.264 57.213 27.264 29.348 93.956 29.348 110.2 62.232 110.2 62.232 134.236z" transform="translate(-549 -2557) translate(549 2557)"/>
                <path fill="#652DFC" d="M60.896 143.07L63.885 163.993 81.82 162.499 60.896 143.07zM90.244 25L97.717 22.011 106.684 32.473 96.222 42.935 90.244 25z" transform="translate(-549 -2557) translate(549 2557)"/>
                <path fill="#1977EF" fill-opacity=".15" d="M97.507 147.075L97.507 123.04 107.412 123.04 107.412 106.664 97.507 106.664 97.507 40.103 71.887 40.103 44.021 106.796 44.021 123.04 76.905 123.04 76.905 147.075z" transform="translate(-549 -2557) translate(549 2557)"/>
                <path fill="#FFF" stroke="#1977EF" stroke-width="1.834" d="M119.43 136.217c9.245 0 16.398-2.796 21.46-8.386 5.063-5.59 7.594-13.009 7.594-22.253h0V57.11c0-9.772-2.421-17.454-7.263-23.045-4.843-5.59-12.106-8.386-21.791-8.386s-16.97 2.796-21.857 8.386c-4.886 5.59-7.33 13.273-7.33 23.045h0v48.468c0 9.333 2.51 16.772 7.529 22.319 5.018 5.547 12.237 8.32 21.658 8.32z" transform="translate(-549 -2557) translate(549 2557)"/>
                <path fill="#1977EF" fill-opacity=".15" d="M134.104 149.056c9.244 0 16.398-2.795 21.46-8.386 5.063-5.59 7.594-13.008 7.594-22.252V69.95c0-9.773-2.421-17.454-7.264-23.045-4.842-5.59-12.105-8.386-21.79-8.386-9.685 0-16.97 2.795-21.857 8.386-4.886 5.59-7.33 13.272-7.33 23.045v48.468c0 9.332 2.51 16.772 7.528 22.318 5.019 5.547 12.238 8.32 21.659 8.32z" transform="translate(-549 -2557) translate(549 2557)"/>
                <path fill="#FFF" stroke="#1977EF" stroke-width="1.834" d="M170.055 136.217c9.244 0 16.398-2.796 21.46-8.386 5.063-5.59 7.594-13.009 7.594-22.253h0V57.11c0-9.772-2.421-17.454-7.264-23.045-4.842-5.59-12.106-8.386-21.79-8.386-9.685 0-16.97 2.796-21.857 8.386-4.886 5.59-7.33 13.273-7.33 23.045h0v48.468c0 9.333 2.51 16.772 7.528 22.319 5.019 5.547 12.238 8.32 21.659 8.32z" transform="translate(-549 -2557) translate(549 2557)"/>
                <path fill="#1977EF" fill-opacity=".15" d="M184.728 149.056c9.245 0 16.398-2.795 21.46-8.386 5.063-5.59 7.595-13.008 7.595-22.252V69.95c0-9.773-2.422-17.454-7.264-23.045-4.842-5.59-12.106-8.386-21.79-8.386-9.685 0-16.97 2.795-21.857 8.386-4.887 5.59-7.33 13.272-7.33 23.045v48.468c0 9.332 2.51 16.772 7.528 22.318 5.018 5.547 12.238 8.32 21.658 8.32z" transform="translate(-549 -2557) translate(549 2557)"/>
                <path fill="#FFF" stroke="#1977EF" stroke-width="1.834" d="M223.98 136.217c9.245 0 16.399-2.796 21.461-8.386 5.063-5.59 7.594-13.009 7.594-22.253h0V57.11c0-9.772-2.421-17.454-7.264-23.045-4.842-5.59-12.105-8.386-21.79-8.386-9.685 0-16.97 2.796-21.857 8.386-4.886 5.59-7.33 13.273-7.33 23.045h0v48.468c0 9.333 2.51 16.772 7.528 22.319 5.019 5.547 12.238 8.32 21.659 8.32z" transform="translate(-549 -2557) translate(549 2557)"/>
                <path fill="#1977EF" fill-opacity=".15" d="M238.655 149.056c9.244 0 16.398-2.795 21.46-8.386 5.063-5.59 7.594-13.008 7.594-22.252V69.95c0-9.773-2.421-17.454-7.264-23.045-4.842-5.59-12.106-8.386-21.79-8.386-9.685 0-16.97 2.795-21.857 8.386-4.886 5.59-7.33 13.272-7.33 23.045v48.468c0 9.332 2.51 16.772 7.528 22.318 5.019 5.547 12.238 8.32 21.659 8.32z" transform="translate(-549 -2557) translate(549 2557)"/>
                <path fill="#FFF" stroke="#F7B82F" stroke-width="1.834" d="M283.296 56.861c-21.75 0-39.344 17.634-39.344 39.344s17.594 39.344 39.344 39.344c21.71 0 39.344-17.634 39.344-39.344s-17.634-39.344-39.344-39.344" transform="translate(-549 -2557) translate(549 2557)"/>
                <path fill="#F7B82F" fill-opacity=".3" d="M297.97 69.7c-21.75 0-39.344 17.635-39.344 39.345 0 21.71 17.594 39.344 39.344 39.344 21.71 0 39.344-17.634 39.344-39.344S319.68 69.7 297.97 69.7" transform="translate(-549 -2557) translate(549 2557)"/>
                <path fill="#FFF" stroke="#1977EF" stroke-width="1.834" d="M62.232 93.824L46.12 93.824 62.232 49.319zM119.43 116.54c-4.402 0-6.603-3.83-6.603-11.49h0V57.639c0-3.61.374-6.56 1.122-8.849.749-2.289 2.576-3.433 5.481-3.433s4.732 1.166 5.48 3.5c.75 2.333 1.123 5.26 1.123 8.782h0v47.41c0 3.082-.418 5.768-1.254 8.057-.837 2.289-2.62 3.433-5.349 3.433zM170.055 116.54c-4.403 0-6.604-3.83-6.604-11.49h0V57.639c0-3.61.375-6.56 1.123-8.849.748-2.289 2.575-3.433 5.48-3.433 2.906 0 4.733 1.166 5.481 3.5.749 2.333 1.123 5.26 1.123 8.782h0v47.41c0 3.082-.418 5.768-1.255 8.057-.836 2.289-2.619 3.433-5.348 3.433zM223.98 116.54c-4.401 0-6.602-3.83-6.602-11.49h0V57.639c0-3.61.374-6.56 1.122-8.849.749-2.289 2.575-3.433 5.48-3.433 2.906 0 4.733 1.166 5.481 3.5.749 2.333 1.123 5.26 1.123 8.782h0v47.41c0 3.082-.418 5.768-1.255 8.057-.836 2.289-2.619 3.433-5.348 3.433z" transform="translate(-549 -2557) translate(549 2557)"/>
                <path fill="#FFF" stroke="#F7B82F" stroke-width="1.834" d="M293.791 111.459c-2.058 1.533-4.56 2.663-7.546 2.905v4.842h-5.205v-4.923c-3.188-.363-5.448-1.331-7.385-2.865-2.542-2.017-3.349-4.197-3.833-6.94l7.828-1.897c0 2.582 2.664 5.488 6.618 5.488 2.34 0 5.165-1.17 5.125-4.237-.04-2.502-2.663-4.318-5.528-4.964-2.986-.686-8.959-2.703-10.654-4.52-1.654-1.815-2.138-4.398-2.138-7.384 0-2.582 1.13-5.165 3.026-6.739 1.816-1.533 3.914-2.502 6.94-2.865v-4.156h5.206v4.116c2.866.323 5.206 1.21 6.982 2.744 2.26 1.937 3.39 4.398 3.39 5.891l-7.789 1.816c0-1.937-2.905-4.317-4.842-4.317-2.543 0-4.56.726-4.56 3.914 0 2.3 1.735 3.026 4.761 3.995 5.085 1.614 8.918 3.712 10.694 5.528 1.776 1.816 2.663 4.116 2.663 6.9-.04 3.511-1.331 5.811-3.753 7.668" transform="translate(-549 -2557) translate(549 2557)"/>
                <path fill="#FFF" stroke="#652DFC" stroke-width="1.834" d="M252.93 18.943l2.5 17.503 15.003-1.25-17.503-16.253z" transform="translate(-549 -2557) translate(549 2557)"/>
                <path fill="#F7B82F" d="M342.783 41.983L333.815 33.016 330.527 57.826 342.783 41.983z" transform="translate(-549 -2557) translate(549 2557)"/>
                <path fill="#F56970" d="M319.318 154.618L322.307 175.542 340.242 174.048 319.318 154.618z" transform="translate(-549 -2557) translate(549 2557)"/>
                <path fill="#FFF" stroke="#F56970" stroke-width="1.834" d="M152.023 148.368L143.056 139.401 139.768 164.211 152.023 148.368z" transform="translate(-549 -2557) translate(549 2557)"/>
                <path fill="#F7B82F" d="M213.137 37.839L220.61 34.85 229.577 45.312 219.115 55.774 213.137 37.839z" transform="translate(-549 -2557) translate(549 2557)"/>
                <path fill="#F56970" d="M45.638 8.967L36.671 0 33.383 24.81 45.638 8.967z" transform="translate(-549 -2557) translate(549 2557)"/>
                <path fill="#F7B82F" d="M0.367 120.379L7.84 117.39 16.807 127.852 6.345 138.314 0.367 120.379z" transform="translate(-549 -2557) translate(549 2557)"/>
            </g>
        </g>
    </g>
</svg>
