<svg xmlns="http://www.w3.org/2000/svg" width="18" height="14" viewBox="0 0 18 14">
    <g fill="none" fill-rule="evenodd">
        <g fill="#696A7B" fill-rule="nonzero">
            <g>
                <path d="M9.05 13.824c-.134 0-.262-.05-.36-.141l-.019-.022c-.017-.016-.035-.03-.055-.041L.506 5.583C.406 5.485.35 5.351.35 5.21c-.001-.14.054-.274.153-.373.099-.1.234-.157.375-.157.14 0 .272.055.371.153l7.793 7.723L16.727 4.8c.1-.105.238-.164.383-.164.136 0 .266.052.365.147.101.097.16.23.162.37.003.14-.05.275-.147.376l-8.066 8.139c-.1.1-.234.156-.375.156z" transform="translate(-412 -2744) translate(412 2744)"/>
                <path d="M9.05 9.188c-.134 0-.262-.05-.36-.141l-.019-.022c-.017-.015-.035-.03-.055-.041L.506.947C.406.85.35.715.35.575.349.435.404.3.503.2.602.1.737.044.878.045c.14 0 .272.054.371.152L9.042 7.92 16.727.164c.1-.105.238-.164.383-.164.136 0 .266.052.365.147.101.097.16.23.162.37.003.14-.05.275-.147.376L9.424 9.032c-.1.1-.234.156-.375.156z" transform="translate(-412 -2744) translate(412 2744)"/>
            </g>
        </g>
    </g>
</svg>
