<?xml version="1.0" encoding="UTF-8"?>
<svg width="20px" height="18px" viewBox="0 0 20 18" version="1.1" xmlns="http://www.w3.org/2000/svg" xmlns:xlink="http://www.w3.org/1999/xlink">
    <!-- Generator: Sketch 56.2 (81672) - https://sketch.com -->
    <title>形状</title>
    <desc>Created with Sketch.</desc>
    <g id="优化调整5月7日" stroke="none" stroke-width="1" fill="none" fill-rule="evenodd">
        <g id="1.官网主页_PC1440=3" transform="translate(-120.000000, -712.000000)" fill="#FFFFFF" fill-rule="nonzero">
            <g id="编组-56" transform="translate(0.000000, 701.000000)">
                <g id="公告" transform="translate(120.000000, 11.000000)">
                    <path d="M11.2980143,0.30000384 L4.88807912,5.12065203 L0.823359544,5.12065203 L0.0999991316,5.84841244 L0.0999991316,11.3035379 L0.823359544,12.0312984 L4.90041116,12.0312984 L11.3182526,16.4841121 L12.4534539,15.8839519 L12.4534539,0.883457839 L11.2980122,0.30000384 L11.2980143,0.30000384 Z M14.5672052,3.23657757 L15.3011295,4.49057903 L19.4644195,2.03274218 L18.7340187,0.77522158 L14.5672052,3.23658187 L14.5672052,3.23657757 Z M14.852329,9.23994198 L19.9000243,9.23994198 L19.9000243,7.78354028 L14.852329,7.78354028 L14.852329,9.23994198 Z M14.4871286,13.9593772 L18.6504186,16.4207374 L19.3843386,15.166736 L15.2166443,12.7053757 L14.4862434,13.9593772 L14.4871286,13.9593772 Z" id="形状"></path>
                </g>
            </g>
        </g>
    </g>
</svg>