<?xml version="1.0" encoding="UTF-8"?>
<svg width="34px" height="34px" viewBox="0 0 34 34" version="1.1" xmlns="http://www.w3.org/2000/svg" xmlns:xlink="http://www.w3.org/1999/xlink" style="background: #FFFFFF;">
    <!-- Generator: Sketch 56.2 (81672) - https://sketch.com -->
    <title>列表</title>
    <desc>Created with Sketch.</desc>
    <g id="最终稿" stroke="none" stroke-width="1" fill="none" fill-rule="evenodd">
        <g id="9.1马丁课程_PC1440" transform="translate(-569.000000, -801.000000)">
            <rect fill="#FFFFFF" x="0" y="0" width="1440" height="3832"></rect>
            <g id="编组-24" transform="translate(569.000000, 206.000000)">
                <g id="编组-25" transform="translate(0.000000, 595.000000)">
                    <g id="练习">
                        <path d="M1,17.0014256 C1,25.8241412 8.17589012,33 17.0014256,33 C25.8241412,33 33,25.8241099 33,17.0014256 C33,8.17871008 25.8212899,1 16.9985744,1 C8.17585879,1 1,8.17871008 1,17.0014256 Z" id="路径" stroke="#303355"></path>
                        <rect id="矩形" stroke="#303355" fill="#303355" x="10.5" y="9.5" width="13" height="15"></rect>
                        <rect id="矩形" stroke="#FFFFFF" fill="#FFFFFF" x="17.5" y="12.5" width="3" height="1"></rect>
                        <rect id="矩形" stroke="#FFFFFF" fill="#FFFFFF" x="13.5" y="12.5" width="1" height="1"></rect>
                        <rect id="矩形" stroke="#FFFFFF" fill="#FFFFFF" x="17.5" y="15.5" width="3" height="1"></rect>
                        <rect id="矩形" stroke="#FFFFFF" fill="#FFFFFF" x="13.5" y="15.5" width="1" height="1"></rect>
                        <rect id="矩形" stroke="#FFFFFF" fill="#FFFFFF" x="17.5" y="18.5" width="3" height="1"></rect>
                        <rect id="矩形" stroke="#FFFFFF" fill="#FFFFFF" x="13.5" y="18.5" width="1" height="1"></rect>
                        <rect id="矩形" stroke="#FFFFFF" fill="#FFFFFF" x="17.5" y="21.5" width="3" height="1"></rect>
                        <rect id="矩形" stroke="#FFFFFF" fill="#FFFFFF" x="13.5" y="21.5" width="1" height="1"></rect>
                    </g>
                </g>
            </g>
        </g>
    </g>
</svg>