<svg width="77" height="79" viewBox="0 0 77 79" fill="none" xmlns="http://www.w3.org/2000/svg">
<path fill-rule="evenodd" clip-rule="evenodd" d="M73 75H22H11H7V79H11H73H77V75V20.5V20L56 0H11H7V4V34H11V4H53.5V26H73V75ZM59 37H0V72H59V37Z" fill="#467EDB"/>
<path d="M4.76005 47.292V60.702H6.56005V55.446H9.71005C13.058 55.446 14.48 53.79 14.48 51.324C14.48 49.002 13.148 47.292 9.71005 47.292H4.76005ZM6.56005 48.894H9.51205C11.582 48.894 12.68 49.776 12.68 51.324C12.68 52.944 11.6 53.826 9.45805 53.844H6.56005V48.894ZM15.3448 60.702H17.2168L18.6208 57.138H24.6688L26.0548 60.702H27.9448L22.6708 47.292H20.7088L15.3448 60.702ZM21.6808 49.416H21.6988L24.0568 55.518H19.2688L21.6808 49.416ZM29.1484 53.97C29.1484 58.452 31.9204 61.026 34.9444 61.026C37.1224 61.026 38.6524 59.784 39.4264 58.218V60.702H41.0284V53.394H35.4304V54.996H39.2284V56.184C38.7244 57.984 37.2484 59.388 35.1784 59.388C32.8024 59.388 30.9484 57.264 30.9484 53.97C30.9484 50.766 32.7484 48.588 35.3224 48.588C37.0504 48.588 38.2204 49.416 38.8864 50.964L40.7764 50.676C39.9844 48.822 38.6704 46.968 35.3224 46.968C31.5784 46.968 29.1484 49.848 29.1484 53.97ZM43.9593 47.292V60.702H53.8053V59.082H45.7593V54.564H52.9593V52.962H45.7593V48.894H53.6973V47.292H43.9593Z" fill="white"/>
</svg>
