<?xml version="1.0" encoding="UTF-8"?>
<svg width="15px" height="20px" viewBox="0 0 15 20" version="1.1" xmlns="http://www.w3.org/2000/svg" xmlns:xlink="http://www.w3.org/1999/xlink">
    <!-- Generator: Sketch 56.2 (81672) - https://sketch.com -->
    <title>形状</title>
    <desc>Created with Sketch.</desc>
    <defs>
        <linearGradient x1="50%" y1="0%" x2="50%" y2="100%" id="linearGradient-1">
            <stop stop-color="#FFCC3C" offset="0%"></stop>
            <stop stop-color="#FFBA2E" offset="100%"></stop>
        </linearGradient>
    </defs>
    <g id="优化调整" stroke="none" stroke-width="1" fill="none" fill-rule="evenodd">
        <g id="1.官网主页_PC1440-02" transform="translate(-268.000000, -10.000000)" fill="url(#linearGradient-1)" fill-rule="nonzero">
            <g id="编组-3">
                <g id="编组-28" transform="translate(120.000000, 10.000000)">
                    <g id="火热" transform="translate(148.000000, 0.000000)">
                        <path d="M14.2749508,11.8129425 L14.2749508,12.7452256 C14.2613207,12.7907126 14.2442531,12.8350604 14.2351797,12.8816665 C14.1396491,13.3739691 14.0862279,13.8787825 13.9429719,14.3562958 C13.5166015,15.7649729 12.7196002,16.9394601 11.6008525,17.8979042 C10.7390383,18.6369276 9.76808329,19.1712796 8.65840903,19.4327897 C8.2945932,19.5203261 7.91938565,19.571489 7.54987395,19.6374411 L6.61871008,19.6374411 C6.57324309,19.6249302 6.5277761,19.6033259 6.48114996,19.5999283 L6.48114998,19.5999283 C5.50944954,19.5413473 4.56051257,19.2815575 3.69447341,18.8370223 C2.0436321,17.9956732 0.852097285,16.7450413 0.308651885,14.9429698 C0.192676096,14.5575297 0.144930764,14.1550619 0.0642093765,13.7593892 L0.0642093765,12.8714339 C0.0983246051,12.6531325 0.130161488,12.4325726 0.171091768,12.2142711 C0.347303819,11.2615029 0.77025671,10.4178955 1.33076972,9.63794181 C1.86058501,8.90461429 2.42225718,8.19401026 2.92365311,7.44363512 C3.46597932,6.62728787 3.72860863,5.722285 3.57512008,4.72972571 L3.48644446,4.14191252 L3.54670071,4.12712326 C4.75868068,5.39598193 4.95423869,6.95359094 4.78142417,8.63742829 C4.82691114,8.58966298 4.86328473,8.55784608 4.89170409,8.51917416 C5.91951779,7.12868381 6.36063749,5.5937983 6.02524102,3.87358736 C5.8126354,2.77984154 5.35216974,1.79637564 4.59042286,0.977770034 C4.25838395,0.625345933 3.85819453,0.334257294 3.48982201,0.0147892627 L3.87070545,0.0147892627 C3.90140316,0.027280193 3.9309617,0.0488845059 3.96279858,0.0534411973 C4.63359151,0.110279926 5.26233497,0.317209673 5.86149992,0.608278325 C7.23380348,1.27225621 8.3446169,2.25344376 9.27462162,3.45065445 C10.6412493,5.21293485 11.5303437,7.16621655 11.7065758,9.41624279 C11.7748062,10.2746195 11.6861106,11.1102927 11.4564574,11.933455 C11.3711793,12.2449688 11.2495276,12.5474092 11.1380885,12.8714339 C11.5815066,12.682711 11.9180622,12.3939207 12.1784132,12.0187131 C12.9549493,10.9011046 13.1721116,9.65387025 12.9970188,8.27587082 C13.0538775,8.34182293 13.0822968,8.36796395 13.102742,8.40094001 C13.5700427,9.1399634 13.9213476,9.92901046 14.1032755,10.7851288 C14.1760227,11.1239428 14.2169729,11.4718302 14.2749508,11.8140617 M6.95866326,10.173453 L6.90410287,10.2121049 C6.88135939,10.5509189 6.86203342,10.890872 6.82905736,11.2308052 L6.82905735,11.2308054 C6.78928983,11.7472983 6.64868692,12.2509926 6.41519786,12.7134088 C6.11845333,13.2818761 5.62275326,13.6365985 5.07359201,13.9185737 C4.48124212,14.2244117 4.10719372,14.6609947 4.05944839,15.3499944 C4.00940473,16.0583201 4.22203034,16.6540675 4.79391509,17.0895313 C5.32828708,17.4965557 5.95359304,17.6295792 6.61645173,17.6068357 C7.67494315,17.5727404 8.46285104,17.0702053 8.77892154,16.0105547 C9.00631643,15.2510862 8.96878368,14.4859018 8.81759346,13.7207374 C8.60952454,12.6713394 8.22978028,11.6935494 7.58057167,10.837431 C7.39866376,10.5975252 7.16673217,10.394013 6.95866325,10.173453" id="形状"></path>
                    </g>
                </g>
            </g>
        </g>
    </g>
</svg>