<svg width="68" height="68" viewBox="0 0 68 68" fill="none" xmlns="http://www.w3.org/2000/svg">
<path fill-rule="evenodd" clip-rule="evenodd" d="M60.605 59.417L60.605 53.5959L38.4704 53.5959L38.4704 59.417L60.605 59.417ZM38.3153 42.6169L38.3153 37.0383L60.4499 37.0383L60.4499 42.6169L38.3153 42.6169ZM10.647 50.9847L10.647 45.4062L32.7816 45.4062L32.7816 50.9847L10.647 50.9847ZM38.3153 50.9847L38.3153 45.4062L60.4499 45.4062L60.4499 50.9847L38.3153 50.9847ZM60.605 28.5023L60.605 34.3234L38.4704 34.3234L38.4704 28.5023L60.605 28.5023ZM32.7825 53.5959L32.7825 59.417L10.6479 59.417L10.6479 53.5959L32.7825 53.5959Z" fill="#1976ED"/>
<path d="M55.2994 6.32981L41.3309 4.14276L45.765 10.1886L23.7069 26.1893C22.8953 25.6357 21.9826 25.2475 21.0208 25.0469C20.0591 24.8463 19.0673 24.8373 18.102 25.0204C17.1368 25.2035 16.2172 25.5751 15.3957 26.1139C14.5742 26.6528 13.867 27.3483 13.3146 28.1607C12.761 28.9722 12.3728 29.885 12.1722 30.8467C11.9716 31.8085 11.9626 32.8003 12.1457 33.7655C12.3288 34.7307 12.7004 35.6504 13.2392 36.4719C13.7781 37.2933 14.4736 38.0005 15.286 38.553C18.6916 40.9098 23.3543 40.003 25.6783 36.5816C26.9684 34.7298 27.3191 32.3884 26.6601 30.2117L48.7183 14.211L53.1524 20.2568L55.2994 6.32981Z" fill="#E5C984"/>
</svg>
