<svg width="68" height="68" viewBox="0 0 68 68" fill="none" xmlns="http://www.w3.org/2000/svg">
<path d="M57.9866 24.6534L54.3332 26.3334L57.9866 28.0134L59.6666 31.6667L61.3466 28.0134L64.9999 26.3334L61.3466 24.6534L59.6666 21L57.9866 24.6534ZM51.6665 21L54.1732 15.5067L59.6666 13L54.1732 10.4933L51.6665 5L49.1599 10.4933L43.6665 13L49.1599 15.5067L51.6665 21Z" fill="#E5C984"/>
<path fill-rule="evenodd" clip-rule="evenodd" d="M25.0001 63.6667C27.9334 63.6667 30.3334 61.2667 30.3334 58.3334H19.6667C19.6667 61.2667 22.0667 63.6667 25.0001 63.6667ZM35.6668 55.6667H14.3334V50.3334H35.6668V55.6667ZM34.9468 47.6667C37.9068 45.96 45.0001 40.52 45.0001 30.3333C45.0001 19.2933 36.0401 10.3333 25.0001 10.3333C13.96 10.3333 5 19.2933 5 30.3333C5 32.8831 5.44441 35.1354 6.15716 37.1063L15.5794 27.7382L21.9795 34.0928L29.7875 26.3402L26.1235 22.7022H35.7235V32.2341L32.0595 28.5961L21.9795 38.5887L15.5794 32.2341L7.58544 40.1714C9.91816 44.2056 13.2515 46.6278 15.0534 47.6667H34.9468Z" fill="#1976ED"/>
</svg>
