<?xml version="1.0" encoding="UTF-8"?>
<svg width="24px" height="24px" viewBox="0 0 24 24" version="1.1" xmlns="http://www.w3.org/2000/svg" xmlns:xlink="http://www.w3.org/1999/xlink">
    <!-- Generator: Sketch 56.2 (81672) - https://sketch.com -->
    <title>telegram</title>
    <desc>Created with Sketch.</desc>
    <g id="优化调整5月7日" stroke="none" stroke-width="1" fill="none" fill-rule="evenodd">
        <g id="1.官网主页_PC1440=3" transform="translate(-188.000000, -5386.000000)" fill-rule="nonzero">
            <g id="编组-9" transform="translate(0.000000, 4994.000000)">
                <g id="编组-7">
                    <g id="风险提醒和资质" transform="translate(0.000000, 196.000000)">
                        <g id="编组-38" transform="translate(120.000000, 38.000000)">
                            <g id="编组-52" transform="translate(0.000000, 130.000000)">
                                <g id="telegram" transform="translate(68.000000, 28.000000)">
                                    <path d="M0.4757832,12.0000154 L0.4757832,12.0000171 C0.4757832,18.3646675 5.63536499,23.5242493 12.0000154,23.5242493 C18.3646657,23.5242493 23.5242475,18.3646675 23.5242475,12.0000171 L23.5242475,12.0000171 C23.5242475,5.63536673 18.3646657,0.47578494 12.0000154,0.47578494 C5.63536499,0.47578494 0.4757832,5.63536673 0.4757832,12.0000171 L0.4757832,12.0000154 Z" id="路径" fill="#32A8DE"></path>
                                    <path d="M17.1382245,7.68680722 L15.1530659,17.04799 C15.0035345,17.7079908 14.6142372,17.8729909 14.0573615,17.5610375 L11.0332174,15.336113 L9.57399691,16.7360365 C9.42962174,16.9242398 9.20274648,17.0350993 8.9655587,17.0325212 L9.18212146,13.9516583 L14.7843936,8.88563674 C15.0293158,8.66907398 14.7302529,8.54790197 14.4054088,8.76446472 L7.48055698,13.1292354 L4.49766288,12.1959531 C3.84797462,11.992281 3.83766211,11.5462648 4.63172554,11.2368895 L16.3003329,6.73805611 C16.8391616,6.534384 17.3135372,6.85922813 17.1382245,7.68422909 L17.1382245,7.68680722 L17.1382245,7.68680722 Z" id="路径" fill="#FFFFFF"></path>
                                </g>
                            </g>
                        </g>
                    </g>
                </g>
            </g>
        </g>
    </g>
</svg>