<?xml version="1.0" encoding="UTF-8"?>
<svg width="40px" height="20px" viewBox="0 0 40 20" version="1.1" xmlns="http://www.w3.org/2000/svg" xmlns:xlink="http://www.w3.org/1999/xlink">
    <!-- Generator: Sketch 64 (93537) - https://sketch.com -->
    <title>trump_jt2</title>
    <desc>Created with Sketch.</desc>
    <g id="页面-1" stroke="none" stroke-width="1" fill="none" fill-rule="evenodd">
        <g id="trump_jt2-2" fill-rule="nonzero">
            <g id="trump_jt2">
                <path d="M20,20 C31,20 40,11 40,0 L0,0 C0,11 9,20 20,20 Z" id="路径" fill="#000000" opacity="0.851"></path>
                <path d="M20.3,9.5 L20.3,9.5 C20.4,9.5 20.4,9.5 20.3,9.5 L27.1,3.6 C27.2,3.5 27.3,3.4 27.3,3.2 C27.3,3.1 27.2,2.9 27.1,2.8 C27,2.7 26.8,2.6 26.7,2.6 C26.5,2.6 26.4,2.7 26.3,2.8 L19.9,8.3 L13.6,2.7 C13.5,2.6 13.3,2.5 13.2,2.5 C13,2.5 12.9,2.5 12.8,2.6 C12.7,2.7 12.6,2.8 12.6,3 C12.6,3.1 12.7,3.3 12.8,3.4 L19.5,9.3 C19.6,9.4 19.8,9.5 19.9,9.5 C20.1,9.7 20.2,9.6 20.3,9.5 L20.3,9.5 Z" id="路径" fill="#FFFFFF"></path>
            </g>
        </g>
    </g>
</svg>