<?xml version="1.0" encoding="UTF-8"?>
<svg width="24px" height="24px" viewBox="0 0 24 24" version="1.1" xmlns="http://www.w3.org/2000/svg" xmlns:xlink="http://www.w3.org/1999/xlink">
    <!-- Generator: Sketch 56.2 (81672) - https://sketch.com -->
    <title>tuite</title>
    <desc>Created with Sketch.</desc>
    <g id="优化调整5月7日" stroke="none" stroke-width="1" fill="none" fill-rule="evenodd">
        <g id="1.官网主页_PC1440=3" transform="translate(-154.000000, -5386.000000)" fill-rule="nonzero">
            <g id="编组-9" transform="translate(0.000000, 4994.000000)">
                <g id="编组-7">
                    <g id="风险提醒和资质" transform="translate(0.000000, 196.000000)">
                        <g id="编组-38" transform="translate(120.000000, 38.000000)">
                            <g id="编组-52" transform="translate(0.000000, 130.000000)">
                                <g id="tuite" transform="translate(34.000000, 28.000000)">
                                    <path d="M2.71111766,12.0000146 L2.71111766,12.000016 C2.71111766,17.1301224 6.86990821,21.288913 12.0000146,21.288913 C17.130121,21.288913 21.2889116,17.1301224 21.2889116,12.000016 L21.2889116,12.000016 C21.2889116,6.86990962 17.130121,2.71111906 12.0000146,2.71111906 C6.86990821,2.71111906 2.71111766,6.86990962 2.71111766,12.000016 L2.71111766,12.0000146 Z" id="路径" fill="#FFFFFF"></path>
                                    <path d="M12.0000146,23.640238 C5.5746076,23.640238 0.359791262,18.4254217 0.359791262,12.0000146 C0.359791262,5.5746076 5.5746076,0.359791262 12.0000146,0.359791262 C18.4254217,0.359791262 23.640238,5.5746076 23.640238,12.0000146 C23.640238,18.4254217 18.4254217,23.640238 12.0000146,23.640238 Z M18.122774,9.46244918 L18.122774,9.06668197 C18.6815059,8.67091477 19.1703951,8.11218287 19.5661623,7.55345343 C19.0772731,7.78625789 18.5185412,7.94922063 17.9598117,8.04234261 C18.5185436,7.71641567 19.0074328,7.08784351 19.2402353,6.43599208 C18.6815034,6.76191902 18.0994923,6.99472398 17.4709201,7.15768623 C16.9820309,6.59895433 16.1904965,6.20318712 15.3756804,6.20318712 C13.7693299,6.20318712 12.5587441,7.48361071 12.5587441,9.18308568 C12.5587441,9.41589015 12.5587441,9.67197487 12.6285853,9.90477982 C10.2772589,9.7185361 8.18202657,8.50795253 6.73864319,6.66878722 C6.34287599,6.99471416 6.17991129,7.46032162 6.17991129,8.04233279 C6.17991129,9.08995388 6.66880048,10.0444505 7.46033488,10.6031751 C6.9714457,10.6031751 6.5756785,10.4402118 6.17991129,10.2074079 C6.17991129,11.6507961 7.15768966,12.9312124 8.43811571,13.1873064 C8.20531124,13.2571477 7.94922652,13.2571477 7.71642156,13.2571477 C7.55345834,13.2571477 7.39049462,13.2571477 7.15768966,13.1873064 C7.48361661,14.3978897 8.60107795,15.2825461 9.81166373,15.2825461 C8.81060364,16.1206415 7.55345932,16.5629697 6.24974664,16.5629697 C6.01694218,16.5629697 5.76085746,16.5629697 5.59789521,16.4931285 C6.8783188,17.3777849 8.34497654,17.866674 9.95134671,17.866674 C15.2127167,17.9830763 18.1227848,13.3968385 18.1227848,9.46244328 L18.122774,9.46244918 Z" id="形状" fill="#3298F0"></path>
                                </g>
                            </g>
                        </g>
                    </g>
                </g>
            </g>
        </g>
    </g>
</svg>