<svg xmlns="http://www.w3.org/2000/svg" width="326" height="208" viewBox="0 0 326 208">
    <defs>
        <linearGradient id="ftzgkmxtea" x1="50%" x2="50%" y1="100%" y2="0%">
            <stop offset="0%" stop-color="#FFF" stop-opacity="0"/>
            <stop offset="100%" stop-color="#FFF" stop-opacity=".505"/>
        </linearGradient>
    </defs>
    <g fill="none" fill-rule="evenodd">
        <g fill="url(#ftzgkmxtea)" fill-rule="nonzero" transform="translate(-974 -152)">
            <g>
                <g>
                    <g>
                        <path d="M319.339 69.291l-143.391 53.443c-8.937 3.501-7.047 3.48-16.054-.05L84.775 95.05l83.94-36.386c3.688-1.599 5.478-6.134 4.002-10.127l-.129-.362c-1.476-3.993-5.662-5.931-9.342-4.325L63.908 87.376c-.57.246-.87.513-.977.803-13.094 10.995-16.903 27.972-17.416 46.96 4.443 3.025 7.403 8.385 7.403 14.497 0 5.7-2.568 10.75-6.533 13.853 2.246 35.452 5.748 71.1-23.05 84.511-7.888-2.857-13.144-5.707-23.335-14.258 20.597-26.648 27.607-49.138 30.06-68.821-5.156-2.821-8.7-8.608-8.7-15.285 0-7.284 4.207-13.498 10.113-15.965.206-19.379 1.198-36.088 16.488-52.154L13.43 68.8c-9-3.523-9.057-9.238-.128-12.732L158.66 2.611c8.935-3.5 7.045-3.479 16.046.051L319.203 56.54c9.008 3.537 9.072 9.244.136 12.745v.007zM269 164.133c0 4.705-3.366 9.569-7.72 13.496-58.705 34.425-131.683 34.786-184.481 3.191-2.989-1.21-5.088-5.05-6.29-8.984 3.678-4.583 5.856-10.722 5.856-17.458 0-7.5-2.619-14.252-7.365-18.95v-25.037l90.725 33.287c8.987 3.523 7.172 3.545 16.081.05L269 109v55.133z" transform="translate(1 90) translate(973 62)"/>
                    </g>
                </g>
            </g>
        </g>
    </g>
</svg>
